LinjaSuwi-Regular.ufo
<glyph name="exclam" format="2">
  <advance width="169"/>
  <unicode hex="0021"/>
  <outline>
    <contour>
      <point x="135" y="103" type="move" smooth="yes"/>
    </contour>
    <contour>
      <point x="110" y="583" type="curve" smooth="yes"/>
      <point x="110" y="285" type="line" smooth="yes"/>
      <point x="110" y="271"/>
      <point x="99" y="260"/>
      <point x="85" y="260" type="curve" smooth="yes"/>
      <point x="71" y="260"/>
      <point x="60" y="271"/>
      <point x="60" y="285" type="curve" smooth="yes"/>
      <point x="60" y="583" type="line" smooth="yes"/>
      <point x="60" y="597"/>
      <point x="71" y="608"/>
      <point x="85" y="608" type="curve" smooth="yes"/>
      <point x="99" y="608"/>
      <point x="110" y="597"/>
    </contour>
    <contour>
      <point x="135" y="103" type="curve" smooth="yes"/>
      <point x="135" y="75"/>
      <point x="113" y="53"/>
      <point x="85" y="53" type="curve" smooth="yes"/>
      <point x="57" y="53"/>
      <point x="35" y="75"/>
      <point x="35" y="103" type="curve" smooth="yes"/>
      <point x="35" y="131"/>
      <point x="57" y="153"/>
      <point x="85" y="153" type="curve" smooth="yes"/>
      <point x="113" y="153"/>
      <point x="135" y="131"/>
    </contour>
  </outline>
</glyph>
<glyph name="quotedbl" format="2">
  <advance width="342"/>
  <unicode hex="0022"/>
  <outline>
    <contour>
      <point x="270" y="608" type="curve" smooth="yes"/>
      <point x="284" y="608"/>
      <point x="295" y="597"/>
      <point x="295" y="583" type="curve" smooth="yes"/>
      <point x="295" y="386" type="line" smooth="yes"/>
      <point x="295" y="372"/>
      <point x="284" y="361"/>
      <point x="270" y="361" type="curve" smooth="yes"/>
      <point x="256" y="361"/>
      <point x="245" y="372"/>
      <point x="245" y="386" type="curve" smooth="yes"/>
      <point x="245" y="583" type="line" smooth="yes"/>
      <point x="245" y="597"/>
      <point x="256" y="608"/>
    </contour>
    <contour>
      <point x="95" y="583" type="curve" smooth="yes"/>
      <point x="95" y="386" type="line" smooth="yes"/>
      <point x="95" y="372"/>
      <point x="84" y="361"/>
      <point x="70" y="361" type="curve" smooth="yes"/>
      <point x="56" y="361"/>
      <point x="45" y="372"/>
      <point x="45" y="386" type="curve" smooth="yes"/>
      <point x="45" y="583" type="line" smooth="yes"/>
      <point x="45" y="597"/>
      <point x="56" y="608"/>
      <point x="70" y="608" type="curve" smooth="yes"/>
      <point x="84" y="608"/>
      <point x="95" y="597"/>
    </contour>
  </outline>
</glyph>
<glyph name="numbersign" format="2">
  <advance width="622"/>
  <unicode hex="0023"/>
  <outline>
    <contour>
      <point x="62" y="258" type="curve" smooth="yes"/>
      <point x="190" y="258" type="line"/>
      <point x="190" y="408" type="line"/>
      <point x="62" y="408" type="line" smooth="yes"/>
      <point x="48" y="408"/>
      <point x="37" y="419"/>
      <point x="37" y="433" type="curve" smooth="yes"/>
      <point x="37" y="447"/>
      <point x="48" y="458"/>
      <point x="62" y="458" type="curve" smooth="yes"/>
      <point x="190" y="458" type="line"/>
      <point x="190" y="583" type="line" smooth="yes"/>
      <point x="190" y="597"/>
      <point x="201" y="608"/>
      <point x="215" y="608" type="curve" smooth="yes"/>
      <point x="229" y="608"/>
      <point x="240" y="597"/>
      <point x="240" y="583" type="curve" smooth="yes"/>
      <point x="240" y="458" type="line"/>
      <point x="384" y="458" type="line"/>
      <point x="384" y="583" type="line" smooth="yes"/>
      <point x="384" y="597"/>
      <point x="395" y="608"/>
      <point x="409" y="608" type="curve" smooth="yes"/>
      <point x="423" y="608"/>
      <point x="434" y="597"/>
      <point x="434" y="583" type="curve" smooth="yes"/>
      <point x="434" y="458" type="line"/>
      <point x="562" y="458" type="line" smooth="yes"/>
      <point x="576" y="458"/>
      <point x="587" y="447"/>
      <point x="587" y="433" type="curve" smooth="yes"/>
      <point x="587" y="419"/>
      <point x="576" y="408"/>
      <point x="562" y="408" type="curve" smooth="yes"/>
      <point x="434" y="408" type="line"/>
      <point x="434" y="258" type="line"/>
      <point x="562" y="258" type="line" smooth="yes"/>
      <point x="576" y="258"/>
      <point x="587" y="247"/>
      <point x="587" y="233" type="curve" smooth="yes"/>
      <point x="587" y="219"/>
      <point x="576" y="208"/>
      <point x="562" y="208" type="curve" smooth="yes"/>
      <point x="434" y="208" type="line"/>
      <point x="434" y="83" type="line" smooth="yes"/>
      <point x="434" y="69"/>
      <point x="423" y="58"/>
      <point x="409" y="58" type="curve" smooth="yes"/>
      <point x="395" y="58"/>
      <point x="384" y="69"/>
      <point x="384" y="83" type="curve" smooth="yes"/>
      <point x="384" y="208" type="line"/>
      <point x="240" y="208" type="line"/>
      <point x="240" y="83" type="line" smooth="yes"/>
      <point x="240" y="69"/>
      <point x="229" y="58"/>
      <point x="215" y="58" type="curve" smooth="yes"/>
      <point x="201" y="58"/>
      <point x="190" y="69"/>
      <point x="190" y="83" type="curve" smooth="yes"/>
      <point x="190" y="208" type="line"/>
      <point x="62" y="208" type="line" smooth="yes"/>
      <point x="48" y="208"/>
      <point x="37" y="219"/>
      <point x="37" y="233" type="curve" smooth="yes"/>
      <point x="37" y="247"/>
      <point x="48" y="258"/>
    </contour>
    <contour>
      <point x="384" y="408" type="line"/>
      <point x="240" y="408" type="line"/>
      <point x="240" y="258" type="line"/>
      <point x="384" y="258" type="line"/>
    </contour>
  </outline>
</glyph>
<glyph name="dollar" format="2">
  <advance width="372"/>
  <unicode hex="0024"/>
  <outline>
    <contour>
      <point x="38" y="418" type="curve" smooth="yes"/>
      <point x="38" y="492"/>
      <point x="91" y="520"/>
      <point x="162" y="525" type="curve"/>
      <point x="162" y="583" type="line" smooth="yes"/>
      <point x="162" y="597"/>
      <point x="173" y="608"/>
      <point x="187" y="608" type="curve" smooth="yes"/>
      <point x="201" y="608"/>
      <point x="212" y="597"/>
      <point x="212" y="583" type="curve" smooth="yes"/>
      <point x="212" y="524" type="line"/>
      <point x="237" y="521"/>
      <point x="258" y="514"/>
      <point x="275" y="505" type="curve" smooth="yes"/>
      <point x="304" y="489"/>
      <point x="321" y="468"/>
      <point x="332" y="449" type="curve" smooth="yes"/>
      <point x="334" y="445"/>
      <point x="336" y="441"/>
      <point x="336" y="437" type="curve" smooth="yes"/>
      <point x="336" y="424"/>
      <point x="324" y="411"/>
      <point x="310" y="411" type="curve" smooth="yes"/>
      <point x="301" y="411"/>
      <point x="293" y="416"/>
      <point x="289" y="423" type="curve" smooth="yes"/>
      <point x="270" y="455"/>
      <point x="243" y="475"/>
      <point x="187" y="475" type="curve" smooth="yes"/>
      <point x="150" y="475"/>
      <point x="125" y="470"/>
      <point x="111" y="462" type="curve" smooth="yes"/>
      <point x="95" y="454"/>
      <point x="88" y="441"/>
      <point x="88" y="418" type="curve" smooth="yes"/>
      <point x="88" y="373"/>
      <point x="145" y="360"/>
      <point x="186" y="360" type="curve" smooth="yes"/>
      <point x="188" y="360"/>
      <point x="206" y="359"/>
      <point x="230" y="354" type="curve" smooth="yes"/>
      <point x="281" y="343"/>
      <point x="335" y="315"/>
      <point x="335" y="251" type="curve" smooth="yes"/>
      <point x="335" y="187"/>
      <point x="279" y="152"/>
      <point x="212" y="145" type="curve"/>
      <point x="212" y="89" type="line" smooth="yes"/>
      <point x="212" y="75"/>
      <point x="201" y="64"/>
      <point x="187" y="64" type="curve" smooth="yes"/>
      <point x="173" y="64"/>
      <point x="162" y="75"/>
      <point x="162" y="89" type="curve" smooth="yes"/>
      <point x="162" y="145" type="line"/>
      <point x="104" y="152"/>
      <point x="61" y="186"/>
      <point x="41" y="221" type="curve" smooth="yes"/>
      <point x="39" y="225"/>
      <point x="38" y="229"/>
      <point x="38" y="233" type="curve" smooth="yes"/>
      <point x="38" y="246"/>
      <point x="49" y="258"/>
      <point x="63" y="258" type="curve" smooth="yes"/>
      <point x="72" y="258"/>
      <point x="81" y="252"/>
      <point x="85" y="245" type="curve" smooth="yes"/>
      <point x="99" y="221"/>
      <point x="134" y="194"/>
      <point x="187" y="194" type="curve" smooth="yes"/>
      <point x="210" y="194"/>
      <point x="229" y="197"/>
      <point x="244" y="203" type="curve" smooth="yes"/>
      <point x="274" y="214"/>
      <point x="285" y="231"/>
      <point x="285" y="251" type="curve" smooth="yes"/>
      <point x="285" y="269"/>
      <point x="277" y="279"/>
      <point x="264" y="288" type="curve" smooth="yes"/>
      <point x="236" y="307"/>
      <point x="188" y="310"/>
      <point x="186" y="310" type="curve" smooth="yes"/>
      <point x="116" y="310"/>
      <point x="38" y="342"/>
    </contour>
  </outline>
</glyph>
<glyph name="percent" format="2">
  <advance width="558"/>
  <unicode hex="0025"/>
  <outline>
    <contour>
      <point x="501" y="188" type="move"/>
    </contour>
    <contour>
      <point x="81" y="143" type="curve" smooth="yes"/>
      <point x="81" y="150"/>
      <point x="84" y="156"/>
      <point x="88" y="160" type="curve" smooth="yes"/>
      <point x="438" y="540" type="line" smooth="yes"/>
      <point x="443" y="545"/>
      <point x="449" y="548"/>
      <point x="456" y="548" type="curve" smooth="yes"/>
      <point x="470" y="548"/>
      <point x="481" y="537"/>
      <point x="481" y="523" type="curve" smooth="yes"/>
      <point x="481" y="516"/>
      <point x="478" y="510"/>
      <point x="474" y="506" type="curve" smooth="yes"/>
      <point x="124" y="126" type="line" smooth="yes"/>
      <point x="119" y="121"/>
      <point x="113" y="118"/>
      <point x="106" y="118" type="curve" smooth="yes"/>
      <point x="92" y="118"/>
      <point x="81" y="129"/>
    </contour>
    <contour>
      <point x="476" y="188" type="curve" smooth="yes"/>
      <point x="476" y="216"/>
      <point x="454" y="238"/>
      <point x="426" y="238" type="curve" smooth="yes"/>
      <point x="398" y="238"/>
      <point x="376" y="216"/>
      <point x="376" y="188" type="curve" smooth="yes"/>
      <point x="376" y="160"/>
      <point x="398" y="138"/>
      <point x="426" y="138" type="curve" smooth="yes"/>
      <point x="454" y="138"/>
      <point x="476" y="160"/>
    </contour>
    <contour>
      <point x="526" y="188" type="curve" smooth="yes"/>
      <point x="526" y="133"/>
      <point x="481" y="88"/>
      <point x="426" y="88" type="curve" smooth="yes"/>
      <point x="371" y="88"/>
      <point x="326" y="133"/>
      <point x="326" y="188" type="curve" smooth="yes"/>
      <point x="326" y="243"/>
      <point x="371" y="288"/>
      <point x="426" y="288" type="curve" smooth="yes"/>
      <point x="481" y="288"/>
      <point x="526" y="243"/>
    </contour>
    <contour>
      <point x="186" y="478" type="curve" smooth="yes"/>
      <point x="186" y="506"/>
      <point x="164" y="528"/>
      <point x="136" y="528" type="curve" smooth="yes"/>
      <point x="108" y="528"/>
      <point x="86" y="506"/>
      <point x="86" y="478" type="curve" smooth="yes"/>
      <point x="86" y="450"/>
      <point x="108" y="428"/>
      <point x="136" y="428" type="curve" smooth="yes"/>
      <point x="164" y="428"/>
      <point x="186" y="450"/>
    </contour>
    <contour>
      <point x="236" y="478" type="curve" smooth="yes"/>
      <point x="236" y="423"/>
      <point x="191" y="378"/>
      <point x="136" y="378" type="curve" smooth="yes"/>
      <point x="81" y="378"/>
      <point x="36" y="423"/>
      <point x="36" y="478" type="curve" smooth="yes"/>
      <point x="36" y="533"/>
      <point x="81" y="578"/>
      <point x="136" y="578" type="curve" smooth="yes"/>
      <point x="191" y="578"/>
      <point x="236" y="533"/>
    </contour>
  </outline>
</glyph>
<glyph name="ampersand" format="2">
  <advance width="447"/>
  <unicode hex="0026"/>
  <outline>
    <contour>
      <point x="86" y="233" type="curve" smooth="yes"/>
      <point x="86" y="160"/>
      <point x="131" y="108"/>
      <point x="211" y="108" type="curve" smooth="yes"/>
      <point x="247" y="108"/>
      <point x="281" y="138"/>
      <point x="309" y="181" type="curve"/>
      <point x="257" y="250"/>
      <point x="208" y="296"/>
      <point x="166" y="333" type="curve"/>
      <point x="118" y="311"/>
      <point x="86" y="285"/>
    </contour>
    <contour>
      <point x="360" y="486" type="curve" smooth="yes"/>
      <point x="360" y="402"/>
      <point x="279" y="378"/>
      <point x="217" y="354" type="curve"/>
      <point x="252" y="322"/>
      <point x="293" y="282"/>
      <point x="336" y="228" type="curve"/>
      <point x="354" y="264"/>
      <point x="363" y="293"/>
      <point x="363" y="293" type="curve"/>
      <point x="366" y="303"/>
      <point x="376" y="311"/>
      <point x="387" y="311" type="curve" smooth="yes"/>
      <point x="401" y="311"/>
      <point x="412" y="299"/>
      <point x="412" y="285" type="curve" smooth="yes"/>
      <point x="412" y="283"/>
      <point x="412" y="281"/>
      <point x="411" y="278" type="curve" smooth="yes"/>
      <point x="411" y="277"/>
      <point x="396" y="232"/>
      <point x="369" y="183" type="curve"/>
      <point x="383" y="162"/>
      <point x="398" y="140"/>
      <point x="412" y="115" type="curve" smooth="yes"/>
      <point x="414" y="111"/>
      <point x="415" y="107"/>
      <point x="415" y="103" type="curve" smooth="yes"/>
      <point x="415" y="90"/>
      <point x="404" y="78"/>
      <point x="390" y="78" type="curve" smooth="yes"/>
      <point x="381" y="78"/>
      <point x="373" y="83"/>
      <point x="369" y="90" type="curve" smooth="yes"/>
      <point x="359" y="107"/>
      <point x="350" y="122"/>
      <point x="340" y="137" type="curve"/>
      <point x="310" y="96"/>
      <point x="267" y="58"/>
      <point x="211" y="58" type="curve" smooth="yes"/>
      <point x="106" y="58"/>
      <point x="36" y="134"/>
      <point x="36" y="233" type="curve" smooth="yes"/>
      <point x="36" y="304"/>
      <point x="78" y="343"/>
      <point x="126" y="369" type="curve"/>
      <point x="96" y="396"/>
      <point x="62" y="436"/>
      <point x="62" y="486" type="curve" smooth="yes"/>
      <point x="62" y="519"/>
      <point x="75" y="555"/>
      <point x="107" y="579" type="curve" smooth="yes"/>
      <point x="132" y="598"/>
      <point x="167" y="608"/>
      <point x="211" y="608" type="curve" smooth="yes"/>
      <point x="281" y="608"/>
      <point x="360" y="568"/>
    </contour>
    <contour>
      <point x="211" y="558" type="curve" smooth="yes"/>
      <point x="150" y="558"/>
      <point x="112" y="536"/>
      <point x="112" y="486" type="curve" smooth="yes"/>
      <point x="112" y="446"/>
      <point x="149" y="415"/>
      <point x="175" y="391" type="curve"/>
      <point x="205" y="403"/>
      <point x="241" y="416"/>
      <point x="265" y="429" type="curve" smooth="yes"/>
      <point x="289" y="443"/>
      <point x="310" y="452"/>
      <point x="310" y="486" type="curve" smooth="yes"/>
      <point x="310" y="528"/>
      <point x="268" y="558"/>
    </contour>
  </outline>
</glyph>
<glyph name="quotesingle" format="2">
  <advance width="138"/>
  <unicode hex="0027"/>
  <outline>
    <contour>
      <point x="94" y="583" type="curve" smooth="yes"/>
      <point x="94" y="439" type="line" smooth="yes"/>
      <point x="94" y="425"/>
      <point x="83" y="414"/>
      <point x="69" y="414" type="curve" smooth="yes"/>
      <point x="55" y="414"/>
      <point x="44" y="425"/>
      <point x="44" y="439" type="curve" smooth="yes"/>
      <point x="44" y="583" type="line" smooth="yes"/>
      <point x="44" y="597"/>
      <point x="55" y="608"/>
      <point x="69" y="608" type="curve" smooth="yes"/>
      <point x="83" y="608"/>
      <point x="94" y="597"/>
    </contour>
  </outline>
</glyph>
<glyph name="parenleft" format="2">
  <advance width="303"/>
  <unicode hex="0028"/>
  <outline>
    <contour>
      <point x="195" y="659" type="curve" smooth="yes"/>
      <point x="195" y="649"/>
      <point x="188" y="645"/>
      <point x="182" y="637" type="curve"/>
      <point x="182" y="637"/>
      <point x="88" y="523"/>
      <point x="88" y="326" type="curve" smooth="yes"/>
      <point x="88" y="129"/>
      <point x="182" y="17"/>
      <point x="182" y="17" type="curve"/>
      <point x="189" y="8"/>
      <point x="195" y="5"/>
      <point x="195" y="-5" type="curve" smooth="yes"/>
      <point x="195" y="-19"/>
      <point x="183" y="-30"/>
      <point x="170" y="-30" type="curve" smooth="yes"/>
      <point x="166" y="-30"/>
      <point x="162.721" y="-29.4807"/>
      <point x="159" y="-27" type="curve" smooth="yes"/>
      <point x="156" y="-25"/>
      <point x="38" y="98"/>
      <point x="38" y="326" type="curve" smooth="yes"/>
      <point x="38" y="554"/>
      <point x="157" y="680"/>
      <point x="159" y="681" type="curve" smooth="yes"/>
      <point x="163" y="683"/>
      <point x="166" y="684"/>
      <point x="170" y="684" type="curve" smooth="yes"/>
      <point x="183" y="684"/>
      <point x="195" y="673"/>
    </contour>
  </outline>
</glyph>
<glyph name="parenright" format="2">
  <advance width="302"/>
  <unicode hex="0029"/>
  <outline>
    <contour>
      <point x="108" y="660" type="curve" smooth="yes"/>
      <point x="108" y="674"/>
      <point x="120" y="685"/>
      <point x="133" y="685" type="curve" smooth="yes"/>
      <point x="137" y="685"/>
      <point x="140" y="684"/>
      <point x="144" y="682" type="curve" smooth="yes"/>
      <point x="146" y="681"/>
      <point x="265" y="555"/>
      <point x="265" y="327" type="curve" smooth="yes"/>
      <point x="265" y="99"/>
      <point x="147" y="-24"/>
      <point x="144" y="-26" type="curve" smooth="yes"/>
      <point x="140" y="-28"/>
      <point x="137" y="-29"/>
      <point x="133" y="-29" type="curve" smooth="yes"/>
      <point x="120" y="-29"/>
      <point x="108" y="-18"/>
      <point x="108" y="-4" type="curve" smooth="yes"/>
      <point x="108" y="6"/>
      <point x="114" y="9"/>
      <point x="121" y="18" type="curve"/>
      <point x="121" y="18"/>
      <point x="215" y="130"/>
      <point x="215" y="327" type="curve" smooth="yes"/>
      <point x="215" y="524"/>
      <point x="121" y="638"/>
      <point x="121" y="638" type="curve"/>
      <point x="115" y="646"/>
      <point x="108" y="650"/>
    </contour>
  </outline>
</glyph>
<glyph name="asterisk" format="2">
  <advance width="616"/>
  <unicode hex="002A"/>
  <outline>
    <contour>
      <point x="33" y="333" type="curve" smooth="yes"/>
      <point x="33" y="347"/>
      <point x="44" y="358"/>
      <point x="58" y="358" type="curve" smooth="yes"/>
      <point x="260" y="358" type="line"/>
      <point x="137" y="534" type="line" smooth="yes"/>
      <point x="134" y="538"/>
      <point x="133" y="543"/>
      <point x="133" y="548" type="curve" smooth="yes"/>
      <point x="133" y="561"/>
      <point x="144" y="573"/>
      <point x="158" y="573" type="curve" smooth="yes"/>
      <point x="166" y="573"/>
      <point x="174" y="568"/>
      <point x="179" y="562" type="curve" smooth="yes"/>
      <point x="308" y="377" type="line"/>
      <point x="437" y="562" type="line" smooth="yes"/>
      <point x="442" y="568"/>
      <point x="450" y="573"/>
      <point x="458" y="573" type="curve" smooth="yes"/>
      <point x="472" y="573"/>
      <point x="483" y="561"/>
      <point x="483" y="548" type="curve" smooth="yes"/>
      <point x="483" y="543"/>
      <point x="482" y="538"/>
      <point x="479" y="534" type="curve" smooth="yes"/>
      <point x="356" y="358" type="line"/>
      <point x="558" y="358" type="line" smooth="yes"/>
      <point x="572" y="358"/>
      <point x="583" y="347"/>
      <point x="583" y="333" type="curve" smooth="yes"/>
      <point x="583" y="319"/>
      <point x="572" y="308"/>
      <point x="558" y="308" type="curve" smooth="yes"/>
      <point x="356" y="308" type="line"/>
      <point x="479" y="132" type="line" smooth="yes"/>
      <point x="482" y="128"/>
      <point x="483" y="123"/>
      <point x="483" y="118" type="curve" smooth="yes"/>
      <point x="483" y="105"/>
      <point x="472" y="93"/>
      <point x="458" y="93" type="curve" smooth="yes"/>
      <point x="450" y="93"/>
      <point x="442" y="98"/>
      <point x="437" y="104" type="curve" smooth="yes"/>
      <point x="308" y="289" type="line"/>
      <point x="179" y="104" type="line" smooth="yes"/>
      <point x="174" y="98"/>
      <point x="166" y="93"/>
      <point x="158" y="93" type="curve" smooth="yes"/>
      <point x="144" y="93"/>
      <point x="133" y="105"/>
      <point x="133" y="118" type="curve" smooth="yes"/>
      <point x="133" y="123"/>
      <point x="134" y="128"/>
      <point x="137" y="132" type="curve" smooth="yes"/>
      <point x="260" y="308" type="line"/>
      <point x="58" y="308" type="line" smooth="yes"/>
      <point x="44" y="308"/>
      <point x="33" y="319"/>
    </contour>
  </outline>
</glyph>
<glyph name="plus" format="2">
  <advance width="568"/>
  <unicode hex="002B"/>
  <outline>
    <contour>
      <point x="59" y="358" type="curve" smooth="yes"/>
      <point x="259" y="358" type="line"/>
      <point x="259" y="558" type="line" smooth="yes"/>
      <point x="259" y="572"/>
      <point x="270" y="583"/>
      <point x="284" y="583" type="curve" smooth="yes"/>
      <point x="298" y="583"/>
      <point x="309" y="572"/>
      <point x="309" y="558" type="curve" smooth="yes"/>
      <point x="309" y="358" type="line"/>
      <point x="509" y="358" type="line" smooth="yes"/>
      <point x="523" y="358"/>
      <point x="534" y="347"/>
      <point x="534" y="333" type="curve" smooth="yes"/>
      <point x="534" y="319"/>
      <point x="523" y="308"/>
      <point x="509" y="308" type="curve" smooth="yes"/>
      <point x="309" y="308" type="line"/>
      <point x="309" y="108" type="line" smooth="yes"/>
      <point x="309" y="94"/>
      <point x="298" y="83"/>
      <point x="284" y="83" type="curve" smooth="yes"/>
      <point x="270" y="83"/>
      <point x="259" y="94"/>
      <point x="259" y="108" type="curve" smooth="yes"/>
      <point x="259" y="308" type="line"/>
      <point x="59" y="308" type="line" smooth="yes"/>
      <point x="45" y="308"/>
      <point x="34" y="319"/>
      <point x="34" y="333" type="curve" smooth="yes"/>
      <point x="34" y="347"/>
      <point x="45" y="358"/>
    </contour>
  </outline>
</glyph>
<glyph name="comma" format="2">
  <advance width="197"/>
  <unicode hex="002C"/>
  <outline>
    <contour>
      <point x="37" y="45" type="curve" smooth="yes"/>
      <point x="37" y="52"/>
      <point x="40" y="59"/>
      <point x="45" y="64" type="curve" smooth="yes"/>
      <point x="71" y="88"/>
      <point x="90" y="97"/>
      <point x="110" y="136" type="curve" smooth="yes"/>
      <point x="114" y="144"/>
      <point x="122" y="150"/>
      <point x="132" y="150" type="curve" smooth="yes"/>
      <point x="146" y="150"/>
      <point x="158" y="138"/>
      <point x="158" y="124" type="curve" smooth="yes"/>
      <point x="158" y="120"/>
      <point x="157" y="117"/>
      <point x="155" y="113" type="curve" smooth="yes"/>
      <point x="135" y="74"/>
      <point x="111" y="55"/>
      <point x="93" y="39" type="curve" smooth="yes"/>
      <point x="84" y="32"/>
      <point x="76" y="20"/>
      <point x="62" y="20" type="curve" smooth="yes"/>
      <point x="48" y="20"/>
      <point x="37" y="31"/>
    </contour>
  </outline>
</glyph>
<glyph name="hyphen" format="2">
  <advance width="438"/>
  <unicode hex="002D"/>
  <outline>
    <contour>
      <point x="69" y="358" type="curve" smooth="yes"/>
      <point x="369" y="358" type="line" smooth="yes"/>
      <point x="383" y="358"/>
      <point x="394" y="347"/>
      <point x="394" y="333" type="curve" smooth="yes"/>
      <point x="394" y="319"/>
      <point x="383" y="308"/>
      <point x="369" y="308" type="curve" smooth="yes"/>
      <point x="69" y="308" type="line" smooth="yes"/>
      <point x="55" y="308"/>
      <point x="44" y="319"/>
      <point x="44" y="333" type="curve" smooth="yes"/>
      <point x="44" y="347"/>
      <point x="55" y="358"/>
    </contour>
  </outline>
</glyph>
<glyph name="period" format="2">
  <advance width="182"/>
  <unicode hex="002E"/>
  <outline>
    <contour>
      <point x="141" y="87" type="move" smooth="yes"/>
    </contour>
    <contour>
      <point x="141" y="87" type="curve" smooth="yes"/>
      <point x="141" y="59"/>
      <point x="119" y="37"/>
      <point x="91" y="37" type="curve" smooth="yes"/>
      <point x="63" y="37"/>
      <point x="41" y="59"/>
      <point x="41" y="87" type="curve" smooth="yes"/>
      <point x="41" y="115"/>
      <point x="63" y="137"/>
      <point x="91" y="137" type="curve" smooth="yes"/>
      <point x="119" y="137"/>
      <point x="141" y="115"/>
    </contour>
  </outline>
</glyph>
<glyph name="slash" format="2">
  <advance width="265"/>
  <unicode hex="002F"/>
  <outline>
    <contour>
      <point x="232" y="576" type="curve" smooth="yes"/>
      <point x="82" y="76" type="line" smooth="yes"/>
      <point x="79" y="66"/>
      <point x="69" y="58"/>
      <point x="58" y="58" type="curve" smooth="yes"/>
      <point x="44" y="58"/>
      <point x="33" y="69"/>
      <point x="33" y="83" type="curve" smooth="yes"/>
      <point x="33" y="85"/>
      <point x="33" y="87"/>
      <point x="34" y="90" type="curve" smooth="yes"/>
      <point x="184" y="590" type="line" smooth="yes"/>
      <point x="187" y="600"/>
      <point x="197" y="608"/>
      <point x="208" y="608" type="curve" smooth="yes"/>
      <point x="222" y="608"/>
      <point x="233" y="597"/>
      <point x="233" y="583" type="curve" smooth="yes"/>
      <point x="233" y="581"/>
      <point x="233" y="579"/>
    </contour>
  </outline>
</glyph>
<glyph name="zero" format="2">
  <advance width="432"/>
  <unicode hex="0030"/>
  <outline>
    <contour>
      <point x="92" y="333" type="curve" smooth="yes"/>
      <point x="92" y="218"/>
      <point x="99" y="108"/>
      <point x="217" y="108" type="curve" smooth="yes"/>
      <point x="335" y="108"/>
      <point x="342" y="218"/>
      <point x="342" y="333" type="curve" smooth="yes"/>
      <point x="342" y="448"/>
      <point x="335" y="558"/>
      <point x="217" y="558" type="curve" smooth="yes"/>
      <point x="99" y="558"/>
      <point x="92" y="448"/>
    </contour>
    <contour>
      <point x="217" y="608" type="curve" smooth="yes"/>
      <point x="254" y="608"/>
      <point x="285" y="599"/>
      <point x="310" y="584" type="curve" smooth="yes"/>
      <point x="382" y="539"/>
      <point x="392" y="436"/>
      <point x="392" y="333" type="curve" smooth="yes"/>
      <point x="392" y="230"/>
      <point x="382" y="127"/>
      <point x="310" y="82" type="curve" smooth="yes"/>
      <point x="285" y="67"/>
      <point x="254" y="58"/>
      <point x="217" y="58" type="curve" smooth="yes"/>
      <point x="180" y="58"/>
      <point x="149" y="67"/>
      <point x="124" y="82" type="curve" smooth="yes"/>
      <point x="52" y="127"/>
      <point x="42" y="230"/>
      <point x="42" y="333" type="curve" smooth="yes"/>
      <point x="42" y="436"/>
      <point x="52" y="539"/>
      <point x="124" y="584" type="curve" smooth="yes"/>
      <point x="149" y="599"/>
      <point x="180" y="608"/>
    </contour>
  </outline>
</glyph>
<glyph name="one" format="2">
  <advance width="312"/>
  <unicode hex="0031"/>
  <outline>
    <contour>
      <point x="61" y="108" type="curve" smooth="yes"/>
      <point x="133" y="108" type="line"/>
      <point x="133" y="523" type="line"/>
      <point x="79" y="468" type="line" smooth="yes"/>
      <point x="74" y="463"/>
      <point x="68" y="461"/>
      <point x="61" y="461" type="curve" smooth="yes"/>
      <point x="47" y="461"/>
      <point x="36" y="472"/>
      <point x="36" y="486" type="curve" smooth="yes"/>
      <point x="36" y="493"/>
      <point x="38" y="499"/>
      <point x="43" y="504" type="curve" smooth="yes"/>
      <point x="140" y="601" type="line" smooth="yes"/>
      <point x="145" y="606"/>
      <point x="151" y="608"/>
      <point x="158" y="608" type="curve" smooth="yes"/>
      <point x="172" y="608"/>
      <point x="183" y="597"/>
      <point x="183" y="583" type="curve" smooth="yes"/>
      <point x="183" y="108" type="line"/>
      <point x="255" y="108" type="line" smooth="yes"/>
      <point x="269" y="108"/>
      <point x="280" y="97"/>
      <point x="280" y="83" type="curve" smooth="yes"/>
      <point x="280" y="69"/>
      <point x="269" y="58"/>
      <point x="255" y="58" type="curve" smooth="yes"/>
      <point x="61" y="58" type="line" smooth="yes"/>
      <point x="47" y="58"/>
      <point x="36" y="69"/>
      <point x="36" y="83" type="curve" smooth="yes"/>
      <point x="36" y="97"/>
      <point x="47" y="108"/>
    </contour>
  </outline>
</glyph>
<glyph name="two" format="2">
  <advance width="428"/>
  <unicode hex="0032"/>
  <outline>
    <contour>
      <point x="213" y="608" type="curve" smooth="yes"/>
      <point x="336" y="608"/>
      <point x="388" y="563"/>
      <point x="388" y="459" type="curve" smooth="yes"/>
      <point x="388" y="451" type="line" smooth="yes"/>
      <point x="388" y="403"/>
      <point x="366" y="364"/>
      <point x="336" y="327" type="curve" smooth="yes"/>
      <point x="312" y="298"/>
      <point x="281" y="270"/>
      <point x="247" y="238" type="curve" smooth="yes"/>
      <point x="207" y="201"/>
      <point x="163" y="160"/>
      <point x="117" y="108" type="curve"/>
      <point x="363" y="108" type="line" smooth="yes"/>
      <point x="377" y="108"/>
      <point x="388" y="97"/>
      <point x="388" y="83" type="curve" smooth="yes"/>
      <point x="388" y="69"/>
      <point x="377" y="58"/>
      <point x="363" y="58" type="curve" smooth="yes"/>
      <point x="63" y="58" type="line" smooth="yes"/>
      <point x="49" y="58"/>
      <point x="38" y="69"/>
      <point x="38" y="83" type="curve" smooth="yes"/>
      <point x="38" y="89"/>
      <point x="40" y="95"/>
      <point x="43" y="99" type="curve" smooth="yes"/>
      <point x="103" y="174"/>
      <point x="163" y="228"/>
      <point x="213" y="274" type="curve" smooth="yes"/>
      <point x="247" y="306"/>
      <point x="277" y="333"/>
      <point x="298" y="359" type="curve" smooth="yes"/>
      <point x="325" y="391"/>
      <point x="338" y="419"/>
      <point x="338" y="451" type="curve" smooth="yes"/>
      <point x="338" y="477"/>
      <point x="337" y="501"/>
      <point x="328" y="518" type="curve" smooth="yes"/>
      <point x="318" y="537"/>
      <point x="293" y="558"/>
      <point x="213" y="558" type="curve" smooth="yes"/>
      <point x="152" y="558"/>
      <point x="116" y="536"/>
      <point x="99" y="500" type="curve" smooth="yes"/>
      <point x="88" y="477"/>
      <point x="88" y="459"/>
      <point x="88" y="459" type="curve"/>
      <point x="88" y="445"/>
      <point x="77" y="434"/>
      <point x="63" y="434" type="curve" smooth="yes"/>
      <point x="49" y="434"/>
      <point x="38" y="445"/>
      <point x="38" y="459" type="curve" smooth="yes"/>
      <point x="38" y="461"/>
      <point x="38" y="490"/>
      <point x="54" y="522" type="curve" smooth="yes"/>
      <point x="65" y="544"/>
      <point x="83" y="569"/>
      <point x="115" y="586" type="curve" smooth="yes"/>
      <point x="140" y="600"/>
      <point x="173" y="608"/>
    </contour>
  </outline>
</glyph>
<glyph name="three" format="2">
  <advance width="427"/>
  <unicode hex="0033"/>
  <outline>
    <contour>
      <point x="323" y="333" type="curve"/>
      <point x="358" y="315"/>
      <point x="388" y="283"/>
      <point x="388" y="233" type="curve" smooth="yes"/>
      <point x="388" y="204"/>
      <point x="388" y="166"/>
      <point x="372" y="132" type="curve" smooth="yes"/>
      <point x="347" y="83"/>
      <point x="292" y="58"/>
      <point x="213" y="58" type="curve" smooth="yes"/>
      <point x="173" y="58"/>
      <point x="140" y="66"/>
      <point x="115" y="80" type="curve" smooth="yes"/>
      <point x="83" y="97"/>
      <point x="65" y="122"/>
      <point x="54" y="144" type="curve" smooth="yes"/>
      <point x="38" y="176"/>
      <point x="38" y="205"/>
      <point x="38" y="207" type="curve" smooth="yes"/>
      <point x="38" y="221"/>
      <point x="49" y="232"/>
      <point x="63" y="232" type="curve" smooth="yes"/>
      <point x="77" y="232"/>
      <point x="88" y="221"/>
      <point x="88" y="207" type="curve"/>
      <point x="88" y="207"/>
      <point x="88" y="189"/>
      <point x="99" y="166" type="curve" smooth="yes"/>
      <point x="116" y="130"/>
      <point x="152" y="108"/>
      <point x="213" y="108" type="curve" smooth="yes"/>
      <point x="271" y="108"/>
      <point x="311" y="121"/>
      <point x="327" y="154" type="curve" smooth="yes"/>
      <point x="337" y="175"/>
      <point x="338" y="203"/>
      <point x="338" y="233" type="curve" smooth="yes"/>
      <point x="338" y="257"/>
      <point x="327" y="272"/>
      <point x="310" y="283" type="curve" smooth="yes"/>
      <point x="273" y="307"/>
      <point x="213" y="308"/>
      <point x="213" y="308" type="curve"/>
      <point x="199" y="308"/>
      <point x="188" y="319"/>
      <point x="188" y="333" type="curve" smooth="yes"/>
      <point x="188" y="347"/>
      <point x="199" y="358"/>
      <point x="213" y="358" type="curve"/>
      <point x="213" y="358"/>
      <point x="273" y="359"/>
      <point x="310" y="383" type="curve" smooth="yes"/>
      <point x="327" y="394"/>
      <point x="338" y="409"/>
      <point x="338" y="433" type="curve" smooth="yes"/>
      <point x="338" y="494"/>
      <point x="335" y="529"/>
      <point x="290" y="547" type="curve" smooth="yes"/>
      <point x="273" y="554"/>
      <point x="248" y="558"/>
      <point x="213" y="558" type="curve" smooth="yes"/>
      <point x="152" y="558"/>
      <point x="116" y="536"/>
      <point x="99" y="500" type="curve" smooth="yes"/>
      <point x="88" y="477"/>
      <point x="88" y="459"/>
      <point x="88" y="459" type="curve"/>
      <point x="88" y="445"/>
      <point x="77" y="434"/>
      <point x="63" y="434" type="curve" smooth="yes"/>
      <point x="49" y="434"/>
      <point x="38" y="445"/>
      <point x="38" y="459" type="curve" smooth="yes"/>
      <point x="38" y="461"/>
      <point x="38" y="490"/>
      <point x="54" y="522" type="curve" smooth="yes"/>
      <point x="65" y="544"/>
      <point x="83" y="569"/>
      <point x="115" y="586" type="curve" smooth="yes"/>
      <point x="140" y="600"/>
      <point x="173" y="608"/>
      <point x="213" y="608" type="curve" smooth="yes"/>
      <point x="292" y="608"/>
      <point x="347" y="585"/>
      <point x="372" y="536" type="curve" smooth="yes"/>
      <point x="387" y="506"/>
      <point x="388" y="472"/>
      <point x="388" y="443" type="curve" smooth="yes"/>
      <point x="388" y="433" type="line" smooth="yes"/>
      <point x="388" y="383"/>
      <point x="358" y="351"/>
    </contour>
  </outline>
</glyph>
<glyph name="four" format="2">
  <advance width="404"/>
  <unicode hex="0034"/>
  <outline>
    <contour>
      <point x="306" y="308" type="line"/>
      <point x="60" y="308" type="line" smooth="yes"/>
      <point x="47" y="308"/>
      <point x="36" y="319"/>
      <point x="36" y="333" type="curve" smooth="yes"/>
      <point x="36" y="335"/>
      <point x="36" y="336"/>
      <point x="36" y="338" type="curve" smooth="yes"/>
      <point x="86" y="588" type="line" smooth="yes"/>
      <point x="88" y="599"/>
      <point x="98" y="608"/>
      <point x="110" y="608" type="curve" smooth="yes"/>
      <point x="124" y="608"/>
      <point x="135" y="597"/>
      <point x="135" y="583" type="curve" smooth="yes"/>
      <point x="135" y="581"/>
      <point x="135" y="580"/>
      <point x="135" y="578" type="curve" smooth="yes"/>
      <point x="91" y="358" type="line"/>
      <point x="306" y="358" type="line"/>
      <point x="306" y="583" type="line" smooth="yes"/>
      <point x="306" y="597"/>
      <point x="317" y="608"/>
      <point x="331" y="608" type="curve" smooth="yes"/>
      <point x="345" y="608"/>
      <point x="356" y="597"/>
      <point x="356" y="583" type="curve" smooth="yes"/>
      <point x="356" y="83" type="line" smooth="yes"/>
      <point x="356" y="69"/>
      <point x="345" y="58"/>
      <point x="331" y="58" type="curve" smooth="yes"/>
      <point x="317" y="58"/>
      <point x="306" y="69"/>
      <point x="306" y="83" type="curve" smooth="yes"/>
    </contour>
  </outline>
</glyph>
<glyph name="five" format="2">
  <advance width="439"/>
  <unicode hex="0035"/>
  <outline>
    <contour>
      <point x="213" y="62" type="curve" smooth="yes"/>
      <point x="163" y="62"/>
      <point x="109" y="71"/>
      <point x="57" y="85" type="curve" smooth="yes"/>
      <point x="46" y="88"/>
      <point x="38" y="97"/>
      <point x="38" y="109" type="curve" smooth="yes"/>
      <point x="38" y="123"/>
      <point x="48" y="135"/>
      <point x="62" y="135" type="curve" smooth="yes"/>
      <point x="64" y="135"/>
      <point x="67" y="135"/>
      <point x="69" y="134" type="curve" smooth="yes"/>
      <point x="118" y="121"/>
      <point x="169" y="112"/>
      <point x="213" y="112" type="curve" smooth="yes"/>
      <point x="251" y="112"/>
      <point x="284" y="119"/>
      <point x="307" y="133" type="curve" smooth="yes"/>
      <point x="335" y="150"/>
      <point x="353" y="178"/>
      <point x="353" y="233" type="curve" smooth="yes"/>
      <point x="353" y="253"/>
      <point x="348" y="268"/>
      <point x="339" y="280" type="curve" smooth="yes"/>
      <point x="307" y="323"/>
      <point x="220" y="339"/>
      <point x="148" y="339" type="curve" smooth="yes"/>
      <point x="101" y="339"/>
      <point x="78" y="334"/>
      <point x="73" y="334" type="curve" smooth="yes"/>
      <point x="59" y="334"/>
      <point x="48" y="345"/>
      <point x="48" y="359" type="curve" smooth="yes"/>
      <point x="48" y="583" type="line" smooth="yes"/>
      <point x="48" y="597"/>
      <point x="59" y="608"/>
      <point x="73" y="608" type="curve" smooth="yes"/>
      <point x="373" y="608" type="line" smooth="yes"/>
      <point x="387" y="608"/>
      <point x="398" y="597"/>
      <point x="398" y="583" type="curve" smooth="yes"/>
      <point x="398" y="569"/>
      <point x="387" y="558"/>
      <point x="373" y="558" type="curve" smooth="yes"/>
      <point x="98" y="558" type="line"/>
      <point x="98" y="387" type="line"/>
      <point x="111" y="388"/>
      <point x="128" y="389"/>
      <point x="148" y="389" type="curve" smooth="yes"/>
      <point x="188" y="389"/>
      <point x="239" y="385"/>
      <point x="285" y="371" type="curve" smooth="yes"/>
      <point x="344" y="353"/>
      <point x="403" y="312"/>
      <point x="403" y="233" type="curve" smooth="yes"/>
      <point x="403" y="117"/>
      <point x="327" y="62"/>
    </contour>
  </outline>
</glyph>
<glyph name="six" format="2">
  <advance width="446"/>
  <unicode hex="0036"/>
  <outline>
    <contour>
      <point x="238" y="334" type="curve" smooth="yes"/>
      <point x="157" y="334"/>
      <point x="107" y="300"/>
      <point x="107" y="247" type="curve" smooth="yes"/>
      <point x="107" y="238"/>
      <point x="109" y="227"/>
      <point x="112" y="217" type="curve" smooth="yes"/>
      <point x="127" y="169"/>
      <point x="185" y="108"/>
      <point x="238" y="108" type="curve" smooth="yes"/>
      <point x="307" y="108"/>
      <point x="363" y="166"/>
      <point x="363" y="235" type="curve" smooth="yes"/>
      <point x="363" y="297"/>
      <point x="300" y="334"/>
    </contour>
    <contour>
      <point x="89" y="331" type="curve"/>
      <point x="127" y="356"/>
      <point x="175" y="384"/>
      <point x="238" y="384" type="curve" smooth="yes"/>
      <point x="338" y="384"/>
      <point x="413" y="314"/>
      <point x="413" y="235" type="curve" smooth="yes"/>
      <point x="413" y="132"/>
      <point x="350" y="58"/>
      <point x="238" y="58" type="curve" smooth="yes"/>
      <point x="144" y="58"/>
      <point x="89" y="132"/>
      <point x="63" y="203" type="curve" smooth="yes"/>
      <point x="47" y="247"/>
      <point x="39" y="293"/>
      <point x="39" y="333" type="curve" smooth="yes"/>
      <point x="39" y="474"/>
      <point x="87" y="608"/>
      <point x="238" y="608" type="curve" smooth="yes"/>
      <point x="251" y="608" type="line" smooth="yes"/>
      <point x="264" y="608"/>
      <point x="278" y="607"/>
      <point x="293" y="603" type="curve" smooth="yes"/>
      <point x="318" y="596"/>
      <point x="343" y="582"/>
      <point x="383" y="553" type="curve" smooth="yes"/>
      <point x="389" y="548"/>
      <point x="394" y="540"/>
      <point x="394" y="532" type="curve" smooth="yes"/>
      <point x="394" y="518"/>
      <point x="383" y="507"/>
      <point x="369" y="507" type="curve" smooth="yes"/>
      <point x="364" y="507"/>
      <point x="358" y="509"/>
      <point x="354" y="512" type="curve" smooth="yes"/>
      <point x="323" y="534"/>
      <point x="303" y="545"/>
      <point x="289" y="551" type="curve" smooth="yes"/>
      <point x="271" y="558"/>
      <point x="261" y="558"/>
      <point x="238" y="558" type="curve" smooth="yes"/>
      <point x="118" y="558"/>
      <point x="89" y="446"/>
    </contour>
  </outline>
</glyph>
<glyph name="seven" format="2">
  <advance width="441"/>
  <unicode hex="0037"/>
  <outline>
    <contour>
      <point x="57" y="608" type="curve" smooth="yes"/>
      <point x="383" y="608" type="line" smooth="yes"/>
      <point x="397" y="608"/>
      <point x="409" y="596"/>
      <point x="409" y="583" type="curve" smooth="yes"/>
      <point x="409" y="579"/>
      <point x="408" y="574"/>
      <point x="405" y="570" type="curve" smooth="yes"/>
      <point x="311" y="421"/>
      <point x="231" y="319"/>
      <point x="160" y="76" type="curve" smooth="yes"/>
      <point x="157" y="66"/>
      <point x="147" y="58"/>
      <point x="136" y="58" type="curve" smooth="yes"/>
      <point x="122" y="58"/>
      <point x="111" y="69"/>
      <point x="111" y="83" type="curve" smooth="yes"/>
      <point x="111" y="85"/>
      <point x="111" y="87"/>
      <point x="112" y="90" type="curve" smooth="yes"/>
      <point x="178" y="316"/>
      <point x="257" y="431"/>
      <point x="338" y="558" type="curve"/>
      <point x="57" y="558" type="line" smooth="yes"/>
      <point x="43" y="558"/>
      <point x="32" y="569"/>
      <point x="32" y="583" type="curve" smooth="yes"/>
      <point x="32" y="597"/>
      <point x="43" y="608"/>
    </contour>
  </outline>
</glyph>
<glyph name="eight" format="2">
  <advance width="420"/>
  <unicode hex="0038"/>
  <outline>
    <contour>
      <point x="86" y="233" type="curve" smooth="yes"/>
      <point x="86" y="166"/>
      <point x="134" y="117"/>
      <point x="212" y="117" type="curve" smooth="yes"/>
      <point x="284" y="117"/>
      <point x="337" y="165"/>
      <point x="337" y="232" type="curve" smooth="yes"/>
      <point x="337" y="292"/>
      <point x="277" y="335"/>
      <point x="209" y="335" type="curve" smooth="yes"/>
      <point x="151" y="335"/>
      <point x="86" y="295"/>
    </contour>
    <contour>
      <point x="112" y="458" type="curve" smooth="yes"/>
      <point x="112" y="414"/>
      <point x="154" y="385"/>
      <point x="209" y="385" type="curve" smooth="yes"/>
      <point x="278" y="385"/>
      <point x="310" y="426"/>
      <point x="310" y="459" type="curve" smooth="yes"/>
      <point x="310" y="526"/>
      <point x="276" y="558"/>
      <point x="211" y="558" type="curve" smooth="yes"/>
      <point x="150" y="558"/>
      <point x="112" y="520"/>
    </contour>
    <contour>
      <point x="211" y="608" type="curve" smooth="yes"/>
      <point x="307" y="608"/>
      <point x="360" y="554"/>
      <point x="360" y="459" type="curve" smooth="yes"/>
      <point x="360" y="409"/>
      <point x="330" y="378"/>
      <point x="297" y="360" type="curve"/>
      <point x="342" y="338"/>
      <point x="386" y="298"/>
      <point x="386" y="233" type="curve" smooth="yes"/>
      <point x="386" y="154"/>
      <point x="326" y="67"/>
      <point x="211" y="67" type="curve" smooth="yes"/>
      <point x="97" y="67"/>
      <point x="36" y="153"/>
      <point x="36" y="233" type="curve" smooth="yes"/>
      <point x="36" y="299"/>
      <point x="79" y="338"/>
      <point x="125" y="360" type="curve"/>
      <point x="92" y="378"/>
      <point x="62" y="410"/>
      <point x="62" y="459" type="curve" smooth="yes"/>
      <point x="62" y="551"/>
      <point x="121" y="608"/>
    </contour>
  </outline>
</glyph>
<glyph name="nine" format="2">
  <advance width="412"/>
  <unicode hex="0039"/>
  <outline>
    <contour>
      <point x="192" y="361" type="curve" smooth="yes"/>
      <point x="251" y="361"/>
      <point x="320" y="384"/>
      <point x="320" y="408" type="curve" smooth="yes"/>
      <point x="320" y="486"/>
      <point x="289" y="563"/>
      <point x="211" y="563" type="curve" smooth="yes"/>
      <point x="149" y="563"/>
      <point x="86" y="511"/>
      <point x="86" y="458" type="curve" smooth="yes"/>
      <point x="86" y="402"/>
      <point x="136" y="361"/>
    </contour>
    <contour>
      <point x="219" y="68" type="curve" smooth="yes"/>
      <point x="174" y="68"/>
      <point x="135" y="83"/>
      <point x="107" y="100" type="curve" smooth="yes"/>
      <point x="72" y="121"/>
      <point x="52" y="144"/>
      <point x="51" y="145" type="curve" smooth="yes"/>
      <point x="47" y="149"/>
      <point x="44" y="155"/>
      <point x="44" y="161" type="curve" smooth="yes"/>
      <point x="44" y="175"/>
      <point x="55" y="186"/>
      <point x="69" y="186" type="curve" smooth="yes"/>
      <point x="76" y="186"/>
      <point x="83" y="183"/>
      <point x="88" y="178" type="curve"/>
      <point x="88" y="178"/>
      <point x="143" y="118"/>
      <point x="219" y="118" type="curve" smooth="yes"/>
      <point x="318" y="118"/>
      <point x="319" y="255"/>
      <point x="320" y="346" type="curve"/>
      <point x="293" y="326"/>
      <point x="252" y="311"/>
      <point x="192" y="311" type="curve" smooth="yes"/>
      <point x="144" y="311"/>
      <point x="101" y="336"/>
      <point x="73" y="368" type="curve" smooth="yes"/>
      <point x="50" y="394"/>
      <point x="36" y="425"/>
      <point x="36" y="458" type="curve" smooth="yes"/>
      <point x="36" y="536"/>
      <point x="105" y="608"/>
      <point x="211" y="608" type="curve" smooth="yes"/>
      <point x="245" y="608"/>
      <point x="273" y="601"/>
      <point x="296" y="588" type="curve" smooth="yes"/>
      <point x="356" y="553"/>
      <point x="370" y="476"/>
      <point x="370" y="390" type="curve" smooth="yes"/>
      <point x="370" y="371"/>
      <point x="370" y="352"/>
      <point x="370" y="333" type="curve" smooth="yes"/>
      <point x="370" y="214"/>
      <point x="350" y="68"/>
    </contour>
  </outline>
</glyph>
<glyph name="colon" format="2">
  <advance width="180"/>
  <unicode hex="003A"/>
  <outline>
    <contour>
      <point x="141" y="488" type="move" smooth="yes"/>
    </contour>
    <contour>
      <point x="141" y="178" type="curve" smooth="yes"/>
      <point x="141" y="150"/>
      <point x="119" y="128"/>
      <point x="91" y="128" type="curve" smooth="yes"/>
      <point x="63" y="128"/>
      <point x="41" y="150"/>
      <point x="41" y="178" type="curve" smooth="yes"/>
      <point x="41" y="206"/>
      <point x="63" y="228"/>
      <point x="91" y="228" type="curve" smooth="yes"/>
      <point x="119" y="228"/>
      <point x="141" y="206"/>
    </contour>
    <contour>
      <point x="141" y="488" type="curve" smooth="yes"/>
      <point x="141" y="460"/>
      <point x="119" y="438"/>
      <point x="91" y="438" type="curve" smooth="yes"/>
      <point x="63" y="438"/>
      <point x="41" y="460"/>
      <point x="41" y="488" type="curve" smooth="yes"/>
      <point x="41" y="516"/>
      <point x="63" y="538"/>
      <point x="91" y="538" type="curve" smooth="yes"/>
      <point x="119" y="538"/>
      <point x="141" y="516"/>
    </contour>
  </outline>
</glyph>
<glyph name="semicolon" format="2">
  <advance width="186"/>
  <unicode hex="003B"/>
  <outline>
    <contour>
      <point x="153" y="488" type="move" smooth="yes"/>
    </contour>
    <contour>
      <point x="148" y="488" type="curve" smooth="yes"/>
      <point x="148" y="460"/>
      <point x="133" y="438"/>
      <point x="105" y="438" type="curve" smooth="yes"/>
      <point x="77" y="438"/>
      <point x="59" y="460"/>
      <point x="59" y="488" type="curve" smooth="yes"/>
      <point x="59" y="516"/>
      <point x="75" y="538"/>
      <point x="103" y="538" type="curve" smooth="yes"/>
      <point x="131" y="538"/>
      <point x="148" y="516"/>
    </contour>
    <contour>
      <point x="36" y="118" type="curve" smooth="yes"/>
      <point x="36" y="125"/>
      <point x="39" y="132"/>
      <point x="44" y="137" type="curve" smooth="yes"/>
      <point x="65" y="156"/>
      <point x="73" y="165"/>
      <point x="95" y="209" type="curve" smooth="yes"/>
      <point x="99" y="217"/>
      <point x="107" y="223"/>
      <point x="117" y="223" type="curve" smooth="yes"/>
      <point x="131" y="223"/>
      <point x="143" y="211"/>
      <point x="143" y="197" type="curve" smooth="yes"/>
      <point x="143" y="193"/>
      <point x="142" y="190"/>
      <point x="140" y="186" type="curve" smooth="yes"/>
      <point x="117" y="141"/>
      <point x="102" y="122"/>
      <point x="78" y="100" type="curve" smooth="yes"/>
      <point x="74" y="96"/>
      <point x="68" y="93"/>
      <point x="61" y="93" type="curve" smooth="yes"/>
      <point x="47" y="93"/>
      <point x="36" y="104"/>
    </contour>
  </outline>
</glyph>
<glyph name="less" format="2">
  <advance width="419"/>
  <unicode hex="003C"/>
  <outline>
    <contour>
      <point x="383" y="584" type="curve" smooth="yes"/>
      <point x="383" y="576"/>
      <point x="380" y="570"/>
      <point x="374" y="565" type="curve" smooth="yes"/>
      <point x="97" y="334" type="line"/>
      <point x="374" y="103" type="line" smooth="yes"/>
      <point x="380" y="98"/>
      <point x="383" y="92"/>
      <point x="383" y="84" type="curve" smooth="yes"/>
      <point x="383" y="70"/>
      <point x="372" y="59"/>
      <point x="358" y="59" type="curve" smooth="yes"/>
      <point x="352" y="59"/>
      <point x="346" y="61"/>
      <point x="342" y="65" type="curve" smooth="yes"/>
      <point x="42" y="315" type="line" smooth="yes"/>
      <point x="36" y="320"/>
      <point x="33" y="327"/>
      <point x="33" y="334" type="curve" smooth="yes"/>
      <point x="33" y="341"/>
      <point x="36" y="348"/>
      <point x="42" y="353" type="curve" smooth="yes"/>
      <point x="342" y="603" type="line" smooth="yes"/>
      <point x="346" y="607"/>
      <point x="352" y="609"/>
      <point x="358" y="609" type="curve" smooth="yes"/>
      <point x="372" y="609"/>
      <point x="383" y="598"/>
    </contour>
  </outline>
</glyph>
<glyph name="equal" format="2">
  <advance width="539"/>
  <unicode hex="003D"/>
  <outline>
    <contour>
      <point x="70" y="258" type="curve" smooth="yes"/>
      <point x="470" y="258" type="line" smooth="yes"/>
      <point x="484" y="258"/>
      <point x="495" y="247"/>
      <point x="495" y="233" type="curve" smooth="yes"/>
      <point x="495" y="219"/>
      <point x="484" y="208"/>
      <point x="470" y="208" type="curve" smooth="yes"/>
      <point x="70" y="208" type="line" smooth="yes"/>
      <point x="56" y="208"/>
      <point x="45" y="219"/>
      <point x="45" y="233" type="curve" smooth="yes"/>
      <point x="45" y="247"/>
      <point x="56" y="258"/>
    </contour>
    <contour>
      <point x="70" y="458" type="curve" smooth="yes"/>
      <point x="470" y="458" type="line" smooth="yes"/>
      <point x="484" y="458"/>
      <point x="495" y="447"/>
      <point x="495" y="433" type="curve" smooth="yes"/>
      <point x="495" y="419"/>
      <point x="484" y="408"/>
      <point x="470" y="408" type="curve" smooth="yes"/>
      <point x="70" y="408" type="line" smooth="yes"/>
      <point x="56" y="408"/>
      <point x="45" y="419"/>
      <point x="45" y="433" type="curve" smooth="yes"/>
      <point x="45" y="447"/>
      <point x="56" y="458"/>
    </contour>
  </outline>
</glyph>
<glyph name="greater" format="2">
  <advance width="419"/>
  <unicode hex="003E"/>
  <outline>
    <contour>
      <point x="61" y="608" type="curve" smooth="yes"/>
      <point x="67" y="608"/>
      <point x="73" y="606"/>
      <point x="77" y="602" type="curve" smooth="yes"/>
      <point x="377" y="352" type="line" smooth="yes"/>
      <point x="383" y="347"/>
      <point x="386" y="340"/>
      <point x="386" y="333" type="curve" smooth="yes"/>
      <point x="386" y="326"/>
      <point x="383" y="319"/>
      <point x="377" y="314" type="curve" smooth="yes"/>
      <point x="77" y="64" type="line" smooth="yes"/>
      <point x="73" y="60"/>
      <point x="67" y="58"/>
      <point x="61" y="58" type="curve" smooth="yes"/>
      <point x="47" y="58"/>
      <point x="36" y="69"/>
      <point x="36" y="83" type="curve" smooth="yes"/>
      <point x="36" y="91"/>
      <point x="39" y="97"/>
      <point x="45" y="102" type="curve" smooth="yes"/>
      <point x="322" y="333" type="line"/>
      <point x="45" y="564" type="line" smooth="yes"/>
      <point x="39" y="569"/>
      <point x="36" y="575"/>
      <point x="36" y="583" type="curve" smooth="yes"/>
      <point x="36" y="597"/>
      <point x="47" y="608"/>
    </contour>
  </outline>
</glyph>
<glyph name="question" format="2">
  <advance width="473"/>
  <unicode hex="003F"/>
  <outline>
    <contour>
      <point x="287" y="109" type="move" smooth="yes"/>
    </contour>
    <contour>
      <point x="201" y="573" type="curve" smooth="yes"/>
      <point x="263" y="573"/>
      <point x="295" y="569"/>
      <point x="320" y="553" type="curve" smooth="yes"/>
      <point x="356" y="530"/>
      <point x="387" y="490"/>
      <point x="387" y="444" type="curve" smooth="yes"/>
      <point x="387" y="363"/>
      <point x="324" y="342"/>
      <point x="304" y="334" type="curve" smooth="yes"/>
      <point x="266" y="320"/>
      <point x="257" y="311"/>
      <point x="257" y="300" type="curve" smooth="yes"/>
      <point x="257" y="292"/>
      <point x="262" y="282"/>
      <point x="262" y="269" type="curve" smooth="yes"/>
      <point x="262" y="244" type="line" smooth="yes"/>
      <point x="262" y="230"/>
      <point x="251" y="219"/>
      <point x="237" y="219" type="curve" smooth="yes"/>
      <point x="223" y="219"/>
      <point x="212" y="230"/>
      <point x="212" y="244" type="curve" smooth="yes"/>
      <point x="212" y="269" type="line" smooth="yes"/>
      <point x="212" y="339"/>
      <point x="227" y="359"/>
      <point x="286" y="381" type="curve" smooth="yes"/>
      <point x="314" y="391"/>
      <point x="337" y="403"/>
      <point x="337" y="445" type="curve" smooth="yes"/>
      <point x="337" y="469"/>
      <point x="329" y="486"/>
      <point x="306" y="506" type="curve" smooth="yes"/>
      <point x="287" y="522"/>
      <point x="262" y="523"/>
      <point x="207" y="523" type="curve" smooth="yes"/>
      <point x="191" y="523"/>
      <point x="200" y="523"/>
      <point x="194" y="523" type="curve" smooth="yes"/>
      <point x="186" y="523"/>
      <point x="198" y="523"/>
      <point x="187" y="523" type="curve" smooth="yes"/>
      <point x="178" y="523"/>
      <point x="168" y="528"/>
      <point x="168" y="546" type="curve" smooth="yes"/>
      <point x="168" y="562"/>
      <point x="178" y="573"/>
      <point x="187" y="573" type="curve" smooth="yes"/>
      <point x="195" y="573"/>
      <point x="193" y="573"/>
    </contour>
    <contour>
      <point x="287" y="109" type="curve" smooth="yes"/>
      <point x="287" y="81"/>
      <point x="265" y="59"/>
      <point x="237" y="59" type="curve" smooth="yes"/>
      <point x="209" y="59"/>
      <point x="187" y="81"/>
      <point x="187" y="109" type="curve" smooth="yes"/>
      <point x="187" y="137"/>
      <point x="209" y="159"/>
      <point x="237" y="159" type="curve" smooth="yes"/>
      <point x="265" y="159"/>
      <point x="287" y="137"/>
    </contour>
  </outline>
</glyph>
<glyph name="at" format="2">
  <advance width="525"/>
  <unicode hex="0040"/>
  <outline>
    <contour>
      <point x="337" y="333" type="curve" smooth="yes"/>
      <point x="337" y="371"/>
      <point x="307" y="408"/>
      <point x="262" y="408" type="curve" smooth="yes"/>
      <point x="217" y="408"/>
      <point x="187" y="372"/>
      <point x="187" y="333" type="curve" smooth="yes"/>
      <point x="187" y="296"/>
      <point x="222" y="258"/>
      <point x="262" y="258" type="curve" smooth="yes"/>
      <point x="302" y="258"/>
      <point x="337" y="296"/>
    </contour>
    <contour>
      <point x="87" y="333" type="curve" smooth="yes"/>
      <point x="87" y="230"/>
      <point x="173" y="143"/>
      <point x="262" y="143" type="curve" smooth="yes"/>
      <point x="296" y="143"/>
      <point x="321" y="147"/>
      <point x="359" y="169" type="curve" smooth="yes"/>
      <point x="363" y="171"/>
      <point x="367" y="172"/>
      <point x="371" y="172" type="curve" smooth="yes"/>
      <point x="384" y="172"/>
      <point x="396" y="162"/>
      <point x="396" y="148" type="curve" smooth="yes"/>
      <point x="396" y="139"/>
      <point x="391" y="130"/>
      <point x="384" y="126" type="curve" smooth="yes"/>
      <point x="339" y="100"/>
      <point x="302" y="93"/>
      <point x="262" y="93" type="curve" smooth="yes"/>
      <point x="142" y="93"/>
      <point x="37" y="204"/>
      <point x="37" y="333" type="curve" smooth="yes"/>
      <point x="37" y="445"/>
      <point x="130" y="573"/>
      <point x="262" y="573" type="curve" smooth="yes"/>
      <point x="387" y="573"/>
      <point x="487" y="485"/>
      <point x="487" y="369" type="curve" smooth="yes"/>
      <point x="487" y="300"/>
      <point x="481" y="208"/>
      <point x="409" y="208" type="curve" smooth="yes"/>
      <point x="379" y="208"/>
      <point x="365" y="233"/>
      <point x="356" y="253" type="curve"/>
      <point x="336" y="228"/>
      <point x="300" y="208"/>
      <point x="262" y="208" type="curve" smooth="yes"/>
      <point x="193" y="208"/>
      <point x="137" y="268"/>
      <point x="137" y="333" type="curve" smooth="yes"/>
      <point x="137" y="397"/>
      <point x="187" y="458"/>
      <point x="262" y="458" type="curve" smooth="yes"/>
      <point x="335" y="458"/>
      <point x="385" y="399"/>
      <point x="387" y="337" type="curve"/>
      <point x="387" y="336" type="line"/>
      <point x="387" y="336"/>
      <point x="390" y="314"/>
      <point x="396" y="291" type="curve" smooth="yes"/>
      <point x="400" y="278"/>
      <point x="404" y="265"/>
      <point x="411" y="258" type="curve"/>
      <point x="436" y="262"/>
      <point x="437" y="344"/>
      <point x="437" y="369" type="curve" smooth="yes"/>
      <point x="437" y="453"/>
      <point x="365" y="523"/>
      <point x="262" y="523" type="curve" smooth="yes"/>
      <point x="166" y="523"/>
      <point x="87" y="422"/>
    </contour>
  </outline>
</glyph>
<glyph name="A" format="2">
  <advance width="519"/>
  <unicode hex="0041"/>
  <outline>
    <contour>
      <point x="35" y="92" type="curve" smooth="yes"/>
      <point x="235" y="592" type="line" smooth="yes"/>
      <point x="239" y="601"/>
      <point x="247" y="608"/>
      <point x="258" y="608" type="curve" smooth="yes"/>
      <point x="269" y="608"/>
      <point x="277" y="601"/>
      <point x="281" y="592" type="curve" smooth="yes"/>
      <point x="481" y="92" type="line" smooth="yes"/>
      <point x="482" y="89"/>
      <point x="483" y="85"/>
      <point x="483" y="82" type="curve" smooth="yes"/>
      <point x="483" y="69"/>
      <point x="472" y="58"/>
      <point x="458" y="58" type="curve" smooth="yes"/>
      <point x="447" y="58"/>
      <point x="439" y="65"/>
      <point x="435" y="74" type="curve" smooth="yes"/>
      <point x="381" y="208" type="line"/>
      <point x="135" y="208" type="line"/>
      <point x="81" y="74" type="line" smooth="yes"/>
      <point x="77" y="65"/>
      <point x="69" y="58"/>
      <point x="58" y="58" type="curve" smooth="yes"/>
      <point x="44" y="58"/>
      <point x="33" y="69"/>
      <point x="33" y="82" type="curve" smooth="yes"/>
      <point x="33" y="85"/>
      <point x="34" y="89"/>
    </contour>
    <contour>
      <point x="361" y="258" type="line"/>
      <point x="258" y="516" type="line"/>
      <point x="155" y="258" type="line"/>
    </contour>
  </outline>
</glyph>
<glyph name="B" format="2">
  <advance width="436"/>
  <unicode hex="0042"/>
  <outline>
    <contour>
      <point x="333" y="458" type="curve" smooth="yes"/>
      <point x="333" y="482"/>
      <point x="328" y="498"/>
      <point x="319" y="510" type="curve" smooth="yes"/>
      <point x="286" y="556"/>
      <point x="185" y="558"/>
      <point x="97" y="558" type="curve"/>
      <point x="97" y="358" type="line"/>
      <point x="200" y="360"/>
      <point x="259" y="375"/>
      <point x="291" y="391" type="curve" smooth="yes"/>
      <point x="315" y="403"/>
      <point x="325" y="416"/>
      <point x="329" y="425" type="curve" smooth="yes"/>
      <point x="333" y="434"/>
      <point x="333" y="445"/>
    </contour>
    <contour>
      <point x="97" y="108" type="line"/>
      <point x="107" y="108"/>
      <point x="119" y="107"/>
      <point x="132" y="107" type="curve" smooth="yes"/>
      <point x="165" y="107"/>
      <point x="205" y="108"/>
      <point x="242" y="115" type="curve" smooth="yes"/>
      <point x="271" y="120"/>
      <point x="298" y="130"/>
      <point x="316" y="142" type="curve" smooth="yes"/>
      <point x="336" y="155"/>
      <point x="347" y="171"/>
      <point x="347" y="196" type="curve" smooth="yes"/>
      <point x="347" y="203"/>
      <point x="348" y="208"/>
      <point x="348" y="213" type="curve" smooth="yes"/>
      <point x="348" y="218"/>
      <point x="347" y="224"/>
      <point x="343" y="234" type="curve" smooth="yes"/>
      <point x="339" y="245"/>
      <point x="329" y="259"/>
      <point x="304" y="272" type="curve" smooth="yes"/>
      <point x="270" y="290"/>
      <point x="208" y="306"/>
      <point x="97" y="308" type="curve"/>
    </contour>
    <contour>
      <point x="383" y="458" type="curve" smooth="yes"/>
      <point x="383" y="446" type="line" smooth="yes"/>
      <point x="383" y="398"/>
      <point x="357" y="367"/>
      <point x="314" y="346" type="curve"/>
      <point x="286" y="337"/>
      <point x="266" y="335"/>
      <point x="257" y="335" type="curve"/>
      <point x="267" y="334"/>
      <point x="291" y="329"/>
      <point x="328" y="316" type="curve"/>
      <point x="376" y="290"/>
      <point x="397" y="257"/>
      <point x="397" y="200" type="curve" smooth="yes"/>
      <point x="397" y="75"/>
      <point x="253" y="57"/>
      <point x="132" y="57" type="curve" smooth="yes"/>
      <point x="109" y="57"/>
      <point x="91" y="58"/>
      <point x="72" y="58" type="curve" smooth="yes"/>
      <point x="58" y="58"/>
      <point x="47" y="69"/>
      <point x="47" y="83" type="curve" smooth="yes"/>
      <point x="47" y="583" type="line" smooth="yes"/>
      <point x="47" y="597"/>
      <point x="58" y="608"/>
      <point x="72" y="608" type="curve" smooth="yes"/>
      <point x="76" y="608" type="line" smooth="yes"/>
      <point x="224" y="608"/>
      <point x="383" y="607"/>
    </contour>
  </outline>
</glyph>
<glyph name="C" format="2">
  <advance width="497"/>
  <unicode hex="0043"/>
  <outline>
    <contour>
      <point x="85" y="333" type="curve" smooth="yes"/>
      <point x="85" y="197"/>
      <point x="148" y="108"/>
      <point x="263" y="108" type="curve" smooth="yes"/>
      <point x="326" y="108"/>
      <point x="396" y="139"/>
      <point x="409" y="188" type="curve" smooth="yes"/>
      <point x="412" y="199"/>
      <point x="421" y="206"/>
      <point x="433" y="206" type="curve" smooth="yes"/>
      <point x="447" y="206"/>
      <point x="459" y="196"/>
      <point x="459" y="182" type="curve" smooth="yes"/>
      <point x="459" y="180"/>
      <point x="459" y="177"/>
      <point x="458" y="175" type="curve" smooth="yes"/>
      <point x="437" y="101"/>
      <point x="350" y="58"/>
      <point x="263" y="58" type="curve" smooth="yes"/>
      <point x="202" y="58"/>
      <point x="138" y="80"/>
      <point x="93" y="137" type="curve" smooth="yes"/>
      <point x="57" y="182"/>
      <point x="35" y="246"/>
      <point x="35" y="333" type="curve" smooth="yes"/>
      <point x="35" y="421"/>
      <point x="57" y="486"/>
      <point x="93" y="533" type="curve" smooth="yes"/>
      <point x="138" y="591"/>
      <point x="203" y="617"/>
      <point x="265" y="617" type="curve" smooth="yes"/>
      <point x="352" y="617"/>
      <point x="437" y="568"/>
      <point x="458" y="491" type="curve" smooth="yes"/>
      <point x="459" y="489"/>
      <point x="459" y="486"/>
      <point x="459" y="484" type="curve" smooth="yes"/>
      <point x="459" y="470"/>
      <point x="447" y="460"/>
      <point x="433" y="460" type="curve" smooth="yes"/>
      <point x="421" y="460"/>
      <point x="412" y="467"/>
      <point x="409" y="478" type="curve" smooth="yes"/>
      <point x="396" y="533"/>
      <point x="329" y="567"/>
      <point x="265" y="567" type="curve" smooth="yes"/>
      <point x="149" y="567"/>
      <point x="85" y="470"/>
    </contour>
  </outline>
</glyph>
<glyph name="G" format="2">
  <advance width="525"/>
  <unicode hex="0047"/>
  <outline>
    <contour>
      <point x="433" y="308" type="curve"/>
      <point x="260" y="308" type="line" smooth="yes"/>
      <point x="246" y="308"/>
      <point x="235" y="319"/>
      <point x="235" y="333" type="curve" smooth="yes"/>
      <point x="235" y="347"/>
      <point x="246" y="358"/>
      <point x="260" y="358" type="curve" smooth="yes"/>
      <point x="460" y="358" type="line" smooth="yes"/>
      <point x="474" y="358"/>
      <point x="485" y="347"/>
      <point x="485" y="333" type="curve" smooth="yes"/>
      <point x="485" y="332"/>
      <point x="485" y="296"/>
      <point x="474" y="250" type="curve" smooth="yes"/>
      <point x="450" y="152"/>
      <point x="388" y="58"/>
      <point x="260" y="58" type="curve" smooth="yes"/>
      <point x="161" y="58"/>
      <point x="101" y="116"/>
      <point x="69" y="181" type="curve" smooth="yes"/>
      <point x="44" y="231"/>
      <point x="35" y="286"/>
      <point x="35" y="333" type="curve" smooth="yes"/>
      <point x="35" y="380"/>
      <point x="45" y="436"/>
      <point x="70" y="486" type="curve" smooth="yes"/>
      <point x="102" y="550"/>
      <point x="162" y="608"/>
      <point x="260" y="608" type="curve" smooth="yes"/>
      <point x="350" y="608"/>
      <point x="403" y="571"/>
      <point x="430" y="536" type="curve" smooth="yes"/>
      <point x="452" y="508"/>
      <point x="457" y="483"/>
      <point x="458" y="481" type="curve" smooth="yes"/>
      <point x="458" y="479"/>
      <point x="459" y="477"/>
      <point x="459" y="475" type="curve" smooth="yes"/>
      <point x="459" y="461"/>
      <point x="447" y="451"/>
      <point x="434" y="451" type="curve" smooth="yes"/>
      <point x="422" y="451"/>
      <point x="411" y="460"/>
      <point x="409" y="471" type="curve" smooth="yes"/>
      <point x="406" y="486"/>
      <point x="392" y="507"/>
      <point x="377" y="520" type="curve" smooth="yes"/>
      <point x="356" y="539"/>
      <point x="321" y="558"/>
      <point x="260" y="558" type="curve" smooth="yes"/>
      <point x="230" y="558"/>
      <point x="206" y="552"/>
      <point x="186" y="541" type="curve" smooth="yes"/>
      <point x="123" y="507"/>
      <point x="85" y="420"/>
      <point x="85" y="333" type="curve" smooth="yes"/>
      <point x="85" y="293"/>
      <point x="94" y="243"/>
      <point x="114" y="202" type="curve" smooth="yes"/>
      <point x="139" y="150"/>
      <point x="182" y="108"/>
      <point x="260" y="108" type="curve" smooth="yes"/>
      <point x="380" y="108"/>
      <point x="421" y="206"/>
    </contour>
  </outline>
</glyph>
<glyph name="I" format="2">
  <advance width="431"/>
  <unicode hex="0049"/>
  <outline>
    <contour>
      <point x="189" y="558" type="line"/>
      <point x="64" y="558" type="line" smooth="yes"/>
      <point x="50" y="558"/>
      <point x="39" y="569"/>
      <point x="39" y="583" type="curve" smooth="yes"/>
      <point x="39" y="597"/>
      <point x="50" y="608"/>
      <point x="64" y="608" type="curve" smooth="yes"/>
      <point x="364" y="608" type="line" smooth="yes"/>
      <point x="378" y="608"/>
      <point x="389" y="597"/>
      <point x="389" y="583" type="curve" smooth="yes"/>
      <point x="389" y="569"/>
      <point x="378" y="558"/>
      <point x="364" y="558" type="curve" smooth="yes"/>
      <point x="239" y="558" type="line"/>
      <point x="239" y="108" type="line"/>
      <point x="364" y="108" type="line" smooth="yes"/>
      <point x="378" y="108"/>
      <point x="389" y="97"/>
      <point x="389" y="83" type="curve" smooth="yes"/>
      <point x="389" y="69"/>
      <point x="378" y="58"/>
      <point x="364" y="58" type="curve" smooth="yes"/>
      <point x="64" y="58" type="line" smooth="yes"/>
      <point x="50" y="58"/>
      <point x="39" y="69"/>
      <point x="39" y="83" type="curve" smooth="yes"/>
      <point x="39" y="97"/>
      <point x="50" y="108"/>
      <point x="64" y="108" type="curve" smooth="yes"/>
      <point x="189" y="108" type="line"/>
    </contour>
  </outline>
</glyph>
<glyph name="J" format="2">
  <advance width="431"/>
  <unicode hex="004A"/>
  <outline>
    <contour>
      <point x="206" y="58" type="curve" smooth="yes"/>
      <point x="88" y="58"/>
      <point x="49" y="163"/>
      <point x="32" y="227" type="curve" smooth="yes"/>
      <point x="31" y="230"/>
      <point x="31" y="232"/>
      <point x="31" y="234" type="curve" smooth="yes"/>
      <point x="31" y="248"/>
      <point x="42" y="258"/>
      <point x="56" y="258" type="curve" smooth="yes"/>
      <point x="68" y="258"/>
      <point x="77" y="250"/>
      <point x="80" y="239" type="curve" smooth="yes"/>
      <point x="97" y="175"/>
      <point x="127" y="108"/>
      <point x="206" y="108" type="curve" smooth="yes"/>
      <point x="285" y="108"/>
      <point x="331" y="157"/>
      <point x="331" y="233" type="curve" smooth="yes"/>
      <point x="331" y="299"/>
      <point x="332" y="377"/>
      <point x="332" y="451" type="curve" smooth="yes"/>
      <point x="332" y="488"/>
      <point x="331" y="524"/>
      <point x="331" y="558" type="curve"/>
      <point x="113" y="558" type="line" smooth="yes"/>
      <point x="99" y="558"/>
      <point x="88" y="569"/>
      <point x="88" y="583" type="curve" smooth="yes"/>
      <point x="88" y="597"/>
      <point x="99" y="608"/>
      <point x="113" y="608" type="curve" smooth="yes"/>
      <point x="356" y="608" type="line" smooth="yes"/>
      <point x="370" y="608"/>
      <point x="381" y="597"/>
      <point x="381" y="583" type="curve" smooth="yes"/>
      <point x="381" y="548"/>
      <point x="382" y="509"/>
      <point x="382" y="469" type="curve" smooth="yes"/>
      <point x="382" y="389"/>
      <point x="381" y="303"/>
      <point x="381" y="233" type="curve" smooth="yes"/>
      <point x="381" y="130"/>
      <point x="310" y="58"/>
    </contour>
  </outline>
</glyph>
<glyph name="K" format="2">
  <advance width="439"/>
  <unicode hex="004B"/>
  <outline>
    <contour>
      <point x="372" y="58" type="curve" smooth="yes"/>
      <point x="364" y="58"/>
      <point x="358" y="62"/>
      <point x="353" y="67" type="curve" smooth="yes"/>
      <point x="158" y="295" type="line"/>
      <point x="97" y="224" type="line"/>
      <point x="97" y="83" type="line" smooth="yes"/>
      <point x="97" y="69"/>
      <point x="86" y="58"/>
      <point x="72" y="58" type="curve" smooth="yes"/>
      <point x="58" y="58"/>
      <point x="47" y="69"/>
      <point x="47" y="83" type="curve" smooth="yes"/>
      <point x="47" y="583" type="line" smooth="yes"/>
      <point x="47" y="597"/>
      <point x="58" y="608"/>
      <point x="72" y="608" type="curve" smooth="yes"/>
      <point x="86" y="608"/>
      <point x="97" y="597"/>
      <point x="97" y="583" type="curve" smooth="yes"/>
      <point x="97" y="301" type="line"/>
      <point x="111" y="317"/>
      <point x="125" y="333"/>
      <point x="139" y="349" type="curve" smooth="yes"/>
      <point x="210" y="432"/>
      <point x="282" y="516"/>
      <point x="353" y="599" type="curve" smooth="yes"/>
      <point x="358" y="604"/>
      <point x="364" y="608"/>
      <point x="372" y="608" type="curve" smooth="yes"/>
      <point x="386" y="608"/>
      <point x="397" y="597"/>
      <point x="397" y="583" type="curve" smooth="yes"/>
      <point x="397" y="577"/>
      <point x="395" y="571"/>
      <point x="391" y="567" type="curve" smooth="yes"/>
      <point x="324" y="489"/>
      <point x="258" y="411"/>
      <point x="191" y="333" type="curve"/>
      <point x="391" y="99" type="line" smooth="yes"/>
      <point x="395" y="95"/>
      <point x="397" y="89"/>
      <point x="397" y="83" type="curve" smooth="yes"/>
      <point x="397" y="69"/>
      <point x="386" y="58"/>
    </contour>
  </outline>
</glyph>
<glyph name="M" format="2">
  <advance width="549"/>
  <unicode hex="004D"/>
  <outline>
    <contour>
      <point x="47" y="83" type="curve" smooth="yes"/>
      <point x="47" y="583" type="line" smooth="yes"/>
      <point x="47" y="597"/>
      <point x="58" y="608"/>
      <point x="72" y="608" type="curve" smooth="yes"/>
      <point x="80" y="608"/>
      <point x="87" y="605"/>
      <point x="92" y="599" type="curve" smooth="yes"/>
      <point x="272" y="373" type="line"/>
      <point x="452" y="599" type="line" smooth="yes"/>
      <point x="457" y="605"/>
      <point x="464" y="608"/>
      <point x="472" y="608" type="curve" smooth="yes"/>
      <point x="486" y="608"/>
      <point x="497" y="597"/>
      <point x="497" y="583" type="curve" smooth="yes"/>
      <point x="497" y="83" type="line" smooth="yes"/>
      <point x="497" y="69"/>
      <point x="486" y="58"/>
      <point x="472" y="58" type="curve" smooth="yes"/>
      <point x="458" y="58"/>
      <point x="447" y="69"/>
      <point x="447" y="83" type="curve" smooth="yes"/>
      <point x="447" y="512" type="line"/>
      <point x="292" y="317" type="line" smooth="yes"/>
      <point x="287" y="311"/>
      <point x="280" y="308"/>
      <point x="272" y="308" type="curve" smooth="yes"/>
      <point x="264" y="308"/>
      <point x="257" y="311"/>
      <point x="252" y="317" type="curve" smooth="yes"/>
      <point x="97" y="512" type="line"/>
      <point x="97" y="83" type="line" smooth="yes"/>
      <point x="97" y="69"/>
      <point x="86" y="58"/>
      <point x="72" y="58" type="curve" smooth="yes"/>
      <point x="58" y="58"/>
      <point x="47" y="69"/>
    </contour>
  </outline>
</glyph>
<glyph name="N" format="2">
  <advance width="499"/>
  <unicode hex="004E"/>
  <outline>
    <contour>
      <point x="47" y="83" type="curve" smooth="yes"/>
      <point x="47" y="583" type="line" smooth="yes"/>
      <point x="47" y="597"/>
      <point x="58" y="608"/>
      <point x="72" y="608" type="curve" smooth="yes"/>
      <point x="80" y="608"/>
      <point x="87" y="603"/>
      <point x="92" y="597" type="curve" smooth="yes"/>
      <point x="397" y="162" type="line"/>
      <point x="397" y="583" type="line" smooth="yes"/>
      <point x="397" y="597"/>
      <point x="408" y="608"/>
      <point x="422" y="608" type="curve" smooth="yes"/>
      <point x="436" y="608"/>
      <point x="447" y="597"/>
      <point x="447" y="583" type="curve" smooth="yes"/>
      <point x="447" y="83" type="line" smooth="yes"/>
      <point x="447" y="69"/>
      <point x="436" y="58"/>
      <point x="422" y="58" type="curve" smooth="yes"/>
      <point x="414" y="58"/>
      <point x="407" y="63"/>
      <point x="402" y="69" type="curve" smooth="yes"/>
      <point x="97" y="504" type="line"/>
      <point x="97" y="83" type="line" smooth="yes"/>
      <point x="97" y="69"/>
      <point x="86" y="58"/>
      <point x="72" y="58" type="curve" smooth="yes"/>
      <point x="58" y="58"/>
      <point x="47" y="69"/>
    </contour>
  </outline>
</glyph>
<glyph name="O" format="2">
  <advance width="527"/>
  <unicode hex="004F"/>
  <outline>
    <contour>
      <point x="260" y="558" type="curve" smooth="yes"/>
      <point x="230" y="558"/>
      <point x="206" y="552"/>
      <point x="186" y="541" type="curve" smooth="yes"/>
      <point x="123" y="507"/>
      <point x="85" y="420"/>
      <point x="85" y="333" type="curve" smooth="yes"/>
      <point x="85" y="293"/>
      <point x="93" y="244"/>
      <point x="114" y="203" type="curve" smooth="yes"/>
      <point x="139" y="151"/>
      <point x="183" y="108"/>
      <point x="260" y="108" type="curve" smooth="yes"/>
      <point x="290" y="108"/>
      <point x="314" y="114"/>
      <point x="334" y="125" type="curve" smooth="yes"/>
      <point x="397" y="159"/>
      <point x="435" y="246"/>
      <point x="435" y="333" type="curve" smooth="yes"/>
      <point x="435" y="373"/>
      <point x="427" y="422"/>
      <point x="406" y="463" type="curve" smooth="yes"/>
      <point x="381" y="515"/>
      <point x="337" y="558"/>
    </contour>
    <contour>
      <point x="260" y="608" type="curve" smooth="yes"/>
      <point x="358" y="608"/>
      <point x="418" y="550"/>
      <point x="450" y="486" type="curve" smooth="yes"/>
      <point x="475" y="436"/>
      <point x="485" y="380"/>
      <point x="485" y="333" type="curve" smooth="yes"/>
      <point x="485" y="286"/>
      <point x="475" y="230"/>
      <point x="450" y="180" type="curve" smooth="yes"/>
      <point x="418" y="116"/>
      <point x="358" y="58"/>
      <point x="260" y="58" type="curve" smooth="yes"/>
      <point x="162" y="58"/>
      <point x="102" y="116"/>
      <point x="70" y="180" type="curve" smooth="yes"/>
      <point x="45" y="230"/>
      <point x="35" y="286"/>
      <point x="35" y="333" type="curve" smooth="yes"/>
      <point x="35" y="380"/>
      <point x="45" y="436"/>
      <point x="70" y="486" type="curve" smooth="yes"/>
      <point x="102" y="550"/>
      <point x="162" y="608"/>
    </contour>
  </outline>
</glyph>
<glyph name="P" format="2">
  <advance width="436"/>
  <unicode hex="0050"/>
  <outline>
    <contour>
      <point x="397" y="458" type="curve" smooth="yes"/>
      <point x="397" y="336"/>
      <point x="283" y="300"/>
      <point x="167" y="300" type="curve" smooth="yes"/>
      <point x="139" y="300"/>
      <point x="115" y="302"/>
      <point x="97" y="304" type="curve"/>
      <point x="97" y="83" type="line" smooth="yes"/>
      <point x="97" y="69"/>
      <point x="86" y="58"/>
      <point x="72" y="58" type="curve" smooth="yes"/>
      <point x="58" y="58"/>
      <point x="47" y="69"/>
      <point x="47" y="83" type="curve" smooth="yes"/>
      <point x="47" y="583" type="line" smooth="yes"/>
      <point x="47" y="595"/>
      <point x="56" y="606"/>
      <point x="68" y="608" type="curve" smooth="yes"/>
      <point x="69" y="608"/>
      <point x="112" y="616"/>
      <point x="167" y="616" type="curve" smooth="yes"/>
      <point x="283" y="616"/>
      <point x="397" y="580"/>
    </contour>
    <contour>
      <point x="347" y="458" type="curve" smooth="yes"/>
      <point x="347" y="547"/>
      <point x="257" y="565"/>
      <point x="167" y="565" type="curve" smooth="yes"/>
      <point x="143" y="565"/>
      <point x="119" y="564"/>
      <point x="97" y="561" type="curve"/>
      <point x="97" y="355" type="line"/>
      <point x="119" y="352"/>
      <point x="143" y="351"/>
      <point x="167" y="351" type="curve" smooth="yes"/>
      <point x="257" y="351"/>
      <point x="347" y="369"/>
    </contour>
  </outline>
</glyph>
<glyph name="S" format="2">
  <advance width="439"/>
  <unicode hex="0053"/>
  <outline>
    <contour>
      <point x="56" y="459" type="curve" smooth="yes"/>
      <point x="56" y="550"/>
      <point x="121" y="608"/>
      <point x="221" y="608" type="curve" smooth="yes"/>
      <point x="294" y="608"/>
      <point x="339" y="583"/>
      <point x="363" y="552" type="curve" smooth="yes"/>
      <point x="382" y="527"/>
      <point x="386" y="502"/>
      <point x="386" y="486" type="curve" smooth="yes"/>
      <point x="386" y="472"/>
      <point x="375" y="461"/>
      <point x="361" y="461" type="curve" smooth="yes"/>
      <point x="347" y="461"/>
      <point x="336" y="472"/>
      <point x="336" y="486" type="curve" smooth="yes"/>
      <point x="336" y="493"/>
      <point x="334" y="508"/>
      <point x="323" y="522" type="curve" smooth="yes"/>
      <point x="310" y="539"/>
      <point x="283" y="558"/>
      <point x="221" y="558" type="curve" smooth="yes"/>
      <point x="168" y="558"/>
      <point x="141" y="541"/>
      <point x="125" y="520" type="curve" smooth="yes"/>
      <point x="112" y="503"/>
      <point x="106" y="481"/>
      <point x="106" y="459" type="curve" smooth="yes"/>
      <point x="106" y="397"/>
      <point x="168" y="387"/>
      <point x="229" y="367" type="curve" smooth="yes"/>
      <point x="252" y="359"/>
      <point x="279" y="351"/>
      <point x="308" y="337" type="curve" smooth="yes"/>
      <point x="353" y="313"/>
      <point x="401" y="275"/>
      <point x="401" y="207" type="curve" smooth="yes"/>
      <point x="401" y="135"/>
      <point x="338" y="58"/>
      <point x="221" y="58" type="curve" smooth="yes"/>
      <point x="143" y="58"/>
      <point x="87" y="92"/>
      <point x="57" y="126" type="curve" smooth="yes"/>
      <point x="44" y="142"/>
      <point x="31" y="155"/>
      <point x="31" y="180" type="curve" smooth="yes"/>
      <point x="31" y="194"/>
      <point x="42" y="205"/>
      <point x="56" y="205" type="curve" smooth="yes"/>
      <point x="70" y="205"/>
      <point x="81" y="194"/>
      <point x="81" y="180" type="curve"/>
      <point x="87" y="167"/>
      <point x="92" y="159"/>
      <point x="106" y="147" type="curve" smooth="yes"/>
      <point x="130" y="127"/>
      <point x="169" y="108"/>
      <point x="221" y="108" type="curve" smooth="yes"/>
      <point x="315" y="108"/>
      <point x="351" y="165"/>
      <point x="351" y="207" type="curve" smooth="yes"/>
      <point x="351" y="279"/>
      <point x="271" y="300"/>
      <point x="217" y="318" type="curve" smooth="yes"/>
      <point x="210" y="320"/>
      <point x="203" y="323"/>
      <point x="195" y="325" type="curve" smooth="yes"/>
      <point x="144" y="340"/>
      <point x="56" y="364"/>
    </contour>
  </outline>
</glyph>
<glyph name="T" format="2">
  <advance width="524"/>
  <unicode hex="0054"/>
  <outline>
    <contour>
      <point x="236" y="558" type="line"/>
      <point x="61" y="558" type="line" smooth="yes"/>
      <point x="47" y="558"/>
      <point x="36" y="569"/>
      <point x="36" y="583" type="curve" smooth="yes"/>
      <point x="36" y="597"/>
      <point x="47" y="608"/>
      <point x="61" y="608" type="curve" smooth="yes"/>
      <point x="461" y="608" type="line" smooth="yes"/>
      <point x="475" y="608"/>
      <point x="486" y="597"/>
      <point x="486" y="583" type="curve" smooth="yes"/>
      <point x="486" y="569"/>
      <point x="475" y="558"/>
      <point x="461" y="558" type="curve" smooth="yes"/>
      <point x="286" y="558" type="line"/>
      <point x="286" y="83" type="line" smooth="yes"/>
      <point x="286" y="69"/>
      <point x="275" y="58"/>
      <point x="261" y="58" type="curve" smooth="yes"/>
      <point x="247" y="58"/>
      <point x="236" y="69"/>
      <point x="236" y="83" type="curve" smooth="yes"/>
    </contour>
  </outline>
</glyph>
<glyph name="U" format="2">
  <advance width="496"/>
  <unicode hex="0055"/>
  <outline>
    <contour>
      <point x="41" y="403" type="curve" smooth="yes"/>
      <point x="41" y="460"/>
      <point x="46" y="528"/>
      <point x="46" y="583" type="curve" smooth="yes"/>
      <point x="46" y="597"/>
      <point x="57" y="608"/>
      <point x="71" y="608" type="curve" smooth="yes"/>
      <point x="85" y="608"/>
      <point x="96" y="597"/>
      <point x="96" y="583" type="curve" smooth="yes"/>
      <point x="96" y="524"/>
      <point x="91" y="461"/>
      <point x="91" y="398" type="curve" smooth="yes"/>
      <point x="91" y="286"/>
      <point x="106" y="169"/>
      <point x="174" y="127" type="curve" smooth="yes"/>
      <point x="192" y="115"/>
      <point x="215" y="108"/>
      <point x="246" y="108" type="curve" smooth="yes"/>
      <point x="277" y="108"/>
      <point x="301" y="115"/>
      <point x="319" y="127" type="curve" smooth="yes"/>
      <point x="388" y="170"/>
      <point x="402" y="281"/>
      <point x="402" y="395" type="curve" smooth="yes"/>
      <point x="402" y="457"/>
      <point x="396" y="525"/>
      <point x="396" y="583" type="curve" smooth="yes"/>
      <point x="396" y="597"/>
      <point x="407" y="608"/>
      <point x="421" y="608" type="curve" smooth="yes"/>
      <point x="435" y="608"/>
      <point x="446" y="597"/>
      <point x="446" y="583" type="curve" smooth="yes"/>
      <point x="446" y="527"/>
      <point x="452" y="456"/>
      <point x="452" y="397" type="curve" smooth="yes"/>
      <point x="452" y="327"/>
      <point x="447" y="260"/>
      <point x="428" y="201" type="curve" smooth="yes"/>
      <point x="404" y="123"/>
      <point x="350" y="58"/>
      <point x="246" y="58" type="curve" smooth="yes"/>
      <point x="207" y="58"/>
      <point x="175" y="67"/>
      <point x="148" y="84" type="curve" smooth="yes"/>
      <point x="60" y="139"/>
      <point x="41" y="268"/>
    </contour>
  </outline>
</glyph>
<glyph name="W" format="2">
  <advance width="527"/>
  <unicode hex="0057"/>
  <outline>
    <contour>
      <point x="412" y="58" type="curve" smooth="yes"/>
      <point x="402" y="58"/>
      <point x="393" y="64"/>
      <point x="389" y="73" type="curve" smooth="yes"/>
      <point x="262" y="370" type="line"/>
      <point x="135" y="73" type="line" smooth="yes"/>
      <point x="131" y="64"/>
      <point x="122" y="58"/>
      <point x="112" y="58" type="curve" smooth="yes"/>
      <point x="99" y="58"/>
      <point x="88" y="67"/>
      <point x="87" y="80" type="curve" smooth="yes"/>
      <point x="37" y="580" type="line" smooth="yes"/>
      <point x="36.8622" y="581.033"/>
      <point x="36.7956" y="582.057"/>
      <point x="36.7956" y="583.068" type="curve" smooth="yes"/>
      <point x="36.7956" y="596.729"/>
      <point x="48.9643" y="608"/>
      <point x="62" y="608" type="curve" smooth="yes"/>
      <point x="75" y="608"/>
      <point x="86" y="599"/>
      <point x="87" y="586" type="curve" smooth="yes"/>
      <point x="127" y="182" type="line"/>
      <point x="239" y="443" type="line" smooth="yes"/>
      <point x="243" y="452"/>
      <point x="252" y="458"/>
      <point x="262" y="458" type="curve" smooth="yes"/>
      <point x="272" y="458"/>
      <point x="281" y="452"/>
      <point x="285" y="443" type="curve" smooth="yes"/>
      <point x="397" y="182" type="line"/>
      <point x="437" y="586" type="line" smooth="yes"/>
      <point x="438" y="599"/>
      <point x="449" y="608"/>
      <point x="462" y="608" type="curve" smooth="yes"/>
      <point x="475.036" y="608"/>
      <point x="487.204" y="596.729"/>
      <point x="487.204" y="583.068" type="curve" smooth="yes"/>
      <point x="487.204" y="582.057"/>
      <point x="487.138" y="581.033"/>
      <point x="487" y="580" type="curve" smooth="yes"/>
      <point x="437" y="80" type="line" smooth="yes"/>
      <point x="436" y="67"/>
      <point x="425" y="58"/>
    </contour>
  </outline>
</glyph>
<glyph name="X" format="2">
  <advance width="428"/>
  <unicode hex="0058"/>
  <outline>
    <contour>
      <point x="41" y="96" type="curve" smooth="yes"/>
      <point x="183" y="333" type="line"/>
      <point x="41" y="570" type="line" smooth="yes"/>
      <point x="39" y="574"/>
      <point x="38" y="579"/>
      <point x="38" y="583" type="curve" smooth="yes"/>
      <point x="38" y="596"/>
      <point x="48" y="608"/>
      <point x="62" y="608" type="curve" smooth="yes"/>
      <point x="71" y="608"/>
      <point x="79" y="603"/>
      <point x="83" y="596" type="curve" smooth="yes"/>
      <point x="212" y="382" type="line"/>
      <point x="341" y="596" type="line" smooth="yes"/>
      <point x="345" y="603"/>
      <point x="353" y="608"/>
      <point x="362" y="608" type="curve" smooth="yes"/>
      <point x="376" y="608"/>
      <point x="387" y="596"/>
      <point x="387" y="583" type="curve" smooth="yes"/>
      <point x="387" y="579"/>
      <point x="385" y="574"/>
      <point x="383" y="570" type="curve" smooth="yes"/>
      <point x="241" y="333" type="line"/>
      <point x="383" y="96" type="line" smooth="yes"/>
      <point x="385" y="92"/>
      <point x="387" y="87"/>
      <point x="387" y="83" type="curve" smooth="yes"/>
      <point x="387" y="70"/>
      <point x="376" y="58"/>
      <point x="362" y="58" type="curve" smooth="yes"/>
      <point x="353" y="58"/>
      <point x="345" y="63"/>
      <point x="341" y="70" type="curve" smooth="yes"/>
      <point x="212" y="284" type="line"/>
      <point x="83" y="70" type="line" smooth="yes"/>
      <point x="79" y="63"/>
      <point x="71" y="58"/>
      <point x="62" y="58" type="curve" smooth="yes"/>
      <point x="48" y="58"/>
      <point x="38" y="70"/>
      <point x="38" y="83" type="curve" smooth="yes"/>
      <point x="38" y="87"/>
      <point x="39" y="92"/>
    </contour>
  </outline>
</glyph>
<glyph name="Y" format="2">
  <advance width="421"/>
  <unicode hex="0059"/>
  <outline>
    <contour>
      <point x="184" y="83" type="curve" smooth="yes"/>
      <point x="184" y="326" type="line"/>
      <point x="38" y="570" type="line" smooth="yes"/>
      <point x="36" y="574"/>
      <point x="35" y="579"/>
      <point x="35" y="583" type="curve" smooth="yes"/>
      <point x="35" y="596"/>
      <point x="45" y="608"/>
      <point x="59" y="608" type="curve" smooth="yes"/>
      <point x="68" y="608"/>
      <point x="76" y="603"/>
      <point x="80" y="596" type="curve" smooth="yes"/>
      <point x="209" y="382" type="line"/>
      <point x="338" y="596" type="line" smooth="yes"/>
      <point x="342" y="603"/>
      <point x="350" y="608"/>
      <point x="359" y="608" type="curve" smooth="yes"/>
      <point x="373" y="608"/>
      <point x="384" y="596"/>
      <point x="384" y="583" type="curve" smooth="yes"/>
      <point x="384" y="579"/>
      <point x="382" y="574"/>
      <point x="380" y="570" type="curve" smooth="yes"/>
      <point x="234" y="326" type="line"/>
      <point x="234" y="83" type="line" smooth="yes"/>
      <point x="234" y="69"/>
      <point x="223" y="58"/>
      <point x="209" y="58" type="curve" smooth="yes"/>
      <point x="195" y="58"/>
      <point x="184" y="69"/>
    </contour>
  </outline>
</glyph>
<glyph name="Z" format="2">
  <advance width="431"/>
  <unicode hex="005A"/>
  <outline>
    <contour>
      <point x="64" y="608" type="curve" smooth="yes"/>
      <point x="364" y="608" type="line" smooth="yes"/>
      <point x="378" y="608"/>
      <point x="388" y="596"/>
      <point x="388" y="583" type="curve" smooth="yes"/>
      <point x="388" y="579"/>
      <point x="387" y="574"/>
      <point x="385" y="570" type="curve" smooth="yes"/>
      <point x="108" y="108" type="line"/>
      <point x="364" y="108" type="line" smooth="yes"/>
      <point x="378" y="108"/>
      <point x="389" y="97"/>
      <point x="389" y="83" type="curve" smooth="yes"/>
      <point x="389" y="69"/>
      <point x="378" y="58"/>
      <point x="364" y="58" type="curve" smooth="yes"/>
      <point x="64" y="58" type="line" smooth="yes"/>
      <point x="50" y="58"/>
      <point x="40" y="70"/>
      <point x="40" y="83" type="curve" smooth="yes"/>
      <point x="40" y="87"/>
      <point x="41" y="92"/>
      <point x="43" y="96" type="curve" smooth="yes"/>
      <point x="320" y="558" type="line"/>
      <point x="64" y="558" type="line" smooth="yes"/>
      <point x="50" y="558"/>
      <point x="39" y="569"/>
      <point x="39" y="583" type="curve" smooth="yes"/>
      <point x="39" y="597"/>
      <point x="50" y="608"/>
    </contour>
  </outline>
</glyph>
<glyph name="bracketleft" format="2">
  <advance width="280"/>
  <unicode hex="005B"/>
  <outline>
    <contour>
      <point x="100" y="25" type="line"/>
      <point x="225" y="25" type="line" smooth="yes"/>
      <point x="239" y="25"/>
      <point x="250" y="14"/>
      <point x="250" y="-0" type="curve" smooth="yes"/>
      <point x="250" y="-14"/>
      <point x="239" y="-25"/>
      <point x="225" y="-25" type="curve" smooth="yes"/>
      <point x="75" y="-25" type="line" smooth="yes"/>
      <point x="61" y="-25"/>
      <point x="50" y="-14"/>
      <point x="50" y="-0" type="curve" smooth="yes"/>
      <point x="50" y="666" type="line" smooth="yes"/>
      <point x="50" y="680"/>
      <point x="61" y="691"/>
      <point x="75" y="691" type="curve" smooth="yes"/>
      <point x="225" y="691" type="line" smooth="yes"/>
      <point x="239" y="691"/>
      <point x="250" y="680"/>
      <point x="250" y="666" type="curve" smooth="yes"/>
      <point x="250" y="652"/>
      <point x="239" y="641"/>
      <point x="225" y="641" type="curve" smooth="yes"/>
      <point x="100" y="641" type="line"/>
    </contour>
  </outline>
</glyph>
<glyph name="backslash" format="2">
  <advance width="265"/>
  <unicode hex="005C"/>
  <outline>
    <contour>
      <point x="57" y="608" type="curve" smooth="yes"/>
      <point x="68" y="608"/>
      <point x="78" y="600"/>
      <point x="81" y="590" type="curve" smooth="yes"/>
      <point x="231" y="90" type="line" smooth="yes"/>
      <point x="232" y="87"/>
      <point x="232" y="85"/>
      <point x="232" y="83" type="curve" smooth="yes"/>
      <point x="232" y="69"/>
      <point x="221" y="58"/>
      <point x="207" y="58" type="curve" smooth="yes"/>
      <point x="196" y="58"/>
      <point x="186" y="66"/>
      <point x="183" y="76" type="curve" smooth="yes"/>
      <point x="33" y="576" type="line" smooth="yes"/>
      <point x="32" y="579"/>
      <point x="32" y="581"/>
      <point x="32" y="583" type="curve" smooth="yes"/>
      <point x="32" y="597"/>
      <point x="43" y="608"/>
    </contour>
  </outline>
</glyph>
<glyph name="bracketright" format="2">
  <advance width="280"/>
  <unicode hex="005D"/>
  <outline>
    <contour>
      <point x="55" y="691" type="curve" smooth="yes"/>
      <point x="205" y="691" type="line" smooth="yes"/>
      <point x="219" y="691"/>
      <point x="230" y="680"/>
      <point x="230" y="666" type="curve" smooth="yes"/>
      <point x="230" y="-0" type="line" smooth="yes"/>
      <point x="230" y="-14"/>
      <point x="219" y="-25"/>
      <point x="205" y="-25" type="curve" smooth="yes"/>
      <point x="55" y="-25" type="line" smooth="yes"/>
      <point x="41" y="-25"/>
      <point x="30" y="-14"/>
      <point x="30" y="-0" type="curve" smooth="yes"/>
      <point x="30" y="14"/>
      <point x="41" y="25"/>
      <point x="55" y="25" type="curve" smooth="yes"/>
      <point x="180" y="25" type="line"/>
      <point x="180" y="641" type="line"/>
      <point x="55" y="641" type="line" smooth="yes"/>
      <point x="41" y="641"/>
      <point x="30" y="652"/>
      <point x="30" y="666" type="curve" smooth="yes"/>
      <point x="30" y="680"/>
      <point x="41" y="691"/>
    </contour>
  </outline>
</glyph>
<glyph name="asciicircum" format="2">
  <advance width="388"/>
  <unicode hex="005E"/>
  <outline>
    <contour>
      <point x="326" y="379" type="curve" smooth="yes"/>
      <point x="317" y="379"/>
      <point x="309" y="383"/>
      <point x="305" y="390" type="curve" smooth="yes"/>
      <point x="194" y="558" type="line"/>
      <point x="84" y="390" type="line" smooth="yes"/>
      <point x="80" y="383"/>
      <point x="72" y="379"/>
      <point x="63" y="379" type="curve" smooth="yes"/>
      <point x="49" y="379"/>
      <point x="38" y="392"/>
      <point x="38" y="405" type="curve" smooth="yes"/>
      <point x="38" y="410"/>
      <point x="39" y="414"/>
      <point x="42" y="418" type="curve" smooth="yes"/>
      <point x="173" y="618" type="line" smooth="yes"/>
      <point x="177" y="625"/>
      <point x="185" y="629"/>
      <point x="194" y="629" type="curve" smooth="yes"/>
      <point x="203" y="629"/>
      <point x="211" y="625"/>
      <point x="215" y="618" type="curve" smooth="yes"/>
      <point x="346" y="418" type="line" smooth="yes"/>
      <point x="349" y="414"/>
      <point x="350" y="409"/>
      <point x="350" y="404" type="curve" smooth="yes"/>
      <point x="350" y="391"/>
      <point x="340" y="379"/>
    </contour>
  </outline>
</glyph>
<glyph name="underscore" format="2">
  <advance width="434"/>
  <unicode hex="005F"/>
  <outline>
    <contour>
      <point x="67" y="108" type="curve" smooth="yes"/>
      <point x="367" y="108" type="line" smooth="yes"/>
      <point x="381" y="108"/>
      <point x="392" y="97"/>
      <point x="392" y="83" type="curve" smooth="yes"/>
      <point x="392" y="69"/>
      <point x="381" y="58"/>
      <point x="367" y="58" type="curve" smooth="yes"/>
      <point x="67" y="58" type="line" smooth="yes"/>
      <point x="53" y="58"/>
      <point x="42" y="69"/>
      <point x="42" y="83" type="curve" smooth="yes"/>
      <point x="42" y="97"/>
      <point x="53" y="108"/>
    </contour>
  </outline>
</glyph>
<glyph name="grave" format="2">
  <advance width="196"/>
  <unicode hex="0060"/>
  <outline>
    <contour>
      <point x="133" y="494" type="curve" smooth="yes"/>
      <point x="126" y="494"/>
      <point x="120" y="496"/>
      <point x="116" y="500" type="curve" smooth="yes"/>
      <point x="90" y="526"/>
      <point x="66" y="538"/>
      <point x="41" y="586" type="curve" smooth="yes"/>
      <point x="39" y="590"/>
      <point x="38" y="594"/>
      <point x="38" y="598" type="curve" smooth="yes"/>
      <point x="38" y="611"/>
      <point x="49" y="623"/>
      <point x="63" y="623" type="curve" smooth="yes"/>
      <point x="73" y="623"/>
      <point x="81" y="617"/>
      <point x="85" y="609" type="curve" smooth="yes"/>
      <point x="105" y="570"/>
      <point x="124" y="561"/>
      <point x="150" y="537" type="curve" smooth="yes"/>
      <point x="155" y="532"/>
      <point x="158" y="526"/>
      <point x="158" y="519" type="curve" smooth="yes"/>
      <point x="158" y="505"/>
      <point x="147" y="494"/>
    </contour>
  </outline>
</glyph>
<glyph name="d" format="2">
  <advance width="489"/>
  <unicode hex="0064"/>
  <outline>
    <contour>
      <point x="136" y="562" type="curve" smooth="yes"/>
      <point x="120" y="562"/>
      <point x="107" y="562"/>
      <point x="97" y="561" type="curve"/>
      <point x="97" y="105" type="line"/>
      <point x="107" y="104"/>
      <point x="120" y="104"/>
      <point x="136" y="104" type="curve" smooth="yes"/>
      <point x="179" y="104"/>
      <point x="237" y="110"/>
      <point x="286" y="134" type="curve" smooth="yes"/>
      <point x="353" y="167"/>
      <point x="397" y="227"/>
      <point x="397" y="333" type="curve" smooth="yes"/>
      <point x="397" y="439"/>
      <point x="353" y="499"/>
      <point x="286" y="532" type="curve" smooth="yes"/>
      <point x="237" y="556"/>
      <point x="179" y="562"/>
    </contour>
    <contour>
      <point x="47" y="583" type="line" smooth="yes"/>
      <point x="47" y="595"/>
      <point x="56" y="606"/>
      <point x="68" y="608" type="curve" smooth="yes"/>
      <point x="69" y="608"/>
      <point x="96" y="612"/>
      <point x="136" y="612" type="curve" smooth="yes"/>
      <point x="183" y="612"/>
      <point x="248" y="606"/>
      <point x="308" y="577" type="curve" smooth="yes"/>
      <point x="388" y="538"/>
      <point x="447" y="459"/>
      <point x="447" y="333" type="curve" smooth="yes"/>
      <point x="447" y="207"/>
      <point x="388" y="128"/>
      <point x="308" y="89" type="curve" smooth="yes"/>
      <point x="248" y="60"/>
      <point x="183" y="54"/>
      <point x="136" y="54" type="curve" smooth="yes"/>
      <point x="96" y="54"/>
      <point x="69" y="58"/>
      <point x="68" y="58" type="curve" smooth="yes"/>
      <point x="56" y="60"/>
      <point x="47" y="71"/>
      <point x="47" y="83" type="curve" smooth="yes"/>
    </contour>
  </outline>
</glyph>
<glyph name="f" format="2">
  <advance width="437"/>
  <unicode hex="0066"/>
  <outline>
    <contour>
      <point x="97" y="558" type="line"/>
      <point x="97" y="358" type="line"/>
      <point x="301" y="358" type="line" smooth="yes"/>
      <point x="315" y="358"/>
      <point x="326" y="347"/>
      <point x="326" y="333" type="curve" smooth="yes"/>
      <point x="326" y="319"/>
      <point x="315" y="308"/>
      <point x="301" y="308" type="curve" smooth="yes"/>
      <point x="97" y="308" type="line"/>
      <point x="97" y="83" type="line" smooth="yes"/>
      <point x="97" y="69"/>
      <point x="86" y="58"/>
      <point x="72" y="58" type="curve" smooth="yes"/>
      <point x="58" y="58"/>
      <point x="47" y="69"/>
      <point x="47" y="83" type="curve" smooth="yes"/>
      <point x="47" y="583" type="line" smooth="yes"/>
      <point x="47" y="597"/>
      <point x="58" y="608"/>
      <point x="72" y="608" type="curve" smooth="yes"/>
      <point x="372" y="608" type="line" smooth="yes"/>
      <point x="386" y="608"/>
      <point x="397" y="597"/>
      <point x="397" y="583" type="curve" smooth="yes"/>
      <point x="397" y="569"/>
      <point x="386" y="558"/>
      <point x="372" y="558" type="curve" smooth="yes"/>
    </contour>
  </outline>
</glyph>
<glyph name="h" format="2">
  <advance width="449"/>
  <unicode hex="0068"/>
  <outline>
    <contour>
      <point x="347" y="308" type="line"/>
      <point x="97" y="308" type="line"/>
      <point x="97" y="83" type="line" smooth="yes"/>
      <point x="97" y="69"/>
      <point x="86" y="58"/>
      <point x="72" y="58" type="curve" smooth="yes"/>
      <point x="58" y="58"/>
      <point x="47" y="69"/>
      <point x="47" y="83" type="curve" smooth="yes"/>
      <point x="47" y="583" type="line" smooth="yes"/>
      <point x="47" y="597"/>
      <point x="58" y="608"/>
      <point x="72" y="608" type="curve" smooth="yes"/>
      <point x="86" y="608"/>
      <point x="97" y="597"/>
      <point x="97" y="583" type="curve" smooth="yes"/>
      <point x="97" y="358" type="line"/>
      <point x="347" y="358" type="line"/>
      <point x="347" y="583" type="line" smooth="yes"/>
      <point x="347" y="597"/>
      <point x="358" y="608"/>
      <point x="372" y="608" type="curve" smooth="yes"/>
      <point x="386" y="608"/>
      <point x="397" y="597"/>
      <point x="397" y="583" type="curve" smooth="yes"/>
      <point x="397" y="83" type="line" smooth="yes"/>
      <point x="397" y="69"/>
      <point x="386" y="58"/>
      <point x="372" y="58" type="curve" smooth="yes"/>
      <point x="358" y="58"/>
      <point x="347" y="69"/>
      <point x="347" y="83" type="curve" smooth="yes"/>
    </contour>
  </outline>
</glyph>
<glyph name="k" format="2">
  <advance width="470"/>
  <unicode hex="006B"/>
  <outline>
    <contour>
      <point x="403.034" y="58" type="curve" smooth="yes"/>
      <point x="395.034" y="58"/>
      <point x="389.034" y="62"/>
      <point x="384.034" y="67" type="curve" smooth="yes"/>
      <point x="189.034" y="295" type="line"/>
      <point x="128.034" y="224" type="line"/>
      <point x="128.034" y="83" type="line" smooth="yes"/>
      <point x="128.034" y="69"/>
      <point x="117.034" y="58"/>
      <point x="103.034" y="58" type="curve" smooth="yes"/>
      <point x="89.0342" y="58"/>
      <point x="78.0342" y="69"/>
      <point x="78.0342" y="83" type="curve" smooth="yes"/>
      <point x="78.0342" y="583" type="line" smooth="yes"/>
      <point x="78.0342" y="597"/>
      <point x="89.0342" y="608"/>
      <point x="103.034" y="608" type="curve" smooth="yes"/>
      <point x="117.034" y="608"/>
      <point x="128.034" y="597"/>
      <point x="128.034" y="583" type="curve" smooth="yes"/>
      <point x="128.034" y="301" type="line"/>
      <point x="142.034" y="317"/>
      <point x="156.034" y="333"/>
      <point x="170.034" y="349" type="curve" smooth="yes"/>
      <point x="241.034" y="432"/>
      <point x="313.034" y="516"/>
      <point x="384.034" y="599" type="curve" smooth="yes"/>
      <point x="389.034" y="604"/>
      <point x="395.034" y="608"/>
      <point x="403.034" y="608" type="curve" smooth="yes"/>
      <point x="417.034" y="608"/>
      <point x="428.034" y="597"/>
      <point x="428.034" y="583" type="curve" smooth="yes"/>
      <point x="428.034" y="577"/>
      <point x="426.034" y="571"/>
      <point x="422.034" y="567" type="curve" smooth="yes"/>
      <point x="355.034" y="489"/>
      <point x="289.034" y="411"/>
      <point x="222.034" y="333" type="curve"/>
      <point x="422.034" y="99" type="line" smooth="yes"/>
      <point x="426.034" y="95"/>
      <point x="428.034" y="89"/>
      <point x="428.034" y="83" type="curve" smooth="yes"/>
      <point x="428.034" y="69"/>
      <point x="417.034" y="58"/>
    </contour>
  </outline>
</glyph>
<glyph name="l" format="2">
  <advance width="435"/>
  <unicode hex="006C"/>
  <outline>
    <contour>
      <point x="97" y="108" type="line"/>
      <point x="372" y="108" type="line" smooth="yes"/>
      <point x="386" y="108"/>
      <point x="397" y="97"/>
      <point x="397" y="83" type="curve" smooth="yes"/>
      <point x="397" y="69"/>
      <point x="386" y="58"/>
      <point x="372" y="58" type="curve" smooth="yes"/>
      <point x="72" y="58" type="line" smooth="yes"/>
      <point x="58" y="58"/>
      <point x="47" y="69"/>
      <point x="47" y="83" type="curve" smooth="yes"/>
      <point x="47" y="583" type="line" smooth="yes"/>
      <point x="47" y="597"/>
      <point x="58" y="608"/>
      <point x="72" y="608" type="curve" smooth="yes"/>
      <point x="86" y="608"/>
      <point x="97" y="597"/>
      <point x="97" y="583" type="curve" smooth="yes"/>
    </contour>
  </outline>
</glyph>
<glyph name="q" format="2">
  <advance width="551"/>
  <unicode hex="0071"/>
  <outline>
    <contour>
      <point x="388" y="173" type="curve"/>
      <point x="319" y="258" type="line" smooth="yes"/>
      <point x="316" y="262"/>
      <point x="314" y="267"/>
      <point x="314" y="273" type="curve" smooth="yes"/>
      <point x="314" y="287"/>
      <point x="325" y="298"/>
      <point x="339" y="298" type="curve" smooth="yes"/>
      <point x="347" y="298"/>
      <point x="353" y="295"/>
      <point x="358" y="289" type="curve" smooth="yes"/>
      <point x="413" y="220" type="line"/>
      <point x="428" y="257"/>
      <point x="435" y="299"/>
      <point x="435" y="333" type="curve" smooth="yes"/>
      <point x="435" y="373"/>
      <point x="427" y="422"/>
      <point x="406" y="463" type="curve" smooth="yes"/>
      <point x="381" y="515"/>
      <point x="337" y="558"/>
      <point x="260" y="558" type="curve" smooth="yes"/>
      <point x="230" y="558"/>
      <point x="206" y="552"/>
      <point x="186" y="541" type="curve" smooth="yes"/>
      <point x="123" y="507"/>
      <point x="85" y="420"/>
      <point x="85" y="333" type="curve" smooth="yes"/>
      <point x="85" y="293"/>
      <point x="93" y="244"/>
      <point x="114" y="203" type="curve" smooth="yes"/>
      <point x="139" y="151"/>
      <point x="183" y="108"/>
      <point x="260" y="108" type="curve" smooth="yes"/>
      <point x="322" y="108"/>
      <point x="362" y="135"/>
    </contour>
    <contour>
      <point x="448" y="176" type="curve"/>
      <point x="510" y="99" type="line" smooth="yes"/>
      <point x="513" y="95"/>
      <point x="516" y="89"/>
      <point x="516" y="83" type="curve" smooth="yes"/>
      <point x="516" y="69"/>
      <point x="505" y="58"/>
      <point x="491" y="58" type="curve" smooth="yes"/>
      <point x="483" y="58"/>
      <point x="476" y="61"/>
      <point x="471" y="67" type="curve" smooth="yes"/>
      <point x="420" y="132" type="line"/>
      <point x="386" y="91"/>
      <point x="333" y="58"/>
      <point x="260" y="58" type="curve" smooth="yes"/>
      <point x="162" y="58"/>
      <point x="102" y="116"/>
      <point x="70" y="180" type="curve" smooth="yes"/>
      <point x="45" y="230"/>
      <point x="35" y="286"/>
      <point x="35" y="333" type="curve" smooth="yes"/>
      <point x="35" y="380"/>
      <point x="45" y="436"/>
      <point x="70" y="486" type="curve" smooth="yes"/>
      <point x="102" y="550"/>
      <point x="162" y="608"/>
      <point x="260" y="608" type="curve" smooth="yes"/>
      <point x="358" y="608"/>
      <point x="418" y="550"/>
      <point x="450" y="486" type="curve" smooth="yes"/>
      <point x="475" y="436"/>
      <point x="485" y="380"/>
      <point x="485" y="333" type="curve" smooth="yes"/>
      <point x="485" y="285"/>
      <point x="474" y="226"/>
    </contour>
  </outline>
</glyph>
<glyph name="r" format="2">
  <advance width="437"/>
  <unicode hex="0072"/>
  <outline>
    <contour>
      <point x="202" y="302" type="move"/>
    </contour>
    <contour>
      <point x="397" y="458" type="curve" smooth="yes"/>
      <point x="397" y="364"/>
      <point x="332" y="326"/>
      <point x="257" y="309" type="curve"/>
      <point x="392" y="96" type="line" smooth="yes"/>
      <point x="395" y="92"/>
      <point x="396" y="87"/>
      <point x="396" y="83" type="curve" smooth="yes"/>
      <point x="396" y="70"/>
      <point x="385" y="58"/>
      <point x="371" y="58" type="curve" smooth="yes"/>
      <point x="362" y="58"/>
      <point x="355" y="63"/>
      <point x="350" y="70" type="curve" smooth="yes"/>
      <point x="202" y="302" type="line"/>
      <point x="191" y="301"/>
      <point x="177" y="300"/>
      <point x="167" y="300" type="curve" smooth="yes"/>
      <point x="139" y="300"/>
      <point x="115" y="302"/>
      <point x="97" y="304" type="curve"/>
      <point x="97" y="83" type="line" smooth="yes"/>
      <point x="97" y="69"/>
      <point x="86" y="58"/>
      <point x="72" y="58" type="curve" smooth="yes"/>
      <point x="58" y="58"/>
      <point x="47" y="69"/>
      <point x="47" y="83" type="curve" smooth="yes"/>
      <point x="47" y="583" type="line" smooth="yes"/>
      <point x="47" y="595"/>
      <point x="56" y="606"/>
      <point x="68" y="608" type="curve" smooth="yes"/>
      <point x="69" y="608"/>
      <point x="112" y="616"/>
      <point x="167" y="616" type="curve" smooth="yes"/>
      <point x="283" y="616"/>
      <point x="397" y="580"/>
    </contour>
    <contour>
      <point x="347" y="458" type="curve" smooth="yes"/>
      <point x="347" y="547"/>
      <point x="257" y="565"/>
      <point x="167" y="565" type="curve" smooth="yes"/>
      <point x="143" y="565"/>
      <point x="119" y="564"/>
      <point x="97" y="561" type="curve"/>
      <point x="97" y="355" type="line"/>
      <point x="119" y="352"/>
      <point x="143" y="351"/>
      <point x="167" y="351" type="curve" smooth="yes"/>
      <point x="257" y="351"/>
      <point x="347" y="369"/>
    </contour>
  </outline>
</glyph>
<glyph name="v" format="2">
  <advance width="523"/>
  <unicode hex="0076"/>
  <outline>
    <contour>
      <point x="60" y="608" type="curve" smooth="yes"/>
      <point x="71" y="608"/>
      <point x="79" y="601"/>
      <point x="83" y="592" type="curve" smooth="yes"/>
      <point x="260" y="150" type="line"/>
      <point x="437" y="592" type="line" smooth="yes"/>
      <point x="441" y="601"/>
      <point x="449" y="608"/>
      <point x="460" y="608" type="curve" smooth="yes"/>
      <point x="474" y="608"/>
      <point x="485" y="597"/>
      <point x="485" y="584" type="curve" smooth="yes"/>
      <point x="485" y="581"/>
      <point x="484" y="577"/>
      <point x="483" y="574" type="curve" smooth="yes"/>
      <point x="283" y="74" type="line" smooth="yes"/>
      <point x="279" y="65"/>
      <point x="271" y="58"/>
      <point x="260" y="58" type="curve" smooth="yes"/>
      <point x="249" y="58"/>
      <point x="241" y="65"/>
      <point x="237" y="74" type="curve" smooth="yes"/>
      <point x="37" y="574" type="line" smooth="yes"/>
      <point x="36" y="577"/>
      <point x="35" y="581"/>
      <point x="35" y="584" type="curve" smooth="yes"/>
      <point x="35" y="597"/>
      <point x="46" y="608"/>
    </contour>
  </outline>
</glyph>
<glyph name="w" format="2">
  <advance width="527"/>
  <unicode hex="0077"/>
  <outline>
    <contour>
      <point x="412" y="58" type="curve" smooth="yes"/>
      <point x="402" y="58"/>
      <point x="393" y="64"/>
      <point x="389" y="73" type="curve" smooth="yes"/>
      <point x="262" y="370" type="line"/>
      <point x="135" y="73" type="line" smooth="yes"/>
      <point x="131" y="64"/>
      <point x="122" y="58"/>
      <point x="112" y="58" type="curve" smooth="yes"/>
      <point x="99" y="58"/>
      <point x="88" y="67"/>
      <point x="87" y="80" type="curve" smooth="yes"/>
      <point x="37" y="580" type="line"/>
      <point x="37" y="596"/>
      <point x="47" y="608"/>
      <point x="62" y="608" type="curve" smooth="yes"/>
      <point x="75" y="608"/>
      <point x="86" y="599"/>
      <point x="87" y="586" type="curve" smooth="yes"/>
      <point x="127" y="182" type="line"/>
      <point x="239" y="443" type="line" smooth="yes"/>
      <point x="243" y="452"/>
      <point x="252" y="458"/>
      <point x="262" y="458" type="curve" smooth="yes"/>
      <point x="272" y="458"/>
      <point x="281" y="452"/>
      <point x="285" y="443" type="curve" smooth="yes"/>
      <point x="397" y="182" type="line"/>
      <point x="437" y="586" type="line" smooth="yes"/>
      <point x="438" y="599"/>
      <point x="449" y="608"/>
      <point x="462" y="608" type="curve" smooth="yes"/>
      <point x="477" y="608"/>
      <point x="487" y="596"/>
      <point x="487" y="580" type="curve"/>
      <point x="437" y="80" type="line" smooth="yes"/>
      <point x="436" y="67"/>
      <point x="425" y="58"/>
    </contour>
  </outline>
</glyph>
<glyph name="braceleft" format="2">
  <advance width="259"/>
  <unicode hex="007B"/>
  <outline>
    <contour>
      <point x="72" y="549" type="curve" smooth="yes"/>
      <point x="72" y="635"/>
      <point x="115" y="687"/>
      <point x="204" y="687" type="curve" smooth="yes"/>
      <point x="218" y="687"/>
      <point x="229" y="676"/>
      <point x="229" y="662" type="curve" smooth="yes"/>
      <point x="229" y="648"/>
      <point x="218" y="637"/>
      <point x="204" y="637" type="curve" smooth="yes"/>
      <point x="142" y="637"/>
      <point x="122" y="608"/>
      <point x="122" y="547" type="curve" smooth="yes"/>
      <point x="122" y="496"/>
      <point x="141" y="434"/>
      <point x="141" y="385" type="curve" smooth="yes"/>
      <point x="141" y="363"/>
      <point x="135" y="346"/>
      <point x="119" y="337" type="curve"/>
      <point x="110" y="333" type="line"/>
      <point x="119" y="329" type="line"/>
      <point x="134" y="321"/>
      <point x="139" y="305"/>
      <point x="139" y="286" type="curve" smooth="yes"/>
      <point x="139" y="268"/>
      <point x="135" y="247"/>
      <point x="131" y="223" type="curve" smooth="yes"/>
      <point x="126" y="191"/>
      <point x="120" y="156"/>
      <point x="120" y="124" type="curve" smooth="yes"/>
      <point x="120" y="61"/>
      <point x="140" y="29"/>
      <point x="204" y="29" type="curve" smooth="yes"/>
      <point x="218" y="29"/>
      <point x="229" y="18"/>
      <point x="229" y="4" type="curve" smooth="yes"/>
      <point x="229" y="-10"/>
      <point x="218" y="-21"/>
      <point x="204" y="-21" type="curve" smooth="yes"/>
      <point x="112" y="-21"/>
      <point x="70" y="35"/>
      <point x="70" y="124" type="curve" smooth="yes"/>
      <point x="70" y="160"/>
      <point x="76" y="198"/>
      <point x="82" y="231" type="curve" smooth="yes"/>
      <point x="86" y="253"/>
      <point x="89" y="271"/>
      <point x="89" y="284" type="curve" smooth="yes"/>
      <point x="89" y="286"/>
      <point x="89" y="287"/>
      <point x="89" y="288" type="curve"/>
      <point x="45" y="311" type="line" smooth="yes"/>
      <point x="37" y="315"/>
      <point x="32" y="323"/>
      <point x="32" y="333" type="curve" smooth="yes"/>
      <point x="32" y="343"/>
      <point x="37" y="351"/>
      <point x="45" y="355" type="curve" smooth="yes"/>
      <point x="91" y="379" type="line"/>
      <point x="91" y="385" type="line" smooth="yes"/>
      <point x="91" y="397"/>
      <point x="88" y="419"/>
      <point x="84" y="443" type="curve" smooth="yes"/>
      <point x="79" y="476"/>
      <point x="72" y="513"/>
    </contour>
  </outline>
</glyph>
<glyph name="bar" format="2">
  <advance width="148"/>
  <unicode hex="007C"/>
  <outline>
    <contour>
      <point x="99" y="609" type="curve" smooth="yes"/>
      <point x="99" y="57" type="line" smooth="yes"/>
      <point x="99" y="43"/>
      <point x="88" y="32"/>
      <point x="74" y="32" type="curve" smooth="yes"/>
      <point x="60" y="32"/>
      <point x="49" y="43"/>
      <point x="49" y="57" type="curve" smooth="yes"/>
      <point x="49" y="609" type="line" smooth="yes"/>
      <point x="49" y="623"/>
      <point x="60" y="634"/>
      <point x="74" y="634" type="curve" smooth="yes"/>
      <point x="88" y="634"/>
      <point x="99" y="623"/>
    </contour>
  </outline>
</glyph>
<glyph name="braceright" format="2">
  <advance width="259"/>
  <unicode hex="007D"/>
  <outline>
    <contour>
      <point x="189" y="124" type="curve" smooth="yes"/>
      <point x="189" y="35"/>
      <point x="147" y="-21"/>
      <point x="55" y="-21" type="curve" smooth="yes"/>
      <point x="41" y="-21"/>
      <point x="30" y="-10"/>
      <point x="30" y="4" type="curve" smooth="yes"/>
      <point x="30" y="18"/>
      <point x="41" y="29"/>
      <point x="55" y="29" type="curve" smooth="yes"/>
      <point x="119" y="29"/>
      <point x="139" y="61"/>
      <point x="139" y="124" type="curve" smooth="yes"/>
      <point x="139" y="156"/>
      <point x="133" y="191"/>
      <point x="128" y="223" type="curve" smooth="yes"/>
      <point x="124" y="247"/>
      <point x="120" y="268"/>
      <point x="120" y="286" type="curve" smooth="yes"/>
      <point x="120" y="305"/>
      <point x="125" y="321"/>
      <point x="140" y="329" type="curve"/>
      <point x="149" y="333" type="line"/>
      <point x="140" y="337" type="line"/>
      <point x="124" y="346"/>
      <point x="118" y="363"/>
      <point x="118" y="385" type="curve" smooth="yes"/>
      <point x="118" y="434"/>
      <point x="137" y="496"/>
      <point x="137" y="547" type="curve" smooth="yes"/>
      <point x="137" y="608"/>
      <point x="116" y="637"/>
      <point x="55" y="637" type="curve" smooth="yes"/>
      <point x="41" y="637"/>
      <point x="30" y="648"/>
      <point x="30" y="662" type="curve" smooth="yes"/>
      <point x="30" y="676"/>
      <point x="41" y="687"/>
      <point x="55" y="687" type="curve" smooth="yes"/>
      <point x="145" y="687"/>
      <point x="187" y="634"/>
      <point x="187" y="547" type="curve" smooth="yes"/>
      <point x="187" y="512"/>
      <point x="181" y="475"/>
      <point x="176" y="443" type="curve" smooth="yes"/>
      <point x="172" y="419"/>
      <point x="168" y="397"/>
      <point x="168" y="385" type="curve" smooth="yes"/>
      <point x="168" y="379" type="line"/>
      <point x="214" y="355" type="line" smooth="yes"/>
      <point x="222" y="351"/>
      <point x="227" y="343"/>
      <point x="227" y="333" type="curve" smooth="yes"/>
      <point x="227" y="323"/>
      <point x="222" y="315"/>
      <point x="214" y="311" type="curve" smooth="yes"/>
      <point x="170" y="288" type="line"/>
      <point x="170" y="284" type="line" smooth="yes"/>
      <point x="170" y="271"/>
      <point x="173" y="253"/>
      <point x="177" y="231" type="curve" smooth="yes"/>
      <point x="183" y="198"/>
      <point x="189" y="160"/>
    </contour>
  </outline>
</glyph>
<glyph name="asciitilde" format="2">
  <advance width="574"/>
  <unicode hex="007E"/>
  <outline>
    <contour>
      <point x="64" y="405" type="curve" smooth="yes"/>
      <point x="75" y="405"/>
      <point x="83" y="398"/>
      <point x="87" y="389" type="curve"/>
      <point x="87" y="389"/>
      <point x="97" y="361"/>
      <point x="119" y="336" type="curve" smooth="yes"/>
      <point x="136" y="316"/>
      <point x="158" y="302"/>
      <point x="182" y="302" type="curve" smooth="yes"/>
      <point x="203" y="302"/>
      <point x="232" y="313"/>
      <point x="270" y="351" type="curve" smooth="yes"/>
      <point x="315" y="396"/>
      <point x="356" y="415"/>
      <point x="395" y="415" type="curve" smooth="yes"/>
      <point x="440" y="415"/>
      <point x="474" y="389"/>
      <point x="495" y="363" type="curve" smooth="yes"/>
      <point x="522" y="331"/>
      <point x="534" y="295"/>
      <point x="535" y="294" type="curve" smooth="yes"/>
      <point x="536" y="291"/>
      <point x="536" y="289"/>
      <point x="536" y="286" type="curve" smooth="yes"/>
      <point x="536" y="272"/>
      <point x="524" y="261"/>
      <point x="511" y="261" type="curve" smooth="yes"/>
      <point x="500" y="261"/>
      <point x="491" y="267"/>
      <point x="488" y="277" type="curve"/>
      <point x="488" y="277"/>
      <point x="478" y="306"/>
      <point x="457" y="331" type="curve" smooth="yes"/>
      <point x="440" y="351"/>
      <point x="419" y="365"/>
      <point x="395" y="365" type="curve" smooth="yes"/>
      <point x="374" y="365"/>
      <point x="344" y="354"/>
      <point x="305" y="315" type="curve" smooth="yes"/>
      <point x="261" y="271"/>
      <point x="221" y="252"/>
      <point x="182" y="252" type="curve" smooth="yes"/>
      <point x="137" y="252"/>
      <point x="104" y="279"/>
      <point x="82" y="304" type="curve" smooth="yes"/>
      <point x="55" y="336"/>
      <point x="42" y="370"/>
      <point x="41" y="371" type="curve" smooth="yes"/>
      <point x="40" y="374"/>
      <point x="39" y="377"/>
      <point x="39" y="380" type="curve" smooth="yes"/>
      <point x="39" y="393"/>
      <point x="51" y="405"/>
    </contour>
  </outline>
</glyph>
<glyph name="periodcentered" format="2">
  <advance width="244"/>
  <unicode hex="00B7"/>
  <outline>
    <contour>
      <point x="197" y="331" type="move" smooth="yes"/>
    </contour>
    <contour>
      <point x="197" y="331" type="curve" smooth="yes"/>
      <point x="197" y="290"/>
      <point x="163" y="256"/>
      <point x="122" y="256" type="curve" smooth="yes"/>
      <point x="81" y="256"/>
      <point x="47" y="290"/>
      <point x="47" y="331" type="curve" smooth="yes"/>
      <point x="47" y="372"/>
      <point x="81" y="406"/>
      <point x="122" y="406" type="curve" smooth="yes"/>
      <point x="163" y="406"/>
      <point x="197" y="372"/>
    </contour>
  </outline>
</glyph>
<glyph name="female" format="2">
  <advance width="398"/>
  <unicode hex="2640"/>
  <outline>
    <contour>
      <point x="173" y="218" type="line"/>
      <point x="173" y="285" type="line"/>
      <point x="95" y="297"/>
      <point x="36" y="365"/>
      <point x="36" y="446" type="curve" smooth="yes"/>
      <point x="36" y="536"/>
      <point x="108" y="608"/>
      <point x="198" y="608" type="curve" smooth="yes"/>
      <point x="288" y="608"/>
      <point x="361" y="536"/>
      <point x="361" y="446" type="curve" smooth="yes"/>
      <point x="361" y="365"/>
      <point x="301" y="297"/>
      <point x="223" y="285" type="curve"/>
      <point x="223" y="218" type="line"/>
      <point x="298" y="218" type="line" smooth="yes"/>
      <point x="312" y="218"/>
      <point x="323" y="207"/>
      <point x="323" y="193" type="curve" smooth="yes"/>
      <point x="323" y="179"/>
      <point x="312" y="168"/>
      <point x="298" y="168" type="curve" smooth="yes"/>
      <point x="223" y="168" type="line"/>
      <point x="223" y="93" type="line" smooth="yes"/>
      <point x="223" y="79"/>
      <point x="212" y="68"/>
      <point x="198" y="68" type="curve" smooth="yes"/>
      <point x="184" y="68"/>
      <point x="173" y="79"/>
      <point x="173" y="93" type="curve" smooth="yes"/>
      <point x="173" y="168" type="line"/>
      <point x="98" y="168" type="line" smooth="yes"/>
      <point x="84" y="168"/>
      <point x="73" y="179"/>
      <point x="73" y="193" type="curve" smooth="yes"/>
      <point x="73" y="207"/>
      <point x="84" y="218"/>
      <point x="98" y="218" type="curve" smooth="yes"/>
    </contour>
    <contour>
      <point x="311" y="446" type="curve" smooth="yes"/>
      <point x="311" y="508"/>
      <point x="260" y="558"/>
      <point x="198" y="558" type="curve" smooth="yes"/>
      <point x="136" y="558"/>
      <point x="86" y="508"/>
      <point x="86" y="446" type="curve" smooth="yes"/>
      <point x="86" y="384"/>
      <point x="136" y="333"/>
      <point x="198" y="333" type="curve" smooth="yes"/>
      <point x="260" y="333"/>
      <point x="311" y="384"/>
    </contour>
  </outline>
</glyph>
<glyph name="male" format="2">
  <advance width="547"/>
  <unicode hex="2642"/>
  <outline>
    <contour>
      <point x="315" y="280" type="curve" smooth="yes"/>
      <point x="315" y="342"/>
      <point x="264" y="392"/>
      <point x="202" y="392" type="curve" smooth="yes"/>
      <point x="140" y="392"/>
      <point x="90" y="342"/>
      <point x="90" y="280" type="curve" smooth="yes"/>
      <point x="90" y="218"/>
      <point x="140" y="167"/>
      <point x="202" y="167" type="curve" smooth="yes"/>
      <point x="264" y="167"/>
      <point x="315" y="218"/>
    </contour>
    <contour>
      <point x="457" y="409" type="curve" smooth="yes"/>
      <point x="457" y="499" type="line"/>
      <point x="334" y="376" type="line"/>
      <point x="354" y="349"/>
      <point x="365" y="316"/>
      <point x="365" y="280" type="curve" smooth="yes"/>
      <point x="365" y="190"/>
      <point x="292" y="117"/>
      <point x="202" y="117" type="curve" smooth="yes"/>
      <point x="112" y="117"/>
      <point x="40" y="190"/>
      <point x="40" y="280" type="curve" smooth="yes"/>
      <point x="40" y="370"/>
      <point x="112" y="442"/>
      <point x="202" y="442" type="curve" smooth="yes"/>
      <point x="238" y="442"/>
      <point x="271" y="431"/>
      <point x="298" y="411" type="curve"/>
      <point x="422" y="534" type="line"/>
      <point x="332" y="534" type="line" smooth="yes"/>
      <point x="318" y="534"/>
      <point x="307" y="545"/>
      <point x="307" y="559" type="curve" smooth="yes"/>
      <point x="307" y="573"/>
      <point x="318" y="584"/>
      <point x="332" y="584" type="curve" smooth="yes"/>
      <point x="482" y="584" type="line" smooth="yes"/>
      <point x="496" y="584"/>
      <point x="507" y="573"/>
      <point x="507" y="559" type="curve" smooth="yes"/>
      <point x="507" y="409" type="line" smooth="yes"/>
      <point x="507" y="395"/>
      <point x="496" y="384"/>
      <point x="482" y="384" type="curve" smooth="yes"/>
      <point x="468" y="384"/>
      <point x="457" y="395"/>
    </contour>
  </outline>
</glyph>
<glyph name="a.sp" format="2">
  <advance width="493"/>
  <unicode hex="EE00"/>
  <outline>
    <contour>
      <point x="133" y="62" type="curve" smooth="yes"/>
      <point x="118" y="62"/>
      <point x="101" y="68"/>
      <point x="91" y="83" type="curve" smooth="yes"/>
      <point x="84" y="94"/>
      <point x="81" y="108"/>
      <point x="81" y="122" type="curve" smooth="yes"/>
      <point x="81" y="194"/>
      <point x="92" y="246"/>
      <point x="125" y="281" type="curve" smooth="yes"/>
      <point x="143" y="299"/>
      <point x="165" y="309"/>
      <point x="189" y="309" type="curve" smooth="yes"/>
      <point x="230" y="309"/>
      <point x="270" y="285"/>
      <point x="305" y="253" type="curve" smooth="yes"/>
      <point x="349" y="212"/>
      <point x="386" y="153"/>
      <point x="405" y="91" type="curve" smooth="yes"/>
      <point x="406" y="88"/>
      <point x="406" y="86"/>
      <point x="406" y="84" type="curve" smooth="yes"/>
      <point x="406" y="70"/>
      <point x="395" y="58"/>
      <point x="381" y="58" type="curve" smooth="yes"/>
      <point x="370" y="58"/>
      <point x="360" y="66"/>
      <point x="357" y="76" type="curve" smooth="yes"/>
      <point x="346" y="114"/>
      <point x="326" y="152"/>
      <point x="301" y="183" type="curve"/>
      <point x="269" y="141"/>
      <point x="224" y="95"/>
      <point x="174" y="72" type="curve" smooth="yes"/>
      <point x="161" y="66"/>
      <point x="147" y="62"/>
    </contour>
    <contour>
      <point x="131" y="122" type="curve" smooth="yes"/>
      <point x="131" y="116"/>
      <point x="132" y="114"/>
      <point x="133" y="112" type="curve" smooth="yes"/>
      <point x="136" y="112"/>
      <point x="143" y="113"/>
      <point x="152" y="117" type="curve" smooth="yes"/>
      <point x="164" y="122"/>
      <point x="179" y="132"/>
      <point x="193" y="143" type="curve" smooth="yes"/>
      <point x="220" y="164"/>
      <point x="248" y="195"/>
      <point x="266" y="221" type="curve"/>
      <point x="238" y="246"/>
      <point x="208" y="259"/>
      <point x="189" y="259" type="curve" smooth="yes"/>
      <point x="178" y="259"/>
      <point x="169" y="256"/>
      <point x="161" y="247" type="curve" smooth="yes"/>
      <point x="138" y="224"/>
      <point x="131" y="177"/>
    </contour>
    <contour>
      <point x="257" y="584" type="curve" smooth="yes"/>
      <point x="257" y="361" type="line" smooth="yes"/>
      <point x="257" y="347"/>
      <point x="246" y="336"/>
      <point x="232" y="336" type="curve" smooth="yes"/>
      <point x="218" y="336"/>
      <point x="207" y="347"/>
      <point x="207" y="361" type="curve" smooth="yes"/>
      <point x="207" y="584" type="line" smooth="yes"/>
      <point x="207" y="598"/>
      <point x="218" y="609"/>
      <point x="232" y="609" type="curve" smooth="yes"/>
      <point x="246" y="609"/>
      <point x="257" y="598"/>
    </contour>
  </outline>
</glyph>
<glyph name="akesi.sp" format="2">
  <advance width="605"/>
  <unicode hex="EE01"/>
  <outline>
    <contour>
      <point x="210" y="416" type="curve"/>
      <point x="390" y="416" type="line"/>
      <point x="382" y="447"/>
      <point x="370" y="470"/>
      <point x="352" y="483" type="curve" smooth="yes"/>
      <point x="340" y="492"/>
      <point x="324" y="498"/>
      <point x="301" y="498" type="curve" smooth="yes"/>
      <point x="277" y="498"/>
      <point x="260" y="493"/>
      <point x="248" y="485" type="curve" smooth="yes"/>
      <point x="230" y="473"/>
      <point x="217" y="451"/>
      <point x="210" y="419" type="curve" smooth="yes"/>
      <point x="210" y="418"/>
      <point x="210" y="417"/>
    </contour>
    <contour>
      <point x="201" y="248" type="line"/>
      <point x="201" y="226"/>
      <point x="202" y="203"/>
      <point x="204" y="181" type="curve"/>
      <point x="399" y="181" type="line"/>
      <point x="400" y="202"/>
      <point x="401" y="225"/>
      <point x="401" y="248" type="curve"/>
    </contour>
    <contour>
      <point x="201" y="298" type="curve"/>
      <point x="401" y="298" type="line"/>
      <point x="401" y="320"/>
      <point x="400" y="344"/>
      <point x="398" y="366" type="curve"/>
      <point x="203" y="366" type="line"/>
      <point x="202" y="345"/>
      <point x="201" y="321"/>
    </contour>
    <contour>
      <point x="151" y="616" type="curve" smooth="yes"/>
      <point x="151" y="644"/>
      <point x="173" y="666"/>
      <point x="201" y="666" type="curve" smooth="yes"/>
      <point x="229" y="666"/>
      <point x="251" y="644"/>
      <point x="251" y="616" type="curve" smooth="yes"/>
      <point x="251" y="588"/>
      <point x="229" y="566"/>
      <point x="201" y="566" type="curve" smooth="yes"/>
      <point x="173" y="566"/>
      <point x="151" y="588"/>
    </contour>
    <contour>
      <point x="351" y="616" type="curve" smooth="yes"/>
      <point x="351" y="644"/>
      <point x="373" y="666"/>
      <point x="401" y="666" type="curve" smooth="yes"/>
      <point x="429" y="666"/>
      <point x="451" y="644"/>
      <point x="451" y="616" type="curve" smooth="yes"/>
      <point x="451" y="588"/>
      <point x="429" y="566"/>
      <point x="401" y="566" type="curve" smooth="yes"/>
      <point x="373" y="566"/>
      <point x="351" y="588"/>
    </contour>
    <contour>
      <point x="301" y="48" type="curve" smooth="yes"/>
      <point x="325" y="48"/>
      <point x="342" y="53"/>
      <point x="354" y="61" type="curve" smooth="yes"/>
      <point x="372" y="73"/>
      <point x="385" y="95"/>
      <point x="392" y="127" type="curve"/>
      <point x="392" y="131" type="line"/>
      <point x="212" y="131" type="line"/>
      <point x="225" y="82"/>
      <point x="244" y="48"/>
    </contour>
    <contour>
      <point x="162" y="126" type="curve" smooth="yes"/>
      <point x="162" y="127"/>
      <point x="161" y="130"/>
      <point x="161" y="131" type="curve"/>
      <point x="101" y="131" type="line" smooth="yes"/>
      <point x="87" y="131"/>
      <point x="76" y="142"/>
      <point x="76" y="156" type="curve" smooth="yes"/>
      <point x="76" y="170"/>
      <point x="87" y="181"/>
      <point x="101" y="181" type="curve" smooth="yes"/>
      <point x="154" y="181" type="line"/>
      <point x="152" y="204"/>
      <point x="151" y="227"/>
      <point x="151" y="248" type="curve"/>
      <point x="101" y="248" type="line" smooth="yes"/>
      <point x="87" y="248"/>
      <point x="76" y="259"/>
      <point x="76" y="273" type="curve" smooth="yes"/>
      <point x="76" y="287"/>
      <point x="87" y="298"/>
      <point x="101" y="298" type="curve" smooth="yes"/>
      <point x="151" y="298" type="line"/>
      <point x="151" y="321"/>
      <point x="152" y="344"/>
      <point x="153" y="366" type="curve"/>
      <point x="101" y="366" type="line" smooth="yes"/>
      <point x="87" y="366"/>
      <point x="76" y="377"/>
      <point x="76" y="391" type="curve" smooth="yes"/>
      <point x="76" y="405"/>
      <point x="87" y="416"/>
      <point x="101" y="416" type="curve" smooth="yes"/>
      <point x="159" y="416" type="line"/>
      <point x="160" y="421"/>
      <point x="161" y="426"/>
      <point x="162" y="431" type="curve" smooth="yes"/>
      <point x="171" y="469"/>
      <point x="187" y="505"/>
      <point x="221" y="527" type="curve" smooth="yes"/>
      <point x="243" y="541"/>
      <point x="269" y="548"/>
      <point x="301" y="548" type="curve" smooth="yes"/>
      <point x="386" y="548"/>
      <point x="425" y="486"/>
      <point x="440" y="420" type="curve" smooth="yes"/>
      <point x="440" y="419"/>
      <point x="441" y="417"/>
      <point x="441" y="416" type="curve"/>
      <point x="501" y="416" type="line" smooth="yes"/>
      <point x="515" y="416"/>
      <point x="526" y="405"/>
      <point x="526" y="391" type="curve" smooth="yes"/>
      <point x="526" y="377"/>
      <point x="515" y="366"/>
      <point x="501" y="366" type="curve" smooth="yes"/>
      <point x="448" y="366" type="line"/>
      <point x="450" y="343"/>
      <point x="451" y="319"/>
      <point x="451" y="298" type="curve"/>
      <point x="501" y="298" type="line" smooth="yes"/>
      <point x="515" y="298"/>
      <point x="526" y="287"/>
      <point x="526" y="273" type="curve" smooth="yes"/>
      <point x="526" y="259"/>
      <point x="515" y="248"/>
      <point x="501" y="248" type="curve" smooth="yes"/>
      <point x="451" y="248" type="line"/>
      <point x="451" y="225"/>
      <point x="450" y="203"/>
      <point x="449" y="181" type="curve"/>
      <point x="501" y="181" type="line" smooth="yes"/>
      <point x="515" y="181"/>
      <point x="526" y="170"/>
      <point x="526" y="156" type="curve" smooth="yes"/>
      <point x="526" y="142"/>
      <point x="515" y="131"/>
      <point x="501" y="131" type="curve" smooth="yes"/>
      <point x="443" y="131" type="line"/>
      <point x="434" y="84"/>
      <point x="420" y="44"/>
      <point x="381" y="19" type="curve" smooth="yes"/>
      <point x="359" y="5"/>
      <point x="333" y="-2"/>
      <point x="301" y="-2" type="curve" smooth="yes"/>
      <point x="216" y="-2"/>
      <point x="177" y="60"/>
    </contour>
  </outline>
</glyph>
<glyph name="ala.sp" format="2">
  <advance width="580"/>
  <unicode hex="EE02"/>
  <outline>
    <contour>
      <point x="90" y="608" type="curve" smooth="yes"/>
      <point x="98" y="608"/>
      <point x="105" y="605"/>
      <point x="110" y="599" type="curve" smooth="yes"/>
      <point x="290" y="373" type="line"/>
      <point x="470" y="599" type="line" smooth="yes"/>
      <point x="475" y="605"/>
      <point x="482" y="608"/>
      <point x="490" y="608" type="curve" smooth="yes"/>
      <point x="504" y="608"/>
      <point x="515" y="597"/>
      <point x="515" y="583" type="curve" smooth="yes"/>
      <point x="515" y="577"/>
      <point x="513" y="571"/>
      <point x="510" y="567" type="curve" smooth="yes"/>
      <point x="322" y="333" type="line"/>
      <point x="510" y="99" type="line" smooth="yes"/>
      <point x="513" y="95"/>
      <point x="515" y="89"/>
      <point x="515" y="83" type="curve" smooth="yes"/>
      <point x="515" y="69"/>
      <point x="504" y="58"/>
      <point x="490" y="58" type="curve" smooth="yes"/>
      <point x="482" y="58"/>
      <point x="475" y="61"/>
      <point x="470" y="67" type="curve" smooth="yes"/>
      <point x="290" y="293" type="line"/>
      <point x="110" y="67" type="line" smooth="yes"/>
      <point x="105" y="61"/>
      <point x="98" y="58"/>
      <point x="90" y="58" type="curve" smooth="yes"/>
      <point x="76" y="58"/>
      <point x="65" y="69"/>
      <point x="65" y="83" type="curve" smooth="yes"/>
      <point x="65" y="89"/>
      <point x="67" y="95"/>
      <point x="70" y="99" type="curve" smooth="yes"/>
      <point x="258" y="333" type="line"/>
      <point x="70" y="567" type="line" smooth="yes"/>
      <point x="67" y="571"/>
      <point x="65" y="577"/>
      <point x="65" y="583" type="curve" smooth="yes"/>
      <point x="65" y="597"/>
      <point x="76" y="608"/>
    </contour>
  </outline>
</glyph>
<glyph name="alasa.sp" format="2">
  <advance width="765"/>
  <unicode hex="EE03"/>
  <outline>
    <contour>
      <point x="173" y="583" type="move"/>
    </contour>
    <contour>
      <point x="198" y="308" type="line"/>
      <point x="198" y="110" type="line"/>
      <point x="215" y="112"/>
      <point x="238" y="117"/>
      <point x="264" y="127" type="curve" smooth="yes"/>
      <point x="303" y="142"/>
      <point x="344" y="167"/>
      <point x="370" y="213" type="curve" smooth="yes"/>
      <point x="384" y="238"/>
      <point x="394" y="268"/>
      <point x="397" y="308" type="curve"/>
    </contour>
    <contour>
      <point x="397" y="358" type="line"/>
      <point x="394" y="398"/>
      <point x="384" y="428"/>
      <point x="370" y="453" type="curve" smooth="yes"/>
      <point x="344" y="499"/>
      <point x="303" y="524"/>
      <point x="264" y="539" type="curve" smooth="yes"/>
      <point x="238" y="549"/>
      <point x="215" y="554"/>
      <point x="198" y="556" type="curve"/>
      <point x="198" y="358" type="line"/>
    </contour>
    <contour>
      <point x="497" y="183" type="curve" smooth="yes"/>
      <point x="497" y="190"/>
      <point x="500" y="196"/>
      <point x="505" y="201" type="curve" smooth="yes"/>
      <point x="612" y="308" type="line"/>
      <point x="447" y="308" type="line"/>
      <point x="444" y="260"/>
      <point x="431" y="220"/>
      <point x="413" y="188" type="curve" smooth="yes"/>
      <point x="379" y="129"/>
      <point x="327" y="97"/>
      <point x="281" y="80" type="curve" smooth="yes"/>
      <point x="224" y="58"/>
      <point x="173" y="58"/>
      <point x="173" y="58" type="curve"/>
      <point x="148" y="58" type="line"/>
      <point x="148" y="308" type="line"/>
      <point x="89" y="308" type="line" smooth="yes"/>
      <point x="75" y="308"/>
      <point x="64" y="319"/>
      <point x="64" y="333" type="curve" smooth="yes"/>
      <point x="64" y="347"/>
      <point x="75" y="358"/>
      <point x="89" y="358" type="curve" smooth="yes"/>
      <point x="148" y="358" type="line"/>
      <point x="148" y="608" type="line"/>
      <point x="173" y="608" type="line" smooth="yes"/>
      <point x="175" y="608"/>
      <point x="222" y="608"/>
      <point x="281" y="586" type="curve" smooth="yes"/>
      <point x="327" y="569"/>
      <point x="379" y="537"/>
      <point x="413" y="478" type="curve" smooth="yes"/>
      <point x="431" y="446"/>
      <point x="444" y="406"/>
      <point x="447" y="358" type="curve"/>
      <point x="612" y="358" type="line"/>
      <point x="505" y="465" type="line" smooth="yes"/>
      <point x="500" y="470"/>
      <point x="497" y="476"/>
      <point x="497" y="483" type="curve" smooth="yes"/>
      <point x="497" y="497"/>
      <point x="508" y="508"/>
      <point x="522" y="508" type="curve" smooth="yes"/>
      <point x="529" y="508"/>
      <point x="535" y="506"/>
      <point x="540" y="501" type="curve" smooth="yes"/>
      <point x="690" y="351" type="line" smooth="yes"/>
      <point x="695" y="346"/>
      <point x="698" y="339"/>
      <point x="698" y="333" type="curve" smooth="yes"/>
      <point x="698" y="327"/>
      <point x="695" y="320"/>
      <point x="690" y="315" type="curve" smooth="yes"/>
      <point x="540" y="165" type="line" smooth="yes"/>
      <point x="535" y="160"/>
      <point x="529" y="158"/>
      <point x="522" y="158" type="curve" smooth="yes"/>
      <point x="508" y="158"/>
      <point x="497" y="169"/>
    </contour>
  </outline>
</glyph>
<glyph name="ale.sp" format="2">
  <advance width="811"/>
  <unicode hex="EE04"/>
  <outline>
    <contour>
      <point x="439" y="333" type="curve"/>
      <point x="471" y="298"/>
      <point x="544" y="238"/>
      <point x="605" y="238" type="curve" smooth="yes"/>
      <point x="652" y="238"/>
      <point x="680" y="278"/>
      <point x="680" y="333" type="curve" smooth="yes"/>
      <point x="680" y="387"/>
      <point x="652" y="428"/>
      <point x="605" y="428" type="curve" smooth="yes"/>
      <point x="544" y="428"/>
      <point x="471" y="368"/>
    </contour>
    <contour>
      <point x="205" y="238" type="curve" smooth="yes"/>
      <point x="266" y="238"/>
      <point x="339" y="298"/>
      <point x="371" y="333" type="curve"/>
      <point x="339" y="368"/>
      <point x="266" y="428"/>
      <point x="205" y="428" type="curve" smooth="yes"/>
      <point x="158" y="428"/>
      <point x="130" y="388"/>
      <point x="130" y="333" type="curve" smooth="yes"/>
      <point x="130" y="279"/>
      <point x="158" y="238"/>
    </contour>
    <contour>
      <point x="80" y="333" type="curve" smooth="yes"/>
      <point x="80" y="415"/>
      <point x="132" y="478"/>
      <point x="205" y="478" type="curve" smooth="yes"/>
      <point x="287" y="478"/>
      <point x="362" y="413"/>
      <point x="405" y="370" type="curve"/>
      <point x="448" y="413"/>
      <point x="523" y="478"/>
      <point x="605" y="478" type="curve" smooth="yes"/>
      <point x="678" y="478"/>
      <point x="730" y="415"/>
      <point x="730" y="333" type="curve" smooth="yes"/>
      <point x="730" y="251"/>
      <point x="678" y="188"/>
      <point x="605" y="188" type="curve" smooth="yes"/>
      <point x="523" y="188"/>
      <point x="448" y="253"/>
      <point x="405" y="296" type="curve"/>
      <point x="362" y="253"/>
      <point x="287" y="188"/>
      <point x="205" y="188" type="curve" smooth="yes"/>
      <point x="132" y="188"/>
      <point x="80" y="251"/>
    </contour>
  </outline>
</glyph>
<glyph name="anpa.sp" format="2">
  <advance width="732"/>
  <unicode hex="EE05"/>
  <outline>
    <contour>
      <point x="416" y="90" type="move" smooth="yes"/>
    </contour>
    <contour>
      <point x="591" y="284" type="line"/>
      <point x="591" y="509" type="line" smooth="yes"/>
      <point x="591" y="523"/>
      <point x="602" y="534"/>
      <point x="616" y="534" type="curve" smooth="yes"/>
      <point x="630" y="534"/>
      <point x="641" y="523"/>
      <point x="641" y="509" type="curve" smooth="yes"/>
      <point x="641" y="259" type="line" smooth="yes"/>
      <point x="641" y="245"/>
      <point x="630" y="234"/>
      <point x="616" y="234" type="curve" smooth="yes"/>
      <point x="116" y="234" type="line" smooth="yes"/>
      <point x="102" y="234"/>
      <point x="91" y="245"/>
      <point x="91" y="259" type="curve" smooth="yes"/>
      <point x="91" y="509" type="line" smooth="yes"/>
      <point x="91" y="523"/>
      <point x="102" y="534"/>
      <point x="116" y="534" type="curve" smooth="yes"/>
      <point x="130" y="534"/>
      <point x="141" y="523"/>
      <point x="141" y="509" type="curve" smooth="yes"/>
      <point x="141" y="284" type="line"/>
    </contour>
    <contour>
      <point x="416" y="90" type="curve" smooth="yes"/>
      <point x="416" y="62"/>
      <point x="394" y="40"/>
      <point x="366" y="40" type="curve" smooth="yes"/>
      <point x="338" y="40"/>
      <point x="316" y="62"/>
      <point x="316" y="90" type="curve" smooth="yes"/>
      <point x="316" y="118"/>
      <point x="338" y="140"/>
      <point x="366" y="140" type="curve" smooth="yes"/>
      <point x="394" y="140"/>
      <point x="416" y="118"/>
    </contour>
  </outline>
</glyph>
<glyph name="ante.sp" format="2">
  <advance width="681"/>
  <unicode hex="EE06"/>
  <outline>
    <contour>
      <point x="66" y="83" type="curve" smooth="yes"/>
      <point x="66" y="91"/>
      <point x="70" y="98"/>
      <point x="76" y="103" type="curve" smooth="yes"/>
      <point x="326" y="291" type="line" smooth="yes"/>
      <point x="330" y="294"/>
      <point x="336" y="296"/>
      <point x="341" y="296" type="curve" smooth="yes"/>
      <point x="346" y="296"/>
      <point x="352" y="294"/>
      <point x="356" y="291" type="curve" smooth="yes"/>
      <point x="606" y="103" type="line" smooth="yes"/>
      <point x="612" y="98"/>
      <point x="616" y="91"/>
      <point x="616" y="83" type="curve" smooth="yes"/>
      <point x="616" y="69"/>
      <point x="605" y="58"/>
      <point x="591" y="58" type="curve" smooth="yes"/>
      <point x="585" y="58"/>
      <point x="580" y="60"/>
      <point x="576" y="63" type="curve" smooth="yes"/>
      <point x="341" y="239" type="line"/>
      <point x="106" y="63" type="line" smooth="yes"/>
      <point x="102" y="60"/>
      <point x="97" y="58"/>
      <point x="91" y="58" type="curve" smooth="yes"/>
      <point x="77" y="58"/>
      <point x="66" y="69"/>
    </contour>
    <contour>
      <point x="91" y="608" type="curve" smooth="yes"/>
      <point x="97" y="608"/>
      <point x="102" y="606"/>
      <point x="106" y="603" type="curve" smooth="yes"/>
      <point x="341" y="427" type="line"/>
      <point x="576" y="603" type="line" smooth="yes"/>
      <point x="580" y="606"/>
      <point x="585" y="608"/>
      <point x="591" y="608" type="curve" smooth="yes"/>
      <point x="605" y="608"/>
      <point x="616" y="597"/>
      <point x="616" y="583" type="curve" smooth="yes"/>
      <point x="616" y="575"/>
      <point x="612" y="568"/>
      <point x="606" y="563" type="curve" smooth="yes"/>
      <point x="356" y="375" type="line" smooth="yes"/>
      <point x="352" y="372"/>
      <point x="346" y="370"/>
      <point x="341" y="370" type="curve" smooth="yes"/>
      <point x="336" y="370"/>
      <point x="330" y="372"/>
      <point x="326" y="375" type="curve" smooth="yes"/>
      <point x="76" y="563" type="line" smooth="yes"/>
      <point x="70" y="568"/>
      <point x="66" y="575"/>
      <point x="66" y="583" type="curve" smooth="yes"/>
      <point x="66" y="597"/>
      <point x="77" y="608"/>
    </contour>
  </outline>
</glyph>
<glyph name="anu.sp" format="2">
  <advance width="666"/>
  <unicode hex="EE07"/>
  <outline>
    <contour>
      <point x="84" y="608" type="curve" smooth="yes"/>
      <point x="91" y="608"/>
      <point x="97" y="606"/>
      <point x="102" y="601" type="curve" smooth="yes"/>
      <point x="334" y="368" type="line"/>
      <point x="566" y="601" type="line" smooth="yes"/>
      <point x="571" y="606"/>
      <point x="577" y="608"/>
      <point x="584" y="608" type="curve" smooth="yes"/>
      <point x="598" y="608"/>
      <point x="609" y="597"/>
      <point x="609" y="583" type="curve" smooth="yes"/>
      <point x="609" y="576"/>
      <point x="607" y="570"/>
      <point x="602" y="565" type="curve" smooth="yes"/>
      <point x="359" y="323" type="line"/>
      <point x="359" y="83" type="line" smooth="yes"/>
      <point x="359" y="69"/>
      <point x="348" y="58"/>
      <point x="334" y="58" type="curve" smooth="yes"/>
      <point x="320" y="58"/>
      <point x="309" y="69"/>
      <point x="309" y="83" type="curve" smooth="yes"/>
      <point x="309" y="323" type="line"/>
      <point x="66" y="565" type="line" smooth="yes"/>
      <point x="61" y="570"/>
      <point x="59" y="576"/>
      <point x="59" y="583" type="curve" smooth="yes"/>
      <point x="59" y="597"/>
      <point x="70" y="608"/>
    </contour>
  </outline>
</glyph>
<glyph name="awen.sp" format="2">
  <advance width="777"/>
  <unicode hex="EE08"/>
  <outline>
    <contour>
      <point x="544" y="58" type="line" smooth="yes"/>
      <point x="533" y="58"/>
      <point x="524" y="65"/>
      <point x="521" y="75" type="curve" smooth="yes"/>
      <point x="388" y="504" type="line"/>
      <point x="255" y="75" type="line" smooth="yes"/>
      <point x="252" y="65"/>
      <point x="242" y="58"/>
      <point x="231" y="58" type="curve" smooth="yes"/>
      <point x="81" y="58" type="line" smooth="yes"/>
      <point x="67" y="58"/>
      <point x="56" y="69"/>
      <point x="56" y="83" type="curve" smooth="yes"/>
      <point x="56" y="97"/>
      <point x="67" y="108"/>
      <point x="81" y="108" type="curve" smooth="yes"/>
      <point x="213" y="108" type="line"/>
      <point x="364" y="590" type="line" smooth="yes"/>
      <point x="367" y="600"/>
      <point x="377" y="607"/>
      <point x="388" y="607" type="curve" smooth="yes"/>
      <point x="399" y="607"/>
      <point x="408" y="600"/>
      <point x="411" y="590" type="curve" smooth="yes"/>
      <point x="562" y="108" type="line"/>
      <point x="694" y="108" type="line" smooth="yes"/>
      <point x="708" y="108"/>
      <point x="719" y="97"/>
      <point x="719" y="83" type="curve" smooth="yes"/>
      <point x="719" y="69"/>
      <point x="708" y="58"/>
      <point x="694" y="58" type="curve" smooth="yes"/>
    </contour>
  </outline>
</glyph>
<glyph name="e.sp" format="2">
  <advance width="631"/>
  <unicode hex="EE09"/>
  <outline>
    <contour>
      <point x="351" y="608" type="curve" smooth="yes"/>
      <point x="359" y="608"/>
      <point x="366" y="605"/>
      <point x="371" y="599" type="curve" smooth="yes"/>
      <point x="571" y="349" type="line" smooth="yes"/>
      <point x="575" y="345"/>
      <point x="576" y="339"/>
      <point x="576" y="333" type="curve" smooth="yes"/>
      <point x="576" y="327"/>
      <point x="575" y="321"/>
      <point x="571" y="317" type="curve" smooth="yes"/>
      <point x="371" y="67" type="line" smooth="yes"/>
      <point x="366" y="61"/>
      <point x="359" y="58"/>
      <point x="351" y="58" type="curve" smooth="yes"/>
      <point x="337" y="58"/>
      <point x="326" y="69"/>
      <point x="326" y="83" type="curve" smooth="yes"/>
      <point x="326" y="89"/>
      <point x="328" y="95"/>
      <point x="331" y="99" type="curve" smooth="yes"/>
      <point x="519" y="333" type="line"/>
      <point x="331" y="567" type="line" smooth="yes"/>
      <point x="328" y="571"/>
      <point x="326" y="577"/>
      <point x="326" y="583" type="curve" smooth="yes"/>
      <point x="326" y="597"/>
      <point x="337" y="608"/>
    </contour>
    <contour>
      <point x="101" y="608" type="curve" smooth="yes"/>
      <point x="109" y="608"/>
      <point x="116" y="605"/>
      <point x="121" y="599" type="curve" smooth="yes"/>
      <point x="321" y="349" type="line" smooth="yes"/>
      <point x="325" y="345"/>
      <point x="326" y="339"/>
      <point x="326" y="333" type="curve" smooth="yes"/>
      <point x="326" y="327"/>
      <point x="325" y="321"/>
      <point x="321" y="317" type="curve" smooth="yes"/>
      <point x="121" y="67" type="line" smooth="yes"/>
      <point x="116" y="61"/>
      <point x="109" y="58"/>
      <point x="101" y="58" type="curve" smooth="yes"/>
      <point x="87" y="58"/>
      <point x="76" y="69"/>
      <point x="76" y="83" type="curve" smooth="yes"/>
      <point x="76" y="89"/>
      <point x="78" y="95"/>
      <point x="81" y="99" type="curve" smooth="yes"/>
      <point x="269" y="333" type="line"/>
      <point x="81" y="567" type="line" smooth="yes"/>
      <point x="78" y="571"/>
      <point x="76" y="577"/>
      <point x="76" y="583" type="curve" smooth="yes"/>
      <point x="76" y="597"/>
      <point x="87" y="608"/>
    </contour>
  </outline>
</glyph>
<glyph name="en.sp" format="2">
  <advance width="691"/>
  <unicode hex="EE0A"/>
  <outline>
    <contour>
      <point x="121" y="358" type="curve" smooth="yes"/>
      <point x="321" y="358" type="line"/>
      <point x="321" y="558" type="line" smooth="yes"/>
      <point x="321" y="572"/>
      <point x="332" y="583"/>
      <point x="346" y="583" type="curve" smooth="yes"/>
      <point x="360" y="583"/>
      <point x="371" y="572"/>
      <point x="371" y="558" type="curve" smooth="yes"/>
      <point x="371" y="358" type="line"/>
      <point x="571" y="358" type="line" smooth="yes"/>
      <point x="585" y="358"/>
      <point x="596" y="347"/>
      <point x="596" y="333" type="curve" smooth="yes"/>
      <point x="596" y="319"/>
      <point x="585" y="308"/>
      <point x="571" y="308" type="curve" smooth="yes"/>
      <point x="371" y="308" type="line"/>
      <point x="371" y="108" type="line" smooth="yes"/>
      <point x="371" y="94"/>
      <point x="360" y="83"/>
      <point x="346" y="83" type="curve" smooth="yes"/>
      <point x="332" y="83"/>
      <point x="321" y="94"/>
      <point x="321" y="108" type="curve" smooth="yes"/>
      <point x="321" y="308" type="line"/>
      <point x="121" y="308" type="line" smooth="yes"/>
      <point x="107" y="308"/>
      <point x="96" y="319"/>
      <point x="96" y="333" type="curve" smooth="yes"/>
      <point x="96" y="347"/>
      <point x="107" y="358"/>
    </contour>
  </outline>
</glyph>
<glyph name="esun.sp" format="2">
  <advance width="672"/>
  <unicode hex="EE0B"/>
  <outline>
    <contour>
      <point x="313" y="237" type="curve" smooth="yes"/>
      <point x="313" y="253" type="line"/>
      <point x="290" y="261"/>
      <point x="253" y="265"/>
      <point x="215" y="265" type="curve" smooth="yes"/>
      <point x="166" y="265"/>
      <point x="123" y="229"/>
      <point x="123" y="180" type="curve" smooth="yes"/>
      <point x="123" y="135"/>
      <point x="152" y="90"/>
      <point x="196" y="90" type="curve" smooth="yes"/>
      <point x="269" y="90"/>
      <point x="313" y="164"/>
    </contour>
    <contour>
      <point x="357" y="430" type="curve" smooth="yes"/>
      <point x="357" y="414" type="line"/>
      <point x="375" y="408"/>
      <point x="396" y="400"/>
      <point x="455" y="400" type="curve" smooth="yes"/>
      <point x="505" y="400"/>
      <point x="548" y="423"/>
      <point x="548" y="486" type="curve" smooth="yes"/>
      <point x="548" y="532"/>
      <point x="518" y="576"/>
      <point x="472" y="576" type="curve" smooth="yes"/>
      <point x="400" y="576"/>
      <point x="357" y="487"/>
    </contour>
    <contour>
      <point x="550" y="159" type="curve" smooth="yes"/>
      <point x="536" y="159"/>
      <point x="437" y="216"/>
      <point x="362" y="237" type="curve"/>
      <point x="359" y="202"/>
      <point x="350" y="172"/>
      <point x="339" y="146" type="curve" smooth="yes"/>
      <point x="309" y="76"/>
      <point x="253" y="40"/>
      <point x="197" y="40" type="curve" smooth="yes"/>
      <point x="124" y="40"/>
      <point x="72" y="100"/>
      <point x="72" y="180" type="curve" smooth="yes"/>
      <point x="72" y="271"/>
      <point x="125" y="315"/>
      <point x="215" y="315" type="curve" smooth="yes"/>
      <point x="246" y="315"/>
      <point x="280" y="311"/>
      <point x="313" y="303" type="curve"/>
      <point x="312" y="312"/>
      <point x="311" y="321"/>
      <point x="310" y="330" type="curve" smooth="yes"/>
      <point x="308" y="347"/>
      <point x="307" y="363"/>
      <point x="307" y="378" type="curve"/>
      <point x="287" y="384"/>
      <point x="267" y="390"/>
      <point x="248" y="397" type="curve" smooth="yes"/>
      <point x="167" y="427"/>
      <point x="104" y="461"/>
      <point x="103" y="461" type="curve" smooth="yes"/>
      <point x="95" y="465"/>
      <point x="90" y="473"/>
      <point x="90" y="483" type="curve" smooth="yes"/>
      <point x="90" y="497"/>
      <point x="102" y="509"/>
      <point x="115" y="509" type="curve" smooth="yes"/>
      <point x="119" y="509"/>
      <point x="122" y="508"/>
      <point x="126" y="506" type="curve" smooth="yes"/>
      <point x="126" y="506"/>
      <point x="188" y="473"/>
      <point x="266" y="444" type="curve" smooth="yes"/>
      <point x="280" y="439"/>
      <point x="294" y="435"/>
      <point x="308" y="430" type="curve"/>
      <point x="311" y="464"/>
      <point x="320" y="494"/>
      <point x="331" y="520" type="curve" smooth="yes"/>
      <point x="361" y="590"/>
      <point x="417" y="626"/>
      <point x="473" y="626" type="curve" smooth="yes"/>
      <point x="546" y="626"/>
      <point x="598" y="566"/>
      <point x="598" y="486" type="curve" smooth="yes"/>
      <point x="598" y="395"/>
      <point x="543" y="351"/>
      <point x="455" y="351" type="curve" smooth="yes"/>
      <point x="424" y="351"/>
      <point x="390" y="356"/>
      <point x="357" y="364" type="curve"/>
      <point x="360" y="341"/>
      <point x="363" y="313"/>
      <point x="363" y="289" type="curve"/>
      <point x="382" y="283"/>
      <point x="401" y="277"/>
      <point x="419" y="270" type="curve" smooth="yes"/>
      <point x="499" y="240"/>
      <point x="561" y="207"/>
      <point x="562" y="207" type="curve" smooth="yes"/>
      <point x="570" y="203"/>
      <point x="575" y="194"/>
      <point x="575" y="184" type="curve" smooth="yes"/>
      <point x="575" y="170"/>
      <point x="563" y="159"/>
    </contour>
  </outline>
</glyph>
<glyph name="ijo.sp" format="2">
  <advance width="709"/>
  <unicode hex="EE0C"/>
  <outline>
    <contour>
      <point x="579" y="333" type="curve" smooth="yes"/>
      <point x="579" y="457"/>
      <point x="478" y="558"/>
      <point x="354" y="558" type="curve" smooth="yes"/>
      <point x="230" y="558"/>
      <point x="129" y="457"/>
      <point x="129" y="333" type="curve" smooth="yes"/>
      <point x="129" y="209"/>
      <point x="230" y="108"/>
      <point x="354" y="108" type="curve" smooth="yes"/>
      <point x="478" y="108"/>
      <point x="579" y="209"/>
    </contour>
    <contour>
      <point x="629" y="333" type="curve" smooth="yes"/>
      <point x="629" y="181"/>
      <point x="506" y="58"/>
      <point x="354" y="58" type="curve" smooth="yes"/>
      <point x="202" y="58"/>
      <point x="79" y="181"/>
      <point x="79" y="333" type="curve" smooth="yes"/>
      <point x="79" y="485"/>
      <point x="202" y="608"/>
      <point x="354" y="608" type="curve" smooth="yes"/>
      <point x="506" y="608"/>
      <point x="629" y="485"/>
    </contour>
  </outline>
</glyph>
<glyph name="ike.sp" format="2">
  <advance width="697"/>
  <unicode hex="EE0D"/>
  <outline>
    <contour>
      <point x="73" y="227" type="curve"/>
      <point x="73" y="227"/>
      <point x="101" y="464"/>
      <point x="348" y="464" type="curve" smooth="yes"/>
      <point x="595" y="464"/>
      <point x="623" y="227"/>
      <point x="623" y="227" type="curve"/>
      <point x="623" y="226"/>
      <point x="623" y="225"/>
      <point x="623" y="224" type="curve" smooth="yes"/>
      <point x="623" y="210"/>
      <point x="611" y="199"/>
      <point x="598" y="199" type="curve" smooth="yes"/>
      <point x="585" y="199"/>
      <point x="574" y="209"/>
      <point x="573" y="221" type="curve"/>
      <point x="573" y="221"/>
      <point x="552" y="414"/>
      <point x="348" y="414" type="curve" smooth="yes"/>
      <point x="144" y="414"/>
      <point x="123" y="221"/>
      <point x="123" y="221" type="curve"/>
      <point x="122" y="209"/>
      <point x="111" y="199"/>
      <point x="98" y="199" type="curve" smooth="yes"/>
      <point x="85" y="199"/>
      <point x="73" y="210"/>
      <point x="73" y="224" type="curve" smooth="yes"/>
      <point x="73" y="225"/>
      <point x="73" y="226"/>
    </contour>
  </outline>
</glyph>
<glyph name="ilo.sp" format="2">
  <advance width="727"/>
  <unicode hex="EE0E"/>
  <outline>
    <contour>
      <point x="388" y="308" type="line"/>
      <point x="388" y="83" type="line" smooth="yes"/>
      <point x="388" y="69"/>
      <point x="377" y="58"/>
      <point x="363" y="58" type="curve" smooth="yes"/>
      <point x="349" y="58"/>
      <point x="338" y="69"/>
      <point x="338" y="83" type="curve" smooth="yes"/>
      <point x="338" y="308" type="line"/>
      <point x="113" y="308" type="line" smooth="yes"/>
      <point x="99" y="308"/>
      <point x="88" y="319"/>
      <point x="88" y="333" type="curve" smooth="yes"/>
      <point x="88" y="583" type="line" smooth="yes"/>
      <point x="88" y="597"/>
      <point x="99" y="608"/>
      <point x="113" y="608" type="curve" smooth="yes"/>
      <point x="613" y="608" type="line" smooth="yes"/>
      <point x="627" y="608"/>
      <point x="638" y="597"/>
      <point x="638" y="583" type="curve" smooth="yes"/>
      <point x="638" y="333" type="line" smooth="yes"/>
      <point x="638" y="319"/>
      <point x="627" y="308"/>
      <point x="613" y="308" type="curve" smooth="yes"/>
    </contour>
    <contour>
      <point x="138" y="358" type="line"/>
      <point x="338" y="358" type="line"/>
      <point x="338" y="558" type="line"/>
      <point x="138" y="558" type="line"/>
    </contour>
    <contour>
      <point x="388" y="558" type="line"/>
      <point x="388" y="358" type="line"/>
      <point x="588" y="358" type="line"/>
      <point x="588" y="558" type="line"/>
    </contour>
  </outline>
</glyph>
<glyph name="insa.sp" format="2">
  <advance width="732"/>
  <unicode hex="EE0F"/>
  <outline>
    <contour>
      <point x="415" y="333" type="move" smooth="yes"/>
    </contour>
    <contour>
      <point x="590" y="208" type="line"/>
      <point x="590" y="433" type="line" smooth="yes"/>
      <point x="590" y="447"/>
      <point x="601" y="458"/>
      <point x="615" y="458" type="curve" smooth="yes"/>
      <point x="629" y="458"/>
      <point x="640" y="447"/>
      <point x="640" y="433" type="curve" smooth="yes"/>
      <point x="640" y="183" type="line" smooth="yes"/>
      <point x="640" y="169"/>
      <point x="629" y="158"/>
      <point x="615" y="158" type="curve" smooth="yes"/>
      <point x="115" y="158" type="line" smooth="yes"/>
      <point x="101" y="158"/>
      <point x="90" y="169"/>
      <point x="90" y="183" type="curve" smooth="yes"/>
      <point x="90" y="433" type="line" smooth="yes"/>
      <point x="90" y="447"/>
      <point x="101" y="458"/>
      <point x="115" y="458" type="curve" smooth="yes"/>
      <point x="129" y="458"/>
      <point x="140" y="447"/>
      <point x="140" y="433" type="curve" smooth="yes"/>
      <point x="140" y="208" type="line"/>
    </contour>
    <contour>
      <point x="415" y="333" type="curve" smooth="yes"/>
      <point x="415" y="305"/>
      <point x="393" y="283"/>
      <point x="365" y="283" type="curve" smooth="yes"/>
      <point x="337" y="283"/>
      <point x="315" y="305"/>
      <point x="315" y="333" type="curve" smooth="yes"/>
      <point x="315" y="361"/>
      <point x="337" y="383"/>
      <point x="365" y="383" type="curve" smooth="yes"/>
      <point x="393" y="383"/>
      <point x="415" y="361"/>
    </contour>
  </outline>
</glyph>
<glyph name="jaki.sp" format="2">
  <advance width="745"/>
  <unicode hex="EE10"/>
  <outline>
    <contour>
      <point x="407" y="359" type="curve"/>
      <point x="421" y="324"/>
      <point x="430" y="291"/>
      <point x="430" y="258" type="curve" smooth="yes"/>
      <point x="430" y="210"/>
      <point x="409" y="168"/>
      <point x="379" y="135" type="curve"/>
      <point x="425" y="108"/>
      <point x="471" y="95"/>
      <point x="511" y="95" type="curve" smooth="yes"/>
      <point x="554" y="95"/>
      <point x="590" y="110"/>
      <point x="614" y="139" type="curve" smooth="yes"/>
      <point x="623" y="149"/>
      <point x="627" y="161"/>
      <point x="627" y="175" type="curve" smooth="yes"/>
      <point x="627" y="205"/>
      <point x="606" y="246"/>
      <point x="568" y="282" type="curve" smooth="yes"/>
      <point x="527" y="320"/>
      <point x="470" y="351"/>
    </contour>
    <contour>
      <point x="583" y="509" type="curve" smooth="yes"/>
      <point x="583" y="518"/>
      <point x="580" y="525"/>
      <point x="573" y="532" type="curve" smooth="yes"/>
      <point x="552" y="553"/>
      <point x="509" y="561"/>
      <point x="458" y="561" type="curve" smooth="yes"/>
      <point x="412" y="561"/>
      <point x="364" y="545"/>
      <point x="323" y="520" type="curve"/>
      <point x="345" y="486"/>
      <point x="366" y="448"/>
      <point x="384" y="411" type="curve"/>
      <point x="411" y="410"/>
      <point x="438" y="405"/>
      <point x="463" y="398" type="curve" smooth="yes"/>
      <point x="466" y="399"/>
      <point x="477" y="400"/>
      <point x="503" y="414" type="curve" smooth="yes"/>
      <point x="528" y="428"/>
      <point x="583" y="469"/>
    </contour>
    <contour>
      <point x="297" y="131" type="curve"/>
      <point x="252" y="169"/>
      <point x="199" y="222"/>
      <point x="177" y="284" type="curve"/>
      <point x="132" y="247"/>
      <point x="116" y="209"/>
      <point x="116" y="179" type="curve" smooth="yes"/>
      <point x="116" y="137"/>
      <point x="145" y="98"/>
      <point x="194" y="98" type="curve" smooth="yes"/>
      <point x="225" y="98"/>
      <point x="263" y="110"/>
    </contour>
    <contour>
      <point x="165" y="353" type="line" smooth="yes"/>
      <point x="165" y="429"/>
      <point x="209" y="491"/>
      <point x="255" y="532" type="curve"/>
      <point x="218" y="587"/>
      <point x="188" y="626"/>
      <point x="188" y="626" type="curve" smooth="yes"/>
      <point x="185" y="630"/>
      <point x="183" y="635"/>
      <point x="183" y="641" type="curve" smooth="yes"/>
      <point x="183" y="655"/>
      <point x="194" y="666"/>
      <point x="208" y="666" type="curve" smooth="yes"/>
      <point x="216" y="666"/>
      <point x="222" y="663"/>
      <point x="227" y="657" type="curve" smooth="yes"/>
      <point x="227" y="657"/>
      <point x="258" y="618"/>
      <point x="295" y="562" type="curve"/>
      <point x="344" y="592"/>
      <point x="400" y="610"/>
      <point x="457" y="610" type="curve" smooth="yes"/>
      <point x="462" y="610" type="line"/>
      <point x="527" y="608"/>
      <point x="578" y="598"/>
      <point x="609" y="567" type="curve" smooth="yes"/>
      <point x="626" y="550"/>
      <point x="633" y="530"/>
      <point x="633" y="509" type="curve" smooth="yes"/>
      <point x="633" y="445"/>
      <point x="568" y="392"/>
      <point x="529" y="371" type="curve"/>
      <point x="596" y="335"/>
      <point x="677" y="257"/>
      <point x="677" y="175" type="curve" smooth="yes"/>
      <point x="677" y="90"/>
      <point x="585" y="45"/>
      <point x="511" y="45" type="curve" smooth="yes"/>
      <point x="456" y="45"/>
      <point x="397" y="64"/>
      <point x="340" y="100" type="curve"/>
      <point x="296" y="67"/>
      <point x="242" y="48"/>
      <point x="194" y="48" type="curve" smooth="yes"/>
      <point x="118" y="48"/>
      <point x="66" y="109"/>
      <point x="66" y="179" type="curve" smooth="yes"/>
      <point x="66" y="233"/>
      <point x="97" y="289"/>
      <point x="165" y="337" type="curve"/>
    </contour>
    <contour>
      <point x="215" y="367" type="curve"/>
      <point x="247" y="383"/>
      <point x="289" y="402"/>
      <point x="330" y="408" type="curve"/>
      <point x="316" y="436"/>
      <point x="299" y="464"/>
      <point x="283" y="490" type="curve"/>
      <point x="251" y="461"/>
      <point x="220" y="415"/>
    </contour>
    <contour>
      <point x="352" y="360" type="curve"/>
      <point x="303" y="356"/>
      <point x="253" y="332"/>
      <point x="220" y="313" type="curve"/>
      <point x="225" y="294"/>
      <point x="235" y="274"/>
      <point x="250" y="254" type="curve" smooth="yes"/>
      <point x="276" y="218"/>
      <point x="306" y="188"/>
      <point x="337" y="164" type="curve"/>
      <point x="363" y="191"/>
      <point x="380" y="222"/>
      <point x="380" y="257" type="curve" smooth="yes"/>
      <point x="380" y="285"/>
      <point x="367" y="330"/>
    </contour>
  </outline>
</glyph>
<glyph name="jan.sp" format="2">
  <advance width="667"/>
  <unicode hex="EE11"/>
  <outline>
    <contour>
      <point x="508" y="392" type="curve" smooth="yes"/>
      <point x="508" y="489"/>
      <point x="430" y="566"/>
      <point x="333" y="566" type="curve" smooth="yes"/>
      <point x="236" y="566"/>
      <point x="158" y="489"/>
      <point x="158" y="392" type="curve" smooth="yes"/>
      <point x="158" y="295"/>
      <point x="236" y="216"/>
      <point x="333" y="216" type="curve" smooth="yes"/>
      <point x="430" y="216"/>
      <point x="508" y="295"/>
    </contour>
    <contour>
      <point x="62" y="97" type="curve" smooth="yes"/>
      <point x="162" y="246" type="line"/>
      <point x="129" y="285"/>
      <point x="108" y="336"/>
      <point x="108" y="392" type="curve" smooth="yes"/>
      <point x="108" y="516"/>
      <point x="209" y="616"/>
      <point x="333" y="616" type="curve" smooth="yes"/>
      <point x="457" y="616"/>
      <point x="558" y="516"/>
      <point x="558" y="392" type="curve" smooth="yes"/>
      <point x="558" y="336"/>
      <point x="537" y="285"/>
      <point x="504" y="246" type="curve"/>
      <point x="604" y="97" type="line" smooth="yes"/>
      <point x="607" y="93"/>
      <point x="608" y="89"/>
      <point x="608" y="84" type="curve" smooth="yes"/>
      <point x="608" y="71"/>
      <point x="597" y="58"/>
      <point x="583" y="58" type="curve" smooth="yes"/>
      <point x="574" y="58"/>
      <point x="566" y="62"/>
      <point x="562" y="69" type="curve" smooth="yes"/>
      <point x="468" y="211" type="line"/>
      <point x="430" y="183"/>
      <point x="383" y="166"/>
      <point x="333" y="166" type="curve" smooth="yes"/>
      <point x="283" y="166"/>
      <point x="236" y="183"/>
      <point x="198" y="211" type="curve"/>
      <point x="104" y="69" type="line" smooth="yes"/>
      <point x="100" y="62"/>
      <point x="92" y="58"/>
      <point x="83" y="58" type="curve" smooth="yes"/>
      <point x="69" y="58"/>
      <point x="58" y="71"/>
      <point x="58" y="84" type="curve" smooth="yes"/>
      <point x="58" y="89"/>
      <point x="59" y="93"/>
    </contour>
  </outline>
</glyph>
<glyph name="jelo.sp" format="2">
  <advance width="573"/>
  <unicode hex="EE12"/>
  <outline>
    <contour>
      <point x="386" y="433" type="move"/>
    </contour>
    <contour>
      <point x="185" y="76" type="line"/>
      <point x="387" y="76" type="line"/>
      <point x="286" y="214" type="line"/>
    </contour>
    <contour>
      <point x="361" y="433" type="curve" smooth="yes"/>
      <point x="361" y="474"/>
      <point x="327" y="508"/>
      <point x="286" y="508" type="curve" smooth="yes"/>
      <point x="245" y="508"/>
      <point x="211" y="474"/>
      <point x="211" y="433" type="curve" smooth="yes"/>
      <point x="211" y="392"/>
      <point x="245" y="358"/>
      <point x="286" y="358" type="curve" smooth="yes"/>
      <point x="327" y="358"/>
      <point x="361" y="392"/>
    </contour>
    <contour>
      <point x="311" y="641" type="curve" smooth="yes"/>
      <point x="311" y="555" type="line"/>
      <point x="360" y="545"/>
      <point x="398" y="507"/>
      <point x="408" y="458" type="curve"/>
      <point x="486" y="458" type="line" smooth="yes"/>
      <point x="500" y="458"/>
      <point x="511" y="447"/>
      <point x="511" y="433" type="curve" smooth="yes"/>
      <point x="511" y="419"/>
      <point x="500" y="408"/>
      <point x="486" y="408" type="curve" smooth="yes"/>
      <point x="408" y="408" type="line"/>
      <point x="398" y="359"/>
      <point x="360" y="321"/>
      <point x="311" y="311" type="curve"/>
      <point x="311" y="266" type="line"/>
      <point x="456" y="66" type="line" smooth="yes"/>
      <point x="459" y="62"/>
      <point x="461" y="56"/>
      <point x="461" y="51" type="curve" smooth="yes"/>
      <point x="461" y="37"/>
      <point x="450" y="26"/>
      <point x="436" y="26" type="curve" smooth="yes"/>
      <point x="136" y="26" type="line" smooth="yes"/>
      <point x="122" y="26"/>
      <point x="111" y="37"/>
      <point x="111" y="51" type="curve" smooth="yes"/>
      <point x="111" y="56"/>
      <point x="113" y="62"/>
      <point x="116" y="66" type="curve" smooth="yes"/>
      <point x="261" y="266" type="line"/>
      <point x="261" y="311" type="line"/>
      <point x="212" y="321"/>
      <point x="174" y="359"/>
      <point x="164" y="408" type="curve"/>
      <point x="86" y="408" type="line" smooth="yes"/>
      <point x="72" y="408"/>
      <point x="61" y="419"/>
      <point x="61" y="433" type="curve" smooth="yes"/>
      <point x="61" y="447"/>
      <point x="72" y="458"/>
      <point x="86" y="458" type="curve" smooth="yes"/>
      <point x="164" y="458" type="line"/>
      <point x="174" y="507"/>
      <point x="212" y="545"/>
      <point x="261" y="555" type="curve"/>
      <point x="261" y="641" type="line" smooth="yes"/>
      <point x="261" y="655"/>
      <point x="272" y="666"/>
      <point x="286" y="666" type="curve" smooth="yes"/>
      <point x="300" y="666"/>
      <point x="311" y="655"/>
    </contour>
  </outline>
</glyph>
<glyph name="jo.sp" format="2">
  <advance width="520"/>
  <unicode hex="EE13"/>
  <outline>
    <contour>
      <point x="357" y="483" type="move"/>
    </contour>
    <contour>
      <point x="332" y="483" type="curve" smooth="yes"/>
      <point x="332" y="524"/>
      <point x="298" y="558"/>
      <point x="257" y="558" type="curve" smooth="yes"/>
      <point x="216" y="558"/>
      <point x="182" y="524"/>
      <point x="182" y="483" type="curve" smooth="yes"/>
      <point x="182" y="442"/>
      <point x="216" y="408"/>
      <point x="257" y="408" type="curve" smooth="yes"/>
      <point x="298" y="408"/>
      <point x="332" y="442"/>
    </contour>
    <contour>
      <point x="264" y="58" type="line" smooth="yes"/>
      <point x="142" y="58"/>
      <point x="77" y="130"/>
      <point x="77" y="247" type="curve" smooth="yes"/>
      <point x="77" y="322"/>
      <point x="105" y="369"/>
      <point x="140" y="410" type="curve"/>
      <point x="149" y="420" type="line"/>
      <point x="138" y="439"/>
      <point x="132" y="460"/>
      <point x="132" y="483" type="curve" smooth="yes"/>
      <point x="132" y="552"/>
      <point x="188" y="608"/>
      <point x="257" y="608" type="curve" smooth="yes"/>
      <point x="326" y="608"/>
      <point x="382" y="552"/>
      <point x="382" y="483" type="curve" smooth="yes"/>
      <point x="382" y="414"/>
      <point x="326" y="358"/>
      <point x="257" y="358" type="curve" smooth="yes"/>
      <point x="229" y="358"/>
      <point x="204" y="367"/>
      <point x="183" y="382" type="curve"/>
      <point x="152" y="351"/>
      <point x="126" y="312"/>
      <point x="126" y="247" type="curve" smooth="yes"/>
      <point x="126" y="213"/>
      <point x="133" y="184"/>
      <point x="150" y="159" type="curve" smooth="yes"/>
      <point x="169" y="130"/>
      <point x="204" y="108"/>
      <point x="266" y="108" type="curve" smooth="yes"/>
      <point x="355" y="108"/>
      <point x="382" y="171"/>
      <point x="396" y="232" type="curve"/>
      <point x="257" y="232" type="line" smooth="yes"/>
      <point x="243" y="232"/>
      <point x="232" y="243"/>
      <point x="232" y="257" type="curve" smooth="yes"/>
      <point x="232" y="271"/>
      <point x="243" y="282"/>
      <point x="257" y="282" type="curve" smooth="yes"/>
      <point x="427" y="282" type="line" smooth="yes"/>
      <point x="441" y="282"/>
      <point x="452" y="271"/>
      <point x="452" y="257" type="curve" smooth="yes"/>
      <point x="452" y="252"/>
      <point x="451" y="248"/>
      <point x="450" y="244" type="curve" smooth="yes"/>
      <point x="439" y="190"/>
      <point x="411" y="58"/>
      <point x="268" y="58" type="curve"/>
    </contour>
  </outline>
</glyph>
<glyph name="kala.sp" format="2">
  <advance width="826"/>
  <unicode hex="EE14"/>
  <outline>
    <contour>
      <point x="593" y="434" type="curve" smooth="yes"/>
      <point x="561" y="434"/>
      <point x="524" y="426"/>
      <point x="483" y="412" type="curve" smooth="yes"/>
      <point x="426" y="393"/>
      <point x="364" y="364"/>
      <point x="309" y="333" type="curve"/>
      <point x="364" y="302"/>
      <point x="426" y="273"/>
      <point x="483" y="254" type="curve" smooth="yes"/>
      <point x="524" y="240"/>
      <point x="561" y="232"/>
      <point x="593" y="232" type="curve" smooth="yes"/>
      <point x="626" y="232"/>
      <point x="651" y="240"/>
      <point x="667" y="256" type="curve" smooth="yes"/>
      <point x="681" y="270"/>
      <point x="693" y="295"/>
      <point x="696" y="333" type="curve"/>
      <point x="693" y="371"/>
      <point x="681" y="396"/>
      <point x="667" y="410" type="curve" smooth="yes"/>
      <point x="651" y="426"/>
      <point x="626" y="434"/>
    </contour>
    <contour>
      <point x="746" y="331" type="line"/>
      <point x="739" y="239"/>
      <point x="687" y="182"/>
      <point x="593" y="182" type="curve" smooth="yes"/>
      <point x="553" y="182"/>
      <point x="511" y="191"/>
      <point x="467" y="206" type="curve" smooth="yes"/>
      <point x="396" y="230"/>
      <point x="321" y="268"/>
      <point x="258" y="304" type="curve"/>
      <point x="177" y="256"/>
      <point x="119" y="213"/>
      <point x="119" y="213" type="curve" smooth="yes"/>
      <point x="115" y="210"/>
      <point x="110" y="208"/>
      <point x="104" y="208" type="curve" smooth="yes"/>
      <point x="90" y="208"/>
      <point x="79" y="219"/>
      <point x="79" y="233" type="curve" smooth="yes"/>
      <point x="79" y="241"/>
      <point x="83" y="248"/>
      <point x="89" y="253" type="curve" smooth="yes"/>
      <point x="89" y="253"/>
      <point x="139" y="289"/>
      <point x="210" y="333" type="curve"/>
      <point x="139" y="377"/>
      <point x="89" y="413"/>
      <point x="89" y="413" type="curve" smooth="yes"/>
      <point x="83" y="418"/>
      <point x="79" y="425"/>
      <point x="79" y="433" type="curve" smooth="yes"/>
      <point x="79" y="447"/>
      <point x="90" y="458"/>
      <point x="104" y="458" type="curve" smooth="yes"/>
      <point x="110" y="458"/>
      <point x="115" y="456"/>
      <point x="119" y="453" type="curve" smooth="yes"/>
      <point x="119" y="453"/>
      <point x="177" y="410"/>
      <point x="258" y="362" type="curve"/>
      <point x="321" y="398"/>
      <point x="396" y="436"/>
      <point x="467" y="460" type="curve" smooth="yes"/>
      <point x="511" y="475"/>
      <point x="553" y="484"/>
      <point x="593" y="484" type="curve" smooth="yes"/>
      <point x="687" y="484"/>
      <point x="739" y="427"/>
      <point x="746" y="335" type="curve"/>
    </contour>
  </outline>
</glyph>
<glyph name="kalama.sp" format="2">
  <advance width="699"/>
  <unicode hex="EE15"/>
  <outline>
    <contour>
      <point x="196" y="408" type="curve" smooth="yes"/>
      <point x="187" y="408"/>
      <point x="179" y="414"/>
      <point x="175" y="421" type="curve" smooth="yes"/>
      <point x="100" y="550" type="line" smooth="yes"/>
      <point x="98" y="554"/>
      <point x="97" y="559"/>
      <point x="97" y="563" type="curve" smooth="yes"/>
      <point x="97" y="576"/>
      <point x="107" y="588"/>
      <point x="121" y="588" type="curve" smooth="yes"/>
      <point x="130" y="588"/>
      <point x="139" y="582"/>
      <point x="143" y="575" type="curve" smooth="yes"/>
      <point x="218" y="446" type="line" smooth="yes"/>
      <point x="220" y="442"/>
      <point x="221" y="438"/>
      <point x="221" y="434" type="curve" smooth="yes"/>
      <point x="221" y="421"/>
      <point x="210" y="408"/>
    </contour>
    <contour>
      <point x="480" y="446" type="curve" smooth="yes"/>
      <point x="555" y="575" type="line" smooth="yes"/>
      <point x="559" y="582"/>
      <point x="568" y="588"/>
      <point x="577" y="588" type="curve" smooth="yes"/>
      <point x="591" y="588"/>
      <point x="601" y="576"/>
      <point x="601" y="563" type="curve" smooth="yes"/>
      <point x="601" y="559"/>
      <point x="600" y="554"/>
      <point x="598" y="550" type="curve" smooth="yes"/>
      <point x="523" y="421" type="line" smooth="yes"/>
      <point x="519" y="414"/>
      <point x="511" y="408"/>
      <point x="502" y="408" type="curve" smooth="yes"/>
      <point x="488" y="408"/>
      <point x="477" y="421"/>
      <point x="477" y="434" type="curve" smooth="yes"/>
      <point x="477" y="438"/>
      <point x="478" y="442"/>
    </contour>
    <contour>
      <point x="324" y="433" type="curve" smooth="yes"/>
      <point x="324" y="583" type="line" smooth="yes"/>
      <point x="324" y="597"/>
      <point x="335" y="608"/>
      <point x="349" y="608" type="curve" smooth="yes"/>
      <point x="363" y="608"/>
      <point x="374" y="597"/>
      <point x="374" y="583" type="curve" smooth="yes"/>
      <point x="374" y="433" type="line" smooth="yes"/>
      <point x="374" y="419"/>
      <point x="363" y="408"/>
      <point x="349" y="408" type="curve" smooth="yes"/>
      <point x="335" y="408"/>
      <point x="324" y="419"/>
    </contour>
    <contour>
      <point x="349" y="143" type="curve" smooth="yes"/>
      <point x="504" y="143"/>
      <point x="553" y="255"/>
      <point x="568" y="308" type="curve"/>
      <point x="130" y="308" type="line"/>
      <point x="145" y="255"/>
      <point x="194" y="143"/>
    </contour>
    <contour>
      <point x="599" y="358" type="line" smooth="yes"/>
      <point x="612" y="358"/>
      <point x="624" y="347"/>
      <point x="624" y="333" type="curve" smooth="yes"/>
      <point x="624" y="332"/>
      <point x="624" y="331"/>
      <point x="624" y="330" type="curve"/>
      <point x="624" y="330"/>
      <point x="596" y="93"/>
      <point x="349" y="93" type="curve" smooth="yes"/>
      <point x="102" y="93"/>
      <point x="74" y="330"/>
      <point x="74" y="330" type="curve"/>
      <point x="74" y="331"/>
      <point x="74" y="332"/>
      <point x="74" y="333" type="curve" smooth="yes"/>
      <point x="74" y="347"/>
      <point x="86" y="358"/>
      <point x="99" y="358" type="curve" smooth="yes"/>
    </contour>
  </outline>
</glyph>
<glyph name="kama.sp" format="2">
  <advance width="688"/>
  <unicode hex="EE16"/>
  <outline>
    <contour>
      <point x="454" y="83" type="curve" smooth="yes"/>
      <point x="454" y="96"/>
      <point x="464" y="107"/>
      <point x="476" y="108" type="curve" smooth="yes"/>
      <point x="567" y="119" type="line"/>
      <point x="389" y="488" type="line"/>
      <point x="204" y="73" type="line" smooth="yes"/>
      <point x="200" y="64"/>
      <point x="191" y="58"/>
      <point x="181" y="58" type="curve" smooth="yes"/>
      <point x="81" y="58" type="line" smooth="yes"/>
      <point x="67" y="58"/>
      <point x="56" y="69"/>
      <point x="56" y="83" type="curve" smooth="yes"/>
      <point x="56" y="97"/>
      <point x="67" y="108"/>
      <point x="81" y="108" type="curve" smooth="yes"/>
      <point x="165" y="108" type="line"/>
      <point x="365" y="558" type="line" smooth="yes"/>
      <point x="369" y="567"/>
      <point x="378" y="573"/>
      <point x="388" y="573" type="curve" smooth="yes"/>
      <point x="398" y="573"/>
      <point x="406" y="567"/>
      <point x="410" y="559" type="curve" smooth="yes"/>
      <point x="627" y="109" type="line" smooth="yes"/>
      <point x="629" y="105"/>
      <point x="630" y="102"/>
      <point x="630" y="98" type="curve" smooth="yes"/>
      <point x="630" y="85"/>
      <point x="619" y="75"/>
      <point x="607" y="73" type="curve" smooth="yes"/>
      <point x="482" y="58" type="line" smooth="yes"/>
      <point x="481" y="58"/>
      <point x="480" y="58"/>
      <point x="479" y="58" type="curve" smooth="yes"/>
      <point x="465" y="58"/>
      <point x="454" y="70"/>
    </contour>
  </outline>
</glyph>
<glyph name="uniEE22.sp" format="2">
  <advance width="672"/>
  <unicode hex="EE17"/>
  <outline>
    <contour>
      <point x="224" y="423" type="curve" smooth="yes"/>
      <point x="214" y="431"/>
      <point x="204" y="435"/>
      <point x="192" y="435" type="curve" smooth="yes"/>
      <point x="187" y="435"/>
      <point x="181" y="435"/>
      <point x="175" y="433" type="curve" smooth="yes"/>
      <point x="129" y="422"/>
      <point x="120" y="401"/>
      <point x="120" y="390" type="curve" smooth="yes"/>
      <point x="120" y="384"/>
      <point x="123" y="377"/>
      <point x="128" y="370" type="curve" smooth="yes"/>
      <point x="139" y="356"/>
      <point x="162" y="342"/>
      <point x="196" y="342" type="curve" smooth="yes"/>
      <point x="215" y="342"/>
      <point x="238" y="346"/>
      <point x="263" y="358" type="curve"/>
      <point x="252" y="387"/>
      <point x="239" y="411"/>
    </contour>
    <contour>
      <point x="300" y="401" type="curve"/>
      <point x="313" y="519"/>
      <point x="361" y="604"/>
      <point x="487" y="610" type="curve"/>
      <point x="501" y="610" type="line" smooth="yes"/>
      <point x="529" y="610"/>
      <point x="554" y="605"/>
      <point x="573" y="594" type="curve" smooth="yes"/>
      <point x="597" y="579"/>
      <point x="609" y="554"/>
      <point x="609" y="529" type="curve" smooth="yes"/>
      <point x="609" y="493"/>
      <point x="588" y="458"/>
      <point x="558" y="429" type="curve" smooth="yes"/>
      <point x="520" y="393"/>
      <point x="462" y="365"/>
      <point x="396" y="365" type="curve" smooth="yes"/>
      <point x="380" y="365"/>
      <point x="364" y="367"/>
      <point x="347" y="370" type="curve"/>
      <point x="345" y="344"/>
      <point x="344" y="318"/>
      <point x="344" y="291" type="curve" smooth="yes"/>
      <point x="344" y="252"/>
      <point x="346" y="212"/>
      <point x="347" y="170" type="curve" smooth="yes"/>
      <point x="349" y="143"/>
      <point x="350" y="125"/>
      <point x="350" y="109" type="curve" smooth="yes"/>
      <point x="350" y="100"/>
      <point x="349" y="91"/>
      <point x="349" y="82" type="curve" smooth="yes"/>
      <point x="349" y="68"/>
      <point x="338" y="58"/>
      <point x="324" y="58" type="curve" smooth="yes"/>
      <point x="310" y="58"/>
      <point x="299" y="69"/>
      <point x="299" y="83" type="curve" smooth="yes"/>
      <point x="296" y="168"/>
      <point x="296" y="231"/>
      <point x="278" y="310" type="curve"/>
      <point x="249" y="298"/>
      <point x="221" y="292"/>
      <point x="196" y="292" type="curve" smooth="yes"/>
      <point x="149" y="292"/>
      <point x="110" y="311"/>
      <point x="88" y="340" type="curve" smooth="yes"/>
      <point x="77" y="355"/>
      <point x="70" y="371"/>
      <point x="70" y="390" type="curve" smooth="yes"/>
      <point x="70" y="433"/>
      <point x="105" y="468"/>
      <point x="163" y="482" type="curve" smooth="yes"/>
      <point x="173" y="484"/>
      <point x="182" y="485"/>
      <point x="191" y="485" type="curve" smooth="yes"/>
      <point x="246" y="485"/>
      <point x="280" y="442"/>
    </contour>
    <contour>
      <point x="559" y="529" type="curve" smooth="yes"/>
      <point x="559" y="553"/>
      <point x="533" y="561"/>
      <point x="501" y="561" type="curve" smooth="yes"/>
      <point x="402" y="561"/>
      <point x="367" y="505"/>
      <point x="353" y="419" type="curve"/>
      <point x="354" y="419" type="line"/>
      <point x="368" y="416"/>
      <point x="382" y="415"/>
      <point x="395" y="415" type="curve" smooth="yes"/>
      <point x="447" y="415"/>
      <point x="493" y="436"/>
      <point x="523" y="465" type="curve" smooth="yes"/>
      <point x="547" y="488"/>
      <point x="559" y="513"/>
    </contour>
  </outline>
</glyph>
<glyph name="ken.sp" format="2">
  <advance width="524"/>
  <unicode hex="EE18"/>
  <outline>
    <contour>
      <point x="448" y="83" type="curve" smooth="yes"/>
      <point x="448" y="69"/>
      <point x="437" y="58"/>
      <point x="423" y="58" type="curve" smooth="yes"/>
      <point x="409" y="58"/>
      <point x="398" y="69"/>
      <point x="398" y="83" type="curve" smooth="yes"/>
      <point x="398" y="234"/>
      <point x="276" y="295"/>
      <point x="148" y="307" type="curve"/>
      <point x="148" y="83" type="line" smooth="yes"/>
      <point x="148" y="69"/>
      <point x="137" y="58"/>
      <point x="123" y="58" type="curve" smooth="yes"/>
      <point x="109" y="58"/>
      <point x="98" y="69"/>
      <point x="98" y="83" type="curve" smooth="yes"/>
      <point x="98" y="583" type="line" smooth="yes"/>
      <point x="98" y="597"/>
      <point x="109" y="608"/>
      <point x="123" y="608" type="curve" smooth="yes"/>
      <point x="137" y="608"/>
      <point x="148" y="597"/>
      <point x="148" y="583" type="curve" smooth="yes"/>
      <point x="148" y="359" type="line"/>
      <point x="169" y="361"/>
      <point x="200" y="366"/>
      <point x="235" y="377" type="curve" smooth="yes"/>
      <point x="321" y="404"/>
      <point x="398" y="462"/>
      <point x="398" y="583" type="curve" smooth="yes"/>
      <point x="398" y="597"/>
      <point x="409" y="608"/>
      <point x="423" y="608" type="curve" smooth="yes"/>
      <point x="437" y="608"/>
      <point x="448" y="597"/>
      <point x="448" y="583" type="curve" smooth="yes"/>
      <point x="448" y="444"/>
      <point x="362" y="368"/>
      <point x="261" y="333" type="curve"/>
      <point x="362" y="297"/>
      <point x="448" y="223"/>
    </contour>
  </outline>
</glyph>
<glyph name="kepeken.sp" format="2">
  <advance width="639"/>
  <unicode hex="EE19"/>
  <outline>
    <contour>
      <point x="363" y="558" type="line"/>
      <point x="363" y="458" type="line"/>
      <point x="513" y="458" type="line"/>
      <point x="513" y="558" type="line"/>
    </contour>
    <contour>
      <point x="163" y="558" type="line"/>
      <point x="163" y="458" type="line"/>
      <point x="313" y="458" type="line"/>
      <point x="313" y="558" type="line"/>
    </contour>
    <contour>
      <point x="513" y="83" type="curve" smooth="yes"/>
      <point x="513" y="69"/>
      <point x="502" y="58"/>
      <point x="488" y="58" type="curve" smooth="yes"/>
      <point x="474" y="58"/>
      <point x="463" y="69"/>
      <point x="463" y="83" type="curve"/>
      <point x="463" y="83"/>
      <point x="463" y="189"/>
      <point x="423" y="255" type="curve" smooth="yes"/>
      <point x="404" y="287"/>
      <point x="377" y="308"/>
      <point x="338" y="308" type="curve" smooth="yes"/>
      <point x="299" y="308"/>
      <point x="273" y="287"/>
      <point x="254" y="255" type="curve" smooth="yes"/>
      <point x="214" y="189"/>
      <point x="213" y="83"/>
      <point x="213" y="83" type="curve"/>
      <point x="213" y="69"/>
      <point x="202" y="58"/>
      <point x="188" y="58" type="curve" smooth="yes"/>
      <point x="179" y="58"/>
      <point x="172" y="62"/>
      <point x="168" y="69" type="curve" smooth="yes"/>
      <point x="68" y="219" type="line" smooth="yes"/>
      <point x="65" y="223"/>
      <point x="64" y="228"/>
      <point x="64" y="233" type="curve" smooth="yes"/>
      <point x="64" y="246"/>
      <point x="74" y="258"/>
      <point x="88" y="258" type="curve" smooth="yes"/>
      <point x="97" y="258"/>
      <point x="105" y="254"/>
      <point x="109" y="247" type="curve" smooth="yes"/>
      <point x="170" y="156" type="line"/>
      <point x="185" y="244"/>
      <point x="221" y="340"/>
      <point x="313" y="356" type="curve"/>
      <point x="313" y="408" type="line"/>
      <point x="138" y="408" type="line" smooth="yes"/>
      <point x="124" y="408"/>
      <point x="113" y="419"/>
      <point x="113" y="433" type="curve" smooth="yes"/>
      <point x="113" y="583" type="line" smooth="yes"/>
      <point x="113" y="597"/>
      <point x="124" y="608"/>
      <point x="138" y="608" type="curve" smooth="yes"/>
      <point x="538" y="608" type="line" smooth="yes"/>
      <point x="552" y="608"/>
      <point x="563" y="597"/>
      <point x="563" y="583" type="curve" smooth="yes"/>
      <point x="563" y="433" type="line" smooth="yes"/>
      <point x="563" y="419"/>
      <point x="552" y="408"/>
      <point x="538" y="408" type="curve" smooth="yes"/>
      <point x="363" y="408" type="line"/>
      <point x="363" y="356" type="line"/>
      <point x="471" y="338"/>
      <point x="513" y="197"/>
    </contour>
  </outline>
</glyph>
